<svg width="24" height="12" viewBox="0 0 24 12" fill="none" xmlns="http://www.w3.org/2000/svg">
<g clip-path="url(#clip0)">
<path d="M8.96151 0.688595L5.88313 8.28956H3.87484L2.35995 2.22328C2.2681 1.85054 2.18829 1.71336 1.9088 1.55575C1.45196 1.29889 0.697547 1.05867 0.0344238 0.909234L0.0791525 0.688595H3.31247C3.72394 0.688595 4.09444 0.972165 4.18868 1.46316L4.98911 5.86196L6.96525 0.688595H8.96151ZM11.6765 0.688595L10.1056 8.28956H8.20553L9.77654 0.688595H11.6765H11.6765ZM16.8304 5.80787C16.8383 3.80216 14.151 3.69084 14.1685 2.79469C14.1749 2.52225 14.4257 2.23221 14.9745 2.15806C15.2464 2.12165 15.9975 2.09266 16.8483 2.49839L17.1811 0.885564C16.724 0.714452 16.1357 0.549805 15.404 0.549805C13.5258 0.549805 12.2046 1.58237 12.194 3.0621C12.1817 4.15665 13.1377 4.76666 13.8567 5.13122C14.5972 5.50348 14.8456 5.74276 14.8422 6.07547C14.8369 6.58548 14.2507 6.81125 13.7058 6.81962C12.7502 6.8353 12.1963 6.5523 11.7544 6.33927L11.4096 8.00552C11.8541 8.21636 12.6733 8.39955 13.5219 8.40886C15.5186 8.40886 16.8246 7.38818 16.8304 5.80797V5.80787ZM21.7901 8.28956H23.5468L22.0121 0.688595H20.3913C20.0257 0.688595 19.7185 0.908188 19.5822 1.24575L16.7313 8.28956H18.7265L19.1223 7.15414H21.5598L21.7902 8.28956H21.7901ZM19.6694 5.59655L20.6698 2.74212L21.2444 5.59655H19.6693H19.6694ZM14.1082 10.3818H13.3361V11.1255H14.1996V11.349H13.076V9.286H14.1554V9.50959H13.3361V10.1614H14.1081V10.382L14.1082 10.3818ZM14.5985 9.17582H14.8586V11.3489H14.5985V9.17582ZM15.5149 10.6572C15.5208 11.0215 15.7427 11.1715 16.0058 11.1715C16.1922 11.1715 16.3075 11.1378 16.4023 11.095L16.4495 11.2879C16.3578 11.3307 16.1982 11.3827 15.9703 11.3827C15.5298 11.3827 15.2667 11.0797 15.2667 10.6327C15.2667 10.186 15.5208 9.83689 15.9379 9.83689C16.4081 9.83689 16.5294 10.2594 16.5294 10.5318C16.5294 10.5868 16.5263 10.6266 16.5204 10.6573H15.5149V10.6572ZM16.2779 10.4644C16.2809 10.2961 16.2099 10.0298 15.9171 10.0298C15.651 10.0298 15.5385 10.2777 15.5178 10.4644H16.2779ZM17.9453 11.2969C17.8773 11.3307 17.7264 11.3828 17.5343 11.3828C17.1025 11.3828 16.8215 11.0797 16.8215 10.6267C16.8215 10.1706 17.1231 9.83698 17.5904 9.83698C17.7441 9.83698 17.8801 9.87662 17.9511 9.91655L17.8922 10.1216C17.8298 10.0879 17.7323 10.0511 17.5904 10.0511C17.262 10.0511 17.0848 10.3052 17.0848 10.6115C17.0848 10.9541 17.2977 11.1654 17.5816 11.1654C17.7294 11.1654 17.827 11.1287 17.9009 11.095L17.9453 11.2969ZM18.6752 9.51244V9.8675H19.0478V10.0724H18.6752V10.8714C18.6752 11.0553 18.7256 11.1592 18.8704 11.1592C18.9413 11.1592 18.9828 11.1532 19.0213 11.1408L19.0332 11.3461C18.9828 11.3643 18.903 11.3827 18.8025 11.3827C18.6811 11.3827 18.5835 11.3398 18.5215 11.2696C18.4505 11.1868 18.4209 11.0553 18.4209 10.8808V10.0724H18.199V9.8675H18.4209V9.5921L18.6753 9.51253L18.6752 9.51244ZM19.4112 10.3298C19.4112 10.1552 19.4081 10.0053 19.3994 9.8675H19.6271L19.6391 10.1612H19.6477C19.7129 9.96246 19.8725 9.83689 20.0469 9.83689C20.0736 9.83689 20.0944 9.84002 20.118 9.84297V10.0972C20.0914 10.0909 20.0649 10.0909 20.0291 10.0909C19.846 10.0909 19.7157 10.2317 19.6803 10.4339C19.6742 10.4754 19.6712 10.5174 19.6714 10.5594V11.3491H19.4112V10.3298ZM21.7175 10.596C21.7175 11.1439 21.3478 11.3827 21.0048 11.3827C20.6203 11.3827 20.3187 11.0888 20.3187 10.6206C20.3187 10.1277 20.6351 9.83698 21.0285 9.83698C21.4395 9.83698 21.7175 10.1459 21.7175 10.5961V10.596ZM20.5848 10.6114C20.5848 10.9358 20.7622 11.1808 21.0166 11.1808C21.2651 11.1808 21.4513 10.9387 21.4513 10.6052C21.4513 10.3542 21.33 10.0388 21.0224 10.0388C20.718 10.0388 20.5848 10.3328 20.5848 10.6114ZM22.1163 10.2685C22.1163 10.1125 22.1132 9.98993 22.1044 9.86759H22.3351L22.3499 10.1125H22.3558C22.4268 9.97463 22.5924 9.83698 22.829 9.83698C23.027 9.83698 23.3347 9.95942 23.3347 10.4673V11.349H23.0745V10.495C23.0745 10.2564 22.9887 10.0572 22.7433 10.0572C22.5746 10.0572 22.4415 10.1828 22.3943 10.3327C22.3824 10.3665 22.3765 10.4123 22.3765 10.4583V11.349H22.1163V10.2685Z" fill="#1A1F71"/>
</g>
<defs>
<clipPath id="clip0">
<rect width="23.5124" height="10.8371" fill="white" transform="translate(0.0344238 0.549805)"/>
</clipPath>
</defs>
</svg>
