<svg width="21" height="16" viewBox="0 0 21 16" fill="none" xmlns="http://www.w3.org/2000/svg">
<g clip-path="url(#clip0)">
<path d="M3.69658 15.2235V14.2109C3.69658 13.8226 3.4524 13.5695 3.03387 13.5695C2.82464 13.5695 2.59794 13.637 2.44097 13.8564C2.31896 13.6708 2.14461 13.5695 1.88303 13.5695C1.7086 13.5695 1.53432 13.6201 1.39475 13.8058V13.6033H1.02856V15.2235H1.39475V14.3289C1.39475 14.0421 1.55171 13.907 1.79589 13.907C2.03991 13.907 2.16208 14.0589 2.16208 14.3289V15.2235H2.52827V14.3289C2.52827 14.0421 2.70255 13.907 2.92925 13.907C3.17343 13.907 3.29544 14.0589 3.29544 14.3289V15.2235H3.69658ZM9.1196 13.6033H8.52678V13.1138H8.16059V13.6033H7.82928V13.9239H8.16052V14.6665C8.16052 15.0379 8.31748 15.2572 8.73601 15.2572C8.89297 15.2572 9.06725 15.2066 9.18942 15.1391L9.08473 14.8353C8.98011 14.9028 8.8581 14.9197 8.77088 14.9197C8.59653 14.9197 8.52678 14.8184 8.52678 14.6496V13.9239H9.1196V13.6033ZM12.2235 13.5694C12.0143 13.5694 11.8748 13.6708 11.7876 13.8058V13.6033H11.4214V15.2235H11.7876V14.3121C11.7876 14.0421 11.9096 13.8902 12.1363 13.8902C12.2061 13.8902 12.2933 13.9071 12.363 13.9239L12.4676 13.5864C12.3979 13.5695 12.2933 13.5695 12.2235 13.5695V13.5694ZM7.53283 13.7383C7.35839 13.6201 7.1143 13.5695 6.85272 13.5695C6.43426 13.5695 6.15529 13.772 6.15529 14.0927C6.15529 14.3628 6.36452 14.5146 6.73071 14.5653L6.90507 14.5822C7.0969 14.6159 7.20151 14.6665 7.20151 14.7509C7.20151 14.869 7.06203 14.9534 6.81785 14.9534C6.57375 14.9534 6.38192 14.869 6.25983 14.7847L6.08547 15.0547C6.2773 15.1897 6.53888 15.2572 6.80037 15.2572C7.28865 15.2572 7.5677 15.0379 7.5677 14.734C7.5677 14.4471 7.341 14.2952 6.99221 14.2446L6.81785 14.2277C6.66089 14.2108 6.53888 14.1771 6.53888 14.0758C6.53888 13.9577 6.66089 13.8902 6.85272 13.8902C7.06203 13.8902 7.27126 13.9745 7.37587 14.0252L7.53283 13.7383ZM17.2631 13.5695C17.0538 13.5695 16.9143 13.6708 16.827 13.8058V13.6033H16.4609V15.2235H16.827V14.3121C16.827 14.0421 16.9491 13.8902 17.1758 13.8902C17.2456 13.8902 17.3328 13.9071 17.4025 13.9239L17.5072 13.5864C17.4374 13.5695 17.3328 13.5695 17.2631 13.5695ZM12.5897 14.4134C12.5897 14.9028 12.9385 15.2572 13.4791 15.2572C13.7232 15.2572 13.8975 15.2066 14.0719 15.0716L13.8975 14.7847C13.758 14.8859 13.6186 14.9365 13.4616 14.9365C13.1652 14.9365 12.9559 14.734 12.9559 14.4134C12.9559 14.1096 13.1652 13.907 13.4616 13.8902C13.6186 13.8902 13.758 13.9408 13.8975 14.0421L14.0719 13.7552C13.8975 13.6201 13.7232 13.5695 13.4791 13.5695C12.9385 13.5695 12.5897 13.9239 12.5897 14.4134ZM15.9727 14.4134V13.6033H15.6065V13.8058C15.4844 13.6539 15.31 13.5695 15.0833 13.5695C14.6125 13.5695 14.2463 13.9239 14.2463 14.4134C14.2463 14.9028 14.6125 15.2572 15.0833 15.2572C15.3274 15.2572 15.5019 15.1729 15.6065 15.021V15.2235H15.9727V14.4134ZM14.6299 14.4134C14.6299 14.1264 14.8217 13.8902 15.1356 13.8902C15.432 13.8902 15.6413 14.1096 15.6413 14.4134C15.6413 14.7003 15.432 14.9365 15.1356 14.9365C14.8217 14.9196 14.6299 14.7003 14.6299 14.4134ZM10.2531 13.5695C9.76484 13.5695 9.41605 13.907 9.41605 14.4134C9.41605 14.9197 9.76476 15.2572 10.2705 15.2572C10.5146 15.2572 10.7588 15.1897 10.9506 15.0379L10.7762 14.7847C10.6367 14.8859 10.4623 14.9534 10.288 14.9534C10.0613 14.9534 9.83458 14.8522 9.78223 14.5652H11.0204V14.4303C11.0378 13.907 10.7239 13.5695 10.253 13.5695H10.2531ZM10.2531 13.8733C10.4797 13.8733 10.6368 14.0083 10.6716 14.2615H9.79971C9.83458 14.0421 9.99154 13.8733 10.2531 13.8733ZM19.3381 14.4134V12.9619H18.9719V13.8058C18.8498 13.6539 18.6755 13.5695 18.4488 13.5695C17.978 13.5695 17.6118 13.9239 17.6118 14.4134C17.6118 14.9028 17.978 15.2572 18.4488 15.2572C18.6929 15.2572 18.8673 15.1729 18.9719 15.021V15.2235H19.3381V14.4134ZM17.9954 14.4134C17.9954 14.1264 18.1872 13.8902 18.5011 13.8902C18.7976 13.8902 19.0068 14.1096 19.0068 14.4134C19.0068 14.7003 18.7976 14.9365 18.5011 14.9365C18.1872 14.9196 17.9954 14.7003 17.9954 14.4134ZM5.75415 14.4134V13.6033H5.38796V13.8058C5.26587 13.6539 5.09152 13.5695 4.86481 13.5695C4.39401 13.5695 4.02782 13.9239 4.02782 14.4134C4.02782 14.9028 4.39401 15.2572 4.86481 15.2572C5.10899 15.2572 5.28335 15.1729 5.38796 15.021V15.2235H5.75415V14.4134ZM4.39401 14.4134C4.39401 14.1264 4.58584 13.8902 4.89968 13.8902C5.19613 13.8902 5.40544 14.1096 5.40544 14.4134C5.40544 14.7003 5.19613 14.9365 4.89968 14.9365C4.58584 14.9196 4.39401 14.7003 4.39401 14.4134Z" fill="black"/>
<path d="M7.41113 1.29932H12.904V10.8519H7.41113V1.29932Z" fill="#FF5F00"/>
<path d="M7.7598 6.07585C7.7598 4.13498 8.7014 2.41346 10.1487 1.29952C9.08507 0.489426 7.7424 0 6.27764 0C2.80742 0 0 2.71721 0 6.07585C0 9.43441 2.80742 12.1517 6.27756 12.1517C7.74232 12.1517 9.08499 11.6623 10.1487 10.8521C8.7014 9.75508 7.7598 8.01672 7.7598 6.07585Z" fill="#EB001B"/>
<path d="M20.3149 6.07585C20.3149 9.43441 17.5075 12.1517 14.0374 12.1517C12.5726 12.1517 11.23 11.6623 10.1663 10.8521C11.631 9.73824 12.5552 8.01672 12.5552 6.07585C12.5552 4.13498 11.6135 2.41346 10.1663 1.29952C11.2299 0.489426 12.5726 0 14.0374 0C17.5075 0 20.315 2.73413 20.315 6.07585H20.3149Z" fill="#F79E1B"/>
</g>
<defs>
<clipPath id="clip0">
<rect width="20.335" height="15.2994" fill="white"/>
</clipPath>
</defs>
</svg>
