<svg width="11" height="18" viewBox="0 0 11 18" fill="none" xmlns="http://www.w3.org/2000/svg">
<path fill-rule="evenodd" clip-rule="evenodd" d="M5.50054 0C6.66731 0 7.03403 0.877897 7.34051 1.75579C7.47073 2.12777 10.5013 10.845 10.5916 11.1062C10.617 11.1795 10.6004 11.2989 10.4932 11.3423C10.3858 11.3844 8.81105 12.0286 8.72414 12.0626C8.63709 12.0966 8.53909 12.0464 8.507 11.9554C8.47465 11.8645 7.82189 9.96428 7.74825 9.75184H3.25812C3.18407 9.96428 2.52454 11.8685 2.49422 11.9554C2.4643 12.0423 2.3694 12.1006 2.27749 12.0626C2.18516 12.0246 0.603214 11.3802 0.509808 11.3423C0.41938 11.3056 0.377686 11.1971 0.410175 11.1062C0.521179 10.7796 3.50571 2.20285 3.65854 1.75579C3.95406 0.891974 4.33405 0 5.50054 0ZM0.170027 15.5962C0.0759439 15.5962 0 15.679 0 15.7807V17.8169C0 17.9187 0.0760792 18 0.170027 18H10.8313C10.9247 18 11 17.9187 11 17.8169V15.7807C11 15.6788 10.9247 15.5962 10.8313 15.5962H0.170027ZM5.49174 2.84627L3.97315 7.63474H7.03416L5.51042 2.84627H5.49188H5.49174Z" fill="#EE3424"/>
</svg>
