<svg width="20" height="15" viewBox="0 0 20 15" fill="none" xmlns="http://www.w3.org/2000/svg">
<path d="M19.4762 11.9762C19.4762 13.6428 18.119 15 16.4523 15H0V3.02383C0 1.35717 1.35717 0 3.02383 0H19.4762V11.9762Z" fill="white"/>
<path d="M14.1191 8.90457H15.3691C15.4049 8.90457 15.4882 8.89271 15.5239 8.89271C15.7621 8.84508 15.9644 8.63077 15.9644 8.33315C15.9644 8.04747 15.7621 7.83316 15.5239 7.77366C15.4882 7.76172 15.4168 7.76172 15.3692 7.76172H14.1192V8.90457H14.1191Z" fill="url(#paint0_linear)"/>
<path d="M15.2255 1.01196C14.035 1.01196 13.0587 1.97634 13.0587 3.17869V5.42872H16.1183C16.1898 5.42872 16.2731 5.42872 16.3326 5.44059C17.0231 5.47634 17.535 5.83346 17.535 6.45243C17.535 6.94055 17.1897 7.35724 16.5469 7.44062V7.46436C17.2492 7.51198 17.785 7.90485 17.785 8.51196C17.785 9.16677 17.1897 9.59532 16.404 9.59532H13.0469V14.0001H16.2254C17.4159 14.0001 18.3922 13.0358 18.3922 11.8334V1.01196H15.2255Z" fill="url(#paint1_linear)"/>
<path d="M15.8096 6.59517C15.8096 6.30942 15.6072 6.11891 15.3691 6.08316C15.3454 6.08316 15.2858 6.07129 15.2501 6.07129H14.1191V7.11889H15.2501C15.2859 7.11889 15.3572 7.11889 15.3692 7.10703C15.6073 7.07127 15.8097 6.88084 15.8097 6.59509L15.8096 6.59517Z" fill="url(#paint2_linear)"/>
<path d="M3.25086 1.01196C2.06038 1.01196 1.08413 1.97634 1.08413 3.17869V8.52398C1.69132 8.82153 2.32224 9.01203 2.95324 9.01203C3.70322 9.01203 4.10796 8.55966 4.10796 7.94061V5.41677H5.96512V7.92867C5.96512 8.90483 5.35801 9.70252 3.29848 9.70252C2.04851 9.70252 1.07227 9.42864 1.07227 9.42864V13.9882H4.25084C5.44132 13.9882 6.41756 13.0239 6.41756 11.8215V1.01212H3.25078L3.25086 1.01196Z" fill="url(#paint3_linear)"/>
<path d="M9.23899 1.01196C8.04851 1.01196 7.07227 1.97634 7.07227 3.17869V6.01201C7.61996 5.5477 8.57231 5.25008 10.108 5.32152C10.9295 5.35728 11.8104 5.58346 11.8104 5.58346V6.50013C11.3699 6.27395 10.8462 6.07151 10.1675 6.02388C9.00086 5.94058 8.2985 6.512 8.2985 7.51198C8.2985 8.52391 9.00086 9.09533 10.1675 9.00008C10.8462 8.95246 11.37 8.73822 11.8104 8.52391V9.44058C11.8104 9.44058 10.9413 9.66676 10.108 9.70252C8.57231 9.77388 7.61996 9.47626 7.07234 9.01203V14.012H10.2509C11.4414 14.012 12.4176 13.0477 12.4176 11.8453V1.01212H9.23899V1.01196Z" fill="url(#paint4_linear)"/>
<defs>
<linearGradient id="paint0_linear" x1="13.0576" y1="8.33456" x2="18.4074" y2="8.33456" gradientUnits="userSpaceOnUse">
<stop stop-color="#007940"/>
<stop offset="0.2285" stop-color="#00873F"/>
<stop offset="0.7433" stop-color="#40A737"/>
<stop offset="1" stop-color="#5CB531"/>
</linearGradient>
<linearGradient id="paint1_linear" x1="13.0567" y1="7.50085" x2="18.4068" y2="7.50085" gradientUnits="userSpaceOnUse">
<stop stop-color="#007940"/>
<stop offset="0.2285" stop-color="#00873F"/>
<stop offset="0.7433" stop-color="#40A737"/>
<stop offset="1" stop-color="#5CB531"/>
</linearGradient>
<linearGradient id="paint2_linear" x1="13.0574" y1="6.5936" x2="18.4076" y2="6.5936" gradientUnits="userSpaceOnUse">
<stop stop-color="#007940"/>
<stop offset="0.2285" stop-color="#00873F"/>
<stop offset="0.7433" stop-color="#40A737"/>
<stop offset="1" stop-color="#5CB531"/>
</linearGradient>
<linearGradient id="paint3_linear" x1="1.08167" y1="7.50086" x2="6.5142" y2="7.50086" gradientUnits="userSpaceOnUse">
<stop stop-color="#1F286F"/>
<stop offset="0.4751" stop-color="#004E94"/>
<stop offset="0.8261" stop-color="#0066B1"/>
<stop offset="1" stop-color="#006FBC"/>
</linearGradient>
<linearGradient id="paint4_linear" x1="7.04148" y1="7.5008" x2="12.3178" y2="7.5008" gradientUnits="userSpaceOnUse">
<stop stop-color="#6C2C2F"/>
<stop offset="0.1735" stop-color="#882730"/>
<stop offset="0.5731" stop-color="#BE1833"/>
<stop offset="0.8585" stop-color="#DC0436"/>
<stop offset="1" stop-color="#E60039"/>
</linearGradient>
</defs>
</svg>
