<svg width="22" height="16" viewBox="0 0 22 16" fill="none" xmlns="http://www.w3.org/2000/svg">
<path d="M3.86252 15.8597V14.8048C3.86252 14.4003 3.60734 14.1367 3.16993 14.1367C2.95127 14.1367 2.71434 14.207 2.55031 14.4356C2.4228 14.2421 2.24058 14.1367 1.96721 14.1367C1.78491 14.1367 1.60277 14.1894 1.45692 14.3828V14.1718H1.07422V15.8597H1.45692V14.9278C1.45692 14.629 1.62095 14.4883 1.87614 14.4883C2.13116 14.4883 2.25884 14.6465 2.25884 14.9278V15.8597H2.64154V14.9278C2.64154 14.629 2.82367 14.4883 3.0606 14.4883C3.31579 14.4883 3.4433 14.6465 3.4433 14.9278V15.8597H3.86252ZM9.53003 14.1718H8.91049V13.6619H8.52779V14.1718H8.18154V14.5058H8.52771V15.2795C8.52771 15.6664 8.69175 15.8949 9.12916 15.8949C9.29319 15.8949 9.47533 15.8422 9.603 15.7719L9.49359 15.4553C9.38426 15.5257 9.25675 15.5433 9.1656 15.5433C8.98338 15.5433 8.91049 15.4378 8.91049 15.2619V14.5058H9.53003V14.1718ZM12.7739 14.1366C12.5553 14.1366 12.4095 14.2421 12.3183 14.3828V14.1718H11.9356V15.8597H12.3183V14.9103C12.3183 14.629 12.4459 14.4707 12.6828 14.4707C12.7557 14.4707 12.8468 14.4883 12.9197 14.5059L13.029 14.1543C12.9561 14.1367 12.8468 14.1367 12.7739 14.1367V14.1366ZM7.87173 14.3125C7.68943 14.1894 7.43432 14.1367 7.16095 14.1367C6.72363 14.1367 6.43208 14.3476 6.43208 14.6817C6.43208 14.9631 6.65075 15.1213 7.03344 15.174L7.21566 15.1917C7.41614 15.2267 7.52547 15.2795 7.52547 15.3675C7.52547 15.4905 7.3797 15.5784 7.12451 15.5784C6.86941 15.5784 6.66892 15.4905 6.54133 15.4026L6.35911 15.6839C6.55959 15.8246 6.83296 15.8949 7.10625 15.8949C7.61654 15.8949 7.90817 15.6664 7.90817 15.3498C7.90817 15.0509 7.67125 14.8927 7.30673 14.84L7.12451 14.8223C6.96047 14.8047 6.83296 14.7696 6.83296 14.6642C6.83296 14.5411 6.96047 14.4707 7.16095 14.4707C7.3797 14.4707 7.59836 14.5586 7.70769 14.6114L7.87173 14.3125ZM18.0406 14.1367C17.8219 14.1367 17.6761 14.2421 17.585 14.3828V14.1718H17.2023V15.8597H17.585V14.9103C17.585 14.629 17.7126 14.4707 17.9494 14.4707C18.0224 14.4707 18.1135 14.4883 18.1864 14.5059L18.2957 14.1543C18.2229 14.1367 18.1135 14.1367 18.0406 14.1367ZM13.1566 15.0158C13.1566 15.5257 13.5211 15.8949 14.0861 15.8949C14.3412 15.8949 14.5234 15.8422 14.7056 15.7015L14.5234 15.4026C14.3776 15.5081 14.2318 15.5608 14.0678 15.5608C13.758 15.5608 13.5393 15.3498 13.5393 15.0158C13.5393 14.6993 13.758 14.4883 14.0678 14.4707C14.2318 14.4707 14.3776 14.5234 14.5234 14.629L14.7056 14.3301C14.5234 14.1894 14.3412 14.1367 14.0861 14.1367C13.5211 14.1367 13.1566 14.5059 13.1566 15.0158ZM16.6921 15.0158V14.1718H16.3094V14.3828C16.1818 14.2246 15.9996 14.1367 15.7626 14.1367C15.2706 14.1367 14.8879 14.5059 14.8879 15.0158C14.8879 15.5257 15.2706 15.8949 15.7626 15.8949C16.0177 15.8949 16.2 15.807 16.3094 15.6488V15.8597H16.6921V15.0158ZM15.2888 15.0158C15.2888 14.7169 15.4893 14.4707 15.8173 14.4707C16.1271 14.4707 16.3458 14.6993 16.3458 15.0158C16.3458 15.3147 16.1271 15.5608 15.8173 15.5608C15.4893 15.5432 15.2888 15.3147 15.2888 15.0158ZM10.7147 14.1367C10.2044 14.1367 9.83985 14.4883 9.83985 15.0158C9.83985 15.5433 10.2043 15.8949 10.7328 15.8949C10.9879 15.8949 11.2431 15.8246 11.4436 15.6664L11.2613 15.4026C11.1155 15.5081 10.9333 15.5784 10.7511 15.5784C10.5142 15.5784 10.2773 15.473 10.2225 15.174H11.5165V15.0334C11.5348 14.4883 11.2067 14.1367 10.7146 14.1367H10.7147ZM10.7147 14.4531C10.9515 14.4531 11.1156 14.5938 11.152 14.8576H10.2408C10.2773 14.629 10.4413 14.4531 10.7147 14.4531ZM20.2092 15.0158V13.5037H19.8265V14.3828C19.6989 14.2246 19.5167 14.1367 19.2798 14.1367C18.7878 14.1367 18.4051 14.5059 18.4051 15.0158C18.4051 15.5257 18.7878 15.8949 19.2798 15.8949C19.535 15.8949 19.7172 15.807 19.8265 15.6488V15.8597H20.2092V15.0158ZM18.806 15.0158C18.806 14.7169 19.0064 14.4707 19.3345 14.4707C19.6443 14.4707 19.863 14.6993 19.863 15.0158C19.863 15.3147 19.6443 15.5608 19.3345 15.5608C19.0064 15.5432 18.806 15.3147 18.806 15.0158ZM6.01286 15.0158V14.1718H5.63016V14.3828C5.50257 14.2246 5.32035 14.1367 5.08342 14.1367C4.59139 14.1367 4.2087 14.5059 4.2087 15.0158C4.2087 15.5257 4.59139 15.8949 5.08342 15.8949C5.33861 15.8949 5.52083 15.807 5.63016 15.6488V15.8597H6.01286V15.0158ZM4.59139 15.0158C4.59139 14.7169 4.79188 14.4707 5.11987 14.4707C5.42968 14.4707 5.64842 14.6993 5.64842 15.0158C5.64842 15.3147 5.42968 15.5608 5.11987 15.5608C4.79188 15.5432 4.59139 15.3147 4.59139 15.0158Z" fill="black"/>
<path d="M7.74609 1.35376H13.4866V11.3056H7.74609V1.35376Z" fill="#FF5F00"/>
<path d="M8.10965 6.32981C8.10965 4.30782 9.0937 2.51434 10.6062 1.35384C9.49467 0.509883 8.09146 0 6.56067 0C2.934 0 0 2.83079 0 6.32981C0 9.82875 2.934 12.6596 6.56059 12.6596C8.09138 12.6596 9.49458 12.1497 10.6062 11.3057C9.0937 10.1628 8.10965 8.3518 8.10965 6.32981Z" fill="#EB001B"/>
<path d="M21.2312 6.32981C21.2312 9.82875 18.2972 12.6596 14.6706 12.6596C13.1399 12.6596 11.7367 12.1497 10.625 11.3057C12.1558 10.1453 13.1217 8.3518 13.1217 6.32981C13.1217 4.30782 12.1375 2.51434 10.625 1.35384C11.7366 0.509883 13.1399 0 14.6706 0C18.2972 0 21.2313 2.84841 21.2313 6.32981H21.2312Z" fill="#F79E1B"/>
</svg>
