<svg width="32" height="9" viewBox="0 0 32 9" fill="none" xmlns="http://www.w3.org/2000/svg">
<path fill-rule="evenodd" clip-rule="evenodd" d="M27.9649 0H21.9863C22.3078 1.99286 24.2363 3.85714 26.3578 3.85714H31.1149C31.1792 3.66429 31.1792 3.40714 31.1792 3.21429C31.1792 1.41429 29.7649 0 27.9649 0Z" fill="url(#paint0_linear)"/>
<path fill-rule="evenodd" clip-rule="evenodd" d="M22.5 4.17871V9.00014H25.3929V6.42871H27.9643C29.3786 6.42871 30.6 5.46443 30.9857 4.17871H22.5Z" fill="#4DB45F"/>
<path fill-rule="evenodd" clip-rule="evenodd" d="M12.2148 0V9H14.7863C14.7863 9 15.4291 9 15.7506 8.35714C17.4863 4.88571 18.0006 3.85714 18.0006 3.85714H18.322V9H21.2148V0H18.6434C18.6434 0 18.0006 0.0642857 17.6791 0.642857C16.2006 3.6 15.4291 5.14286 15.4291 5.14286H15.1077V0H12.2148Z" fill="#4DB45F"/>
<path fill-rule="evenodd" clip-rule="evenodd" d="M0 9V0H2.89286C2.89286 0 3.72857 0 4.17857 1.28571C5.33571 4.69286 5.46429 5.14286 5.46429 5.14286C5.46429 5.14286 5.72143 4.30714 6.75 1.28571C7.2 0 8.03571 0 8.03571 0H10.9286V9H8.03571V4.17857H7.71429L6.10714 9H4.82143L3.21429 4.17857H2.89286V9H0Z" fill="#4DB45F"/>
<defs>
<linearGradient id="paint0_linear" x1="21.9697" y1="1.92857" x2="31.1792" y2="1.92857" gradientUnits="userSpaceOnUse">
<stop stop-color="#00B4E6"/>
<stop offset="1" stop-color="#088CCB"/>
</linearGradient>
</defs>
</svg>
