<svg width="17" height="18" viewBox="0 0 17 18" fill="none" xmlns="http://www.w3.org/2000/svg">
<path d="M13.9604 11.8135C14.0058 12.1543 13.9036 12.302 13.79 12.302C13.6764 12.302 13.5174 12.1656 13.347 11.893C13.1766 11.6204 13.1084 11.3137 13.1993 11.1547C13.2561 11.0524 13.3697 11.007 13.5287 11.0638C13.8127 11.166 13.9263 11.609 13.9604 11.8135ZM12.3474 12.5632C12.6995 12.8585 12.8018 13.2107 12.62 13.4492C12.5178 13.5855 12.3474 13.6537 12.1543 13.6537C11.9612 13.6537 11.7567 13.5855 11.6204 13.4606C11.3023 13.188 11.2115 12.7336 11.4159 12.4837C11.4955 12.3815 11.6318 12.3247 11.7794 12.3247C11.9725 12.336 12.177 12.4155 12.3474 12.5632ZM11.7681 15.403C13.2675 15.403 14.8918 15.9142 16.6866 17.5158C16.8683 17.6748 17.1069 17.4817 16.9478 17.2773C15.1758 15.0395 13.5401 14.6192 11.9157 14.2557C9.91653 13.8127 8.89421 12.6882 8.17858 11.4614C8.03091 11.2115 7.97412 11.2569 7.96276 11.575C7.9514 11.9612 7.97412 12.4723 8.06499 12.9721C7.98548 12.9721 7.90596 12.9721 7.82645 12.9721C4.9753 12.9721 2.65804 10.6549 2.65804 7.80373C2.65804 4.95259 4.9753 2.63532 7.82645 2.63532C10.6776 2.63532 12.9949 4.95259 12.9949 7.80373C12.9949 8.0082 12.9835 8.21266 12.9608 8.40577C12.5859 8.33761 11.8362 8.32625 11.3137 8.37169C11.1206 8.38305 11.1433 8.48528 11.291 8.508C12.9949 8.81469 14.1762 9.87109 14.4375 11.8021C14.4488 11.8476 14.5056 11.8589 14.5283 11.8249C15.2326 10.6549 15.6302 9.28042 15.6302 7.81509C15.6302 3.49862 12.1316 0 7.81509 0C3.49862 0 0 3.49862 0 7.81509C0 12.1316 3.49862 15.6302 7.81509 15.6302C8.96236 15.6302 10.0983 15.403 11.7681 15.403Z" fill="#FF8C00"/>
</svg>
