<svg width="16" height="16" viewBox="0 0 16 16" fill="none" xmlns="http://www.w3.org/2000/svg">
<path d="M14.1407 3.1084C14.5156 3.59974 14.8331 4.13354 15.0866 4.69908L7.89583 10.0711L4.89062 8.16193V5.86508L7.89583 7.77427L14.1407 3.1084Z" fill="#21A038"/>
<path d="M1.82372 7.99998C1.82372 7.89692 1.8262 7.79454 1.83116 7.69274L0.0099188 7.60229C0.00371989 7.73422 2.20089e-06 7.86742 2.20089e-06 8.00184C-0.000772687 9.05217 0.203077 10.0923 0.599862 11.0625C0.996644 12.0328 1.57855 12.9141 2.3122 13.6559L3.60405 12.3473C3.03931 11.7773 2.59131 11.0998 2.28578 10.3537C1.98025 9.60766 1.82322 8.80773 1.82372 7.99998Z" fill="url(#paint0_linear)"/>
<path d="M7.89464 1.84774C7.99629 1.84774 8.0973 1.85152 8.19773 1.85654L8.28886 0.0101615C8.1583 0.00387914 8.02687 0.000738355 7.89464 0.000738355C6.85777 -0.000543088 5.83093 0.205752 4.87298 0.607777C3.91504 1.0098 3.04489 1.59964 2.3125 2.34343L3.60435 3.65266C4.16683 3.08014 4.83544 2.62594 5.57172 2.31619C6.308 2.00644 7.09741 1.84724 7.89464 1.84774Z" fill="url(#paint1_linear)"/>
<path d="M7.89485 14.1524C7.7932 14.1524 7.69214 14.1524 7.59113 14.1442L7.5 15.99C7.631 15.9967 7.76263 16.0001 7.89485 16.0001C8.93128 16.0011 9.95764 15.7947 10.9151 15.3926C11.8725 14.9904 12.7421 14.4005 13.4739 13.6567L12.1845 12.3481C11.622 12.9204 10.9534 13.3743 10.2173 13.6839C9.48115 13.9936 8.69189 14.1528 7.89485 14.1524Z" fill="url(#paint2_linear)"/>
<path d="M11.3169 2.9213L12.8517 1.77477C11.4489 0.623508 9.69773 -0.00319578 7.89258 1.22552e-05V1.84765C9.11494 1.84611 10.3089 2.22048 11.3169 2.9213Z" fill="url(#paint3_linear)"/>
<path d="M15.7877 7.99979C15.7887 7.51914 15.7472 7.03933 15.6637 6.56616L13.9646 7.83519C13.9646 7.88988 13.9646 7.94452 13.9646 7.99979C13.9651 8.85939 13.7873 9.70951 13.4428 10.495C13.0983 11.2805 12.5947 11.9839 11.9648 12.5595L13.1904 13.9322C14.0093 13.183 14.6637 12.2677 15.1111 11.2458C15.5586 10.2238 15.7891 9.11787 15.7877 7.99979Z" fill="#21A038"/>
<path d="M7.89466 14.1524C7.04641 14.1527 6.20755 13.9725 5.43237 13.6233C4.65724 13.2742 3.96308 12.764 3.39485 12.1257L2.04102 13.3671C2.78021 14.1972 3.6833 14.8605 4.69172 15.3141C5.70014 15.7676 6.79136 16.0013 7.89466 16V14.1524Z" fill="url(#paint4_linear)"/>
<path d="M3.8235 3.44007L2.59859 2.06738C1.77945 2.81647 1.12481 3.73169 0.677145 4.75368C0.229481 5.77567 -0.00122049 6.88161 4.8557e-06 7.99978H1.82373C1.82335 7.14023 2.00117 6.29012 2.34567 5.50462C2.69016 4.71915 3.19364 4.01577 3.8235 3.44007Z" fill="url(#paint5_linear)"/>
<defs>
<linearGradient id="paint0_linear" x1="2.68103" y1="13.4254" x2="0.640623" y2="7.60533" gradientUnits="userSpaceOnUse">
<stop offset="0.14" stop-color="#F1E813"/>
<stop offset="0.3" stop-color="#E6E418"/>
<stop offset="0.58" stop-color="#C9DA26"/>
<stop offset="0.89" stop-color="#A2CC39"/>
</linearGradient>
<linearGradient id="paint1_linear" x1="2.83321" y1="2.67011" x2="7.9825" y2="0.733839" gradientUnits="userSpaceOnUse">
<stop offset="0.06" stop-color="#0FA7DF"/>
<stop offset="0.54" stop-color="#0098F8"/>
<stop offset="0.92" stop-color="#0290EA"/>
</linearGradient>
<linearGradient id="paint2_linear" x1="7.37976" y1="14.8849" x2="13.1906" y2="13.5896" gradientUnits="userSpaceOnUse">
<stop offset="0.12" stop-color="#A2CC39"/>
<stop offset="0.28" stop-color="#86C239"/>
<stop offset="0.87" stop-color="#219F38"/>
</linearGradient>
<linearGradient id="paint3_linear" x1="7.51323" y1="0.618822" x2="12.4862" y2="2.1331" gradientUnits="userSpaceOnUse">
<stop offset="0.06" stop-color="#0290EA"/>
<stop offset="0.79" stop-color="#0C89CA"/>
</linearGradient>
<linearGradient id="paint4_linear" x1="2.49849" y1="13.1422" x2="7.91652" y2="15.1402" gradientUnits="userSpaceOnUse">
<stop offset="0.13" stop-color="#F1E813"/>
<stop offset="0.3" stop-color="#EAE616"/>
<stop offset="0.53" stop-color="#D8DF1F"/>
<stop offset="0.8" stop-color="#BAD52D"/>
<stop offset="0.98" stop-color="#A2CC39"/>
</linearGradient>
<linearGradient id="paint5_linear" x1="0.679404" y1="8.22343" x2="2.89817" y2="2.52827" gradientUnits="userSpaceOnUse">
<stop offset="0.07" stop-color="#A2CC39"/>
<stop offset="0.26" stop-color="#81C45E"/>
<stop offset="0.92" stop-color="#0FA7DF"/>
</linearGradient>
</defs>
</svg>
