<svg width="20" height="17" viewBox="0 0 20 17" fill="none" xmlns="http://www.w3.org/2000/svg">
<path d="M18.9059 7.95208L19.1546 7.16103L18.332 7.18666C18.2625 7.18666 17.7573 7.17241 17.2672 6.81922C17.3038 6.82278 17.3403 6.82778 17.3776 6.82778C17.882 6.82778 18.37 6.52585 18.5656 6.09434L18.9195 5.31464C18.476 5.32036 18.0705 5.26482 18.0705 5.26482C18.0669 5.26412 17.7473 5.22353 17.3776 4.8483C17.1124 4.57912 16.7843 4.43671 16.4289 4.43671C16.2734 4.43671 16.1344 4.46449 16.0147 4.50226C16.0333 4.43886 16.0512 4.37476 16.0613 4.30854C16.1745 3.57873 15.7016 3.0219 15.7016 3.02263L15.0832 2.26143L14.6999 3.15578C14.6984 3.15863 14.6017 3.36796 14.4283 3.4705C14.376 3.20776 14.2477 2.91225 13.9733 2.62956C13.4559 2.09694 12.8261 2.01794 12.4965 2.01794C12.3439 2.01794 12.235 2.03431 12.2084 2.03859L11.4618 2.18455C11.5048 2.01864 11.5965 1.73027 11.7642 1.47035L12.1762 0.832372L11.1393 0.949847L10.809 0.252783L10.1699 0.58032L9.57872 0L8.98904 0.58032L8.34769 0.252783L8.01809 0.949847L6.98198 0.832372L7.39473 1.47035C7.56239 1.73027 7.6541 2.01794 7.69638 2.18382L6.98416 2.04426L6.95976 2.03998C6.92394 2.03431 6.81576 2.01794 6.66238 2.01794C6.33281 2.01794 5.70296 2.09768 5.18704 2.62956C4.91187 2.91152 4.78363 3.20776 4.7306 3.4705C4.55864 3.36939 4.46263 3.16288 4.46263 3.16288L4.07854 2.26359L3.45014 3.02973C3.37348 3.12872 2.99444 3.65204 3.09758 4.30999C3.10837 4.3755 3.12557 4.43957 3.14419 4.50293C3.02526 4.4652 2.88619 4.43745 2.73073 4.43745C2.37535 4.43745 2.04715 4.57986 1.78133 4.849C1.413 5.22283 1.09489 5.26482 1.09774 5.26482C1.09774 5.26482 0.761648 5.32466 0.24146 5.31538L0.593317 6.09509C0.788903 6.5273 1.2776 6.82845 1.78133 6.82845C1.8193 6.82845 1.85583 6.82348 1.8931 6.81992C1.4044 7.17308 0.899267 7.18733 0.838373 7.18807L0 7.16103L0.253659 7.95137C0.381194 8.35866 0.807521 9.03367 1.62439 9.10631C1.53553 9.47654 1.3385 9.89095 0.905719 10.0697L0.28162 10.3253L0.621948 10.9142C0.813973 11.2318 1.2647 11.6034 1.90671 11.6034C2.04571 11.6027 2.17969 11.5892 2.30871 11.5622C2.34164 11.7074 2.38321 11.8526 2.43194 11.9965C2.62326 12.5618 2.45842 12.9563 2.45631 12.9606L2.14817 13.6021L2.83605 13.7823C2.84466 13.7851 3.05244 13.8414 3.31256 13.8414C3.43082 13.8414 3.5433 13.8293 3.64936 13.8044C3.72961 13.7858 3.80626 13.7609 3.88006 13.731C3.96892 13.8898 4.07713 14.0343 4.20325 14.1639C4.6439 14.6132 5.26799 14.8411 6.05908 14.8411H6.06194L6.62659 14.834L5.46006 15.3153L6.34568 15.7404C6.66742 15.8963 7.04936 16.0807 7.43767 16.2217L7.32735 16.5222L7.63259 16.6603C7.65985 16.6725 8.24668 16.9338 9.22263 16.9893C9.22263 16.9893 9.45834 17 9.58803 17C9.71775 17 9.95061 16.9886 9.95061 16.9886C10.9201 16.9317 11.5026 16.6731 11.5299 16.6603L11.8358 16.5215L11.724 16.2203C12.1239 16.075 12.5194 15.8835 12.8275 15.734L13.6967 15.3146L12.5337 14.8325L13.1005 14.8397C13.8923 14.8397 14.5171 14.6118 14.9571 14.1618C15.0825 14.0329 15.1907 13.8884 15.2803 13.7296C15.3541 13.7595 15.4314 13.7844 15.5117 13.8029C15.617 13.8278 15.7295 13.8399 15.8477 13.8399C16.1036 13.8399 16.3135 13.7837 16.3192 13.7823L17.01 13.6007L16.709 12.9712C16.7019 12.9549 16.5371 12.5611 16.7284 11.995C16.7771 11.8505 16.8179 11.7052 16.8509 11.5607C16.9806 11.5878 17.116 11.602 17.2558 11.602C18.0733 11.602 18.4653 11.0302 18.5412 10.9063L18.878 10.3239L18.2539 10.069C17.8204 9.89028 17.6241 9.47513 17.5359 9.10561C18.3413 9.03724 18.7741 8.36222 18.9059 7.95208ZM7.75085 2.45655L7.74225 2.45868L7.74937 2.44941L7.75085 2.45655Z" fill="white"/>
<path d="M9.58036 2.42163C8.9197 2.42236 8.42458 2.6374 8.31641 2.89018L9.58036 3.38575L10.8444 2.89018C10.7369 2.6374 10.2417 2.42236 9.58036 2.42163Z" fill="white"/>
<path d="M9.59134 15.5409H9.5899H9.57914H9.56698H9.56627C9.16572 15.5438 8.61468 15.4619 8.34886 15.385L8.0293 16.2444C8.23994 16.3192 8.95363 16.4616 9.57914 16.4616C10.2032 16.4616 10.9177 16.3185 11.1276 16.2444L10.8088 15.385C10.5422 15.4626 9.99186 15.5438 9.59134 15.5409Z" fill="white"/>
<path d="M12.0113 14.6865C11.7733 14.8204 11.2424 15.0212 10.9336 15.1145L11.193 15.8244C11.6709 15.6948 12.065 15.5431 12.391 15.3808L11.8529 15.2028L12.0113 14.6865Z" fill="white"/>
<path d="M7.14928 14.6865L7.30837 15.2028L6.76953 15.3808C7.09484 15.5431 7.49109 15.6948 7.96685 15.8244L8.22626 15.1145C7.91886 15.0212 7.38718 14.8197 7.14928 14.6865Z" fill="white"/>
<path d="M9.57987 1.5999C10.0778 1.5999 10.5665 1.71807 10.942 1.92601C10.9764 1.81135 11.0244 1.6725 11.0896 1.52727L10.9477 1.54433L10.7987 1.56L10.7356 1.42542L10.5458 1.02668L10.1997 1.20614L10.065 1.27449L9.95747 1.16909L9.58128 0.798828L9.20583 1.16909L9.09833 1.27449L8.96363 1.20614L8.61541 1.02668L8.42769 1.42542L8.36316 1.56L8.21412 1.54433L8.07227 1.52727C8.13746 1.67323 8.18478 1.81135 8.21986 1.92601C8.59605 1.71807 9.08331 1.5999 9.57987 1.5999Z" fill="white"/>
<path d="M17.1817 6.20833C17.2461 6.2304 17.3121 6.24034 17.3773 6.24034C17.6589 6.24034 17.9312 6.0595 18.025 5.85231C18.025 5.85231 17.5084 5.82096 16.9531 5.26061C16.7761 5.07903 16.5891 5.0249 16.4286 5.0249C16.1792 5.0249 15.9922 5.15593 15.9922 5.15593C16.6629 5.51054 16.7997 6.08016 17.1817 6.20833Z" fill="white"/>
<path d="M1.77987 6.24034C1.84506 6.24034 1.911 6.2304 1.97404 6.20833C2.35742 6.08016 2.49497 5.51054 3.16565 5.15593C3.16565 5.15593 2.97792 5.0249 2.72998 5.0249C2.5688 5.0249 2.38175 5.07903 2.20404 5.26061C1.64944 5.82096 1.13281 5.85231 1.13281 5.85231C1.22526 6.0595 1.49825 6.24034 1.77987 6.24034Z" fill="white"/>
<path d="M17.3654 8.52329C17.3769 8.52399 17.387 8.52399 17.3991 8.52399C18.1021 8.52399 18.3406 7.77564 18.3406 7.77564H18.327C18.198 7.77564 17.1526 7.74574 16.4139 6.81223C15.9273 6.19847 15.5289 5.65874 14.7415 5.44655L14.6641 5.43301L14.6469 5.3547C14.6254 5.23506 14.7078 5.12329 14.8948 5.00224C15.9811 4.29518 15.2438 3.39373 15.2438 3.39373C15.2438 3.39373 14.9335 4.11503 14.2391 4.11503C14.2227 4.11503 14.2048 4.11433 14.1876 4.11433C14.1087 4.11006 14.0328 4.10721 13.9561 4.09084L13.8279 4.06588C13.8279 4.06588 14.0256 3.53117 13.5484 3.03987C13.1887 2.66887 12.7509 2.6062 12.498 2.6062C12.3704 2.6062 12.2894 2.6226 12.2894 2.6226C12.5295 2.93447 12.7029 3.45142 12.4256 3.7704C12.1863 4.04455 11.6016 4.05805 11.6016 4.46678C11.6016 4.6398 11.7642 4.84202 12.0566 5.02361C12.9358 5.57398 13.8085 6.30386 14.1711 7.28218C14.6247 8.50266 14.1138 9.31223 13.3843 9.77649C13.3843 9.77649 13.6129 9.9858 13.9447 10.0122C14.012 10.0186 14.0779 10.0214 14.1396 10.0214C14.8396 10.0214 15.2015 9.69532 15.2015 9.69532C15.2015 9.69532 15.142 10.146 14.7773 10.5647C14.4412 10.9514 13.9998 11.1785 13.327 11.1884C13.327 11.1884 13.3055 11.4989 13.6036 11.7673C13.7942 11.9368 14.2349 11.9924 14.2349 11.9924C14.2349 11.9924 13.4101 12.1582 13.3191 13.3687C13.2697 14.0245 13.1013 14.2524 13.1013 14.2524H13.1163C15.0302 14.2524 14.9808 12.6211 14.9808 12.6211C14.9808 12.6211 15.1141 13.1039 15.6479 13.2299C15.7124 13.247 15.7812 13.2534 15.8471 13.2534C16.0191 13.2534 16.1681 13.2135 16.1681 13.2135C16.1681 13.2135 15.8886 12.6275 16.1659 11.8079C16.3959 11.1279 16.3587 10.6238 16.3587 10.6238C16.3587 10.6238 16.6167 11.0112 17.2558 11.0147H17.2622C17.7947 11.0147 18.0268 10.6138 18.0268 10.6138C16.7507 10.0877 16.8768 8.38874 16.8768 8.38874C16.8768 8.38874 17.0423 8.51116 17.3654 8.52329ZM16.9814 10.2977C16.4626 10.0435 16.1344 9.36847 16.0549 9.12496C15.9689 10.4636 15.3111 11.3928 14.5423 12.2871C14.1432 12.7507 14.0041 13.2014 14.0041 13.2014C14.0041 13.2014 14.0808 12.6909 14.4262 12.275C15.1434 11.4184 15.8248 10.3525 15.8758 9.11999C15.9108 8.25983 15.688 7.56203 15.3405 6.9874C15.5347 7.58622 15.5075 8.31963 14.8475 9.00391C14.8475 9.00391 16.1609 7.43958 14.3245 5.83603C13.5893 5.22579 12.7853 4.84914 12.3712 4.58212C13.8673 5.06705 14.5974 4.533 14.5974 4.533C14.1195 4.94459 13.5011 4.93743 13.1178 4.87834C13.2217 4.9289 13.3299 4.98158 13.4467 5.04353C14.7078 5.72422 15.8414 6.84428 16.0348 8.39582V8.38373C16.3286 9.90678 16.9814 10.2977 16.9814 10.2977Z" fill="white"/>
<path d="M4.92416 11.9924C4.92416 11.9924 5.36483 11.9375 5.55545 11.7673C5.85279 11.4989 5.83203 11.1884 5.83203 11.1884C5.15846 11.1792 4.71781 10.9513 4.37957 10.5654C4.01773 10.1468 3.95754 9.69603 3.95754 9.69603C3.95754 9.69603 4.31938 10.0221 5.01872 10.0221C5.0818 10.0221 5.147 10.0193 5.21438 10.0129C5.5461 9.98654 5.7754 9.77716 5.7754 9.77716C5.04598 9.31293 4.53436 8.50266 4.9872 7.28218C5.35052 6.30456 6.22253 5.57398 7.10173 5.02361C7.39407 4.84202 7.55673 4.64051 7.55673 4.46678C7.55673 4.05805 6.97275 4.04455 6.73344 3.7704C6.45612 3.45142 6.63024 2.93374 6.86955 2.6226C6.86955 2.6226 6.79004 2.6062 6.66176 2.6062C6.40958 2.6062 5.97173 2.66887 5.61204 3.03987C5.13339 3.53117 5.33186 4.06588 5.33186 4.06588L5.20359 4.09084C5.12693 4.10721 5.05028 4.11006 4.97218 4.11433C4.95427 4.11433 4.93847 4.11503 4.92126 4.11503C4.22552 4.11503 3.91671 3.39446 3.91671 3.39446C3.91671 3.39446 3.17936 4.29592 4.26497 5.00295C4.45196 5.12399 4.53362 5.2358 4.51214 5.3554L4.49494 5.43375L4.41613 5.44725C3.63008 5.65945 3.23098 6.19921 2.74446 6.81297C2.00711 7.74503 0.963101 7.77564 0.832711 7.77564H0.818359C0.818359 7.77564 1.05696 8.52399 1.7599 8.52399C1.77136 8.52399 1.78138 8.52399 1.79358 8.52329C2.11677 8.5119 2.28302 8.38874 2.28302 8.38874C2.28302 8.38874 2.40766 10.0869 1.13295 10.6138C1.13295 10.6138 1.3651 11.0147 1.89749 11.0147H1.9039C2.5438 11.0112 2.80106 10.6238 2.80106 10.6238C2.80106 10.6238 2.76379 11.1279 2.99305 11.8079C3.27036 12.6275 2.99237 13.2135 2.99237 13.2135C2.99237 13.2135 3.14142 13.2534 3.31264 13.2534C3.37928 13.2534 3.44737 13.247 3.51115 13.2299C4.04425 13.1039 4.17823 12.6211 4.17823 12.6211C4.17823 12.6211 4.1295 14.2524 6.04341 14.2524H6.05702C6.05702 14.2524 5.88936 14.0245 5.84063 13.3687C5.74888 12.1582 4.92416 11.9924 4.92416 11.9924ZM4.61676 12.2871C3.84792 11.3928 3.19085 10.4636 3.10415 9.12496C3.0246 9.3678 2.69785 10.0435 2.17911 10.2977C2.17911 10.2977 2.83113 9.90678 3.12421 8.38373V8.39582C3.31839 6.84499 4.45125 5.72422 5.71309 5.04353C5.82843 4.98091 5.93805 4.92816 6.04126 4.87834C5.65788 4.93743 5.03953 4.94459 4.56161 4.533C4.56161 4.533 5.29177 5.06705 6.78714 4.58212C6.37298 4.84914 5.56976 5.22579 4.8346 5.83603C2.99738 7.43958 4.31152 9.00391 4.31152 9.00391C3.65085 8.31896 3.62434 7.58622 3.81855 6.9874C3.47029 7.56274 3.24815 8.25983 3.28397 9.11999C3.33415 10.3525 4.01558 11.4184 4.73143 12.275C5.0775 12.6902 5.1556 13.2014 5.1556 13.2014C5.1556 13.2014 5.01513 12.7507 4.61676 12.2871Z" fill="white"/>
<path d="M8.16443 6.02829C8.19596 6.06178 8.22674 6.0981 8.25615 6.13438C8.26334 6.14295 8.26976 6.15078 8.27691 6.16076C8.30413 6.19708 8.33213 6.23551 8.35861 6.27468C8.36432 6.28251 8.37007 6.29178 8.37652 6.30102C8.40879 6.34943 8.43886 6.39929 8.46897 6.45056C8.74485 6.9241 9.18693 7.20674 9.57888 7.20748C9.97157 7.20674 10.4122 6.9241 10.6895 6.45056C10.7203 6.39788 10.7511 6.34661 10.7834 6.29887C10.7884 6.29178 10.7934 6.28537 10.7977 6.27824C10.8249 6.23766 10.8536 6.19782 10.8837 6.15931C10.8902 6.15078 10.8959 6.14366 10.9016 6.13657C10.9324 6.09881 10.964 6.06178 10.9962 6.02762C11.0019 6.02191 11.0062 6.01693 11.0112 6.01267C11.1517 5.86955 11.3194 5.7606 11.5386 5.70005L11.4412 5.64381H11.4354L11.0471 5.41953L10.648 5.19238L9.58174 5.76916L9.57888 5.76698L9.57673 5.76916L8.5098 5.19238L8.1114 5.41882L7.72231 5.64311H7.71804L7.61914 5.69935C7.83909 5.75989 8.00608 5.8674 8.14723 6.01052C8.15368 6.01623 8.15798 6.02265 8.16443 6.02829ZM9.14755 5.98203H9.59894H10.0496V6.28967C9.94357 6.16076 9.73723 6.1871 9.73723 6.1871V6.6307C9.73723 6.6307 9.74513 6.84861 9.82179 6.94332H9.59894H9.3754C9.45346 6.84928 9.46066 6.6307 9.46066 6.6307V6.1871C9.46066 6.1871 9.25502 6.16076 9.14755 6.28967V5.98203Z" fill="white"/>
<path d="M9.48765 5.3851V3.58435L8.33398 3.19556L8.63856 4.94076L9.48765 5.3851ZM9.2397 4.0265V4.3156L9.18382 4.28997C9.18093 4.28781 9.09926 4.26934 8.95597 4.15682C8.71948 3.97453 8.71521 3.80648 8.71521 3.80648L9.2397 4.0265Z" fill="white"/>
<path d="M10.5217 4.94076L10.8248 3.19556L9.67188 3.58435V5.3851L10.5217 4.94076ZM9.91979 4.0265L10.4443 3.80722C10.4443 3.80722 10.44 3.97524 10.2028 4.15753C10.0602 4.27001 9.97782 4.28856 9.97497 4.29067L9.91908 4.3163V4.0265H9.91979Z" fill="white"/>
<path d="M7.85599 9.55983C7.96846 9.60045 8.10464 9.60898 8.17414 9.60898C8.17699 9.60045 8.18059 9.58976 8.18418 9.57693C8.19064 9.5563 8.19635 9.53635 8.20065 9.51357C8.21997 9.41389 8.22717 9.30067 8.22858 9.22803C8.18129 9.19884 8.11465 9.14686 8.07738 9.06926C8.0344 8.97952 7.97351 8.93823 7.88391 8.93823C7.76787 8.93823 7.64319 9.00731 7.59016 9.04003C7.54789 9.28857 7.73201 9.51427 7.85599 9.55983Z" fill="white"/>
<path d="M10.4075 8.60425C10.1932 8.83566 9.77407 9.23868 9.75327 9.25934L9.7282 9.28494L8.40335 9.26431C8.40261 9.39463 8.3811 9.5057 8.36033 9.58687C8.35677 9.60041 8.35317 9.61465 8.34961 9.6289L9.92597 9.91017C10.0901 9.79624 10.5415 9.46868 10.7163 9.34054C10.5888 9.15539 10.5766 8.93608 10.6053 8.78153C10.5221 8.72815 10.4584 8.66835 10.4075 8.60425Z" fill="white"/>
<path d="M10.5865 7.02071C10.2813 7.32186 9.98823 7.43296 9.7267 7.4586C9.67939 7.46357 9.6314 7.46642 9.58267 7.46642H9.57907H9.57618C9.52745 7.46642 9.47876 7.46357 9.43147 7.4586C9.3856 7.45433 9.33761 7.44721 9.28959 7.43652C9.27238 7.50419 9.25087 7.64586 9.31254 7.77974C9.36772 7.9015 9.4802 7.99194 9.6443 8.05174L9.69945 8.07307L9.70019 8.1322C9.70019 8.15001 9.71306 8.53307 10.1337 8.63917C10.2025 8.56868 10.2648 8.50529 10.3107 8.45261C10.2247 8.2518 10.2698 8.04677 10.3945 7.94635C10.3887 7.96771 10.3343 8.47041 10.7399 8.65694L10.8065 8.68828L10.7864 8.7588C10.78 8.78014 10.6446 9.26647 11.1354 9.44732L11.2221 9.48011L11.1834 9.5641C11.1748 9.58261 10.9821 10.0241 11.4356 10.2747H12.4194V9.49859C12.0698 9.45586 11.9215 9.17677 11.8835 8.97883C11.7208 8.95104 11.5947 8.88126 11.5087 8.76734C11.3024 8.49749 11.4801 8.25039 11.4822 8.23685C11.4815 8.239 11.4822 8.50246 11.6456 8.6648C11.7265 8.74311 11.8226 8.80365 11.968 8.81719L12.0397 8.82361L12.0461 8.89621C12.0476 8.91187 12.087 9.26792 12.4202 9.32416L12.4194 7.73912C12.4194 7.4935 12.4918 7.24644 12.5785 7.01855H10.5865V7.02071Z" fill="white"/>
<path d="M7.93859 7.74705L7.91211 8.75672L8.02744 8.77382L8.30977 7.80544L8.16644 7.50781L7.93859 7.74705Z" fill="white"/>
<path d="M11.0528 12.3774C11.0614 12.3774 11.0715 12.3789 11.0808 12.381C11.2563 12.4309 11.3008 13.0603 11.6089 13.1166C11.639 13.123 11.6669 13.1244 11.6913 13.1244C11.7801 13.1244 11.8331 13.0867 11.8905 13.0197C11.8905 13.0197 11.7357 12.7776 11.6196 12.6146C11.4656 12.401 11.3459 12.1425 11.0593 12.1425C11.0528 12.1425 11.0442 12.1425 11.0371 12.1432C10.9425 12.1482 10.8845 12.1937 10.8845 12.1937C10.7684 12.1211 10.6602 12.0962 10.562 12.0962C10.3822 12.0962 10.2424 12.1781 10.1729 12.1781H10.17L9.52948 12.1155C9.42916 12.1062 9.35036 12.0058 9.32169 11.9666C9.3145 11.9559 9.3109 11.9495 9.3109 11.9495C9.3109 11.9324 9.3109 11.9146 9.30949 11.899C9.28798 11.3785 8.88246 11.1556 8.73839 11.1521C8.73839 11.1521 8.75559 11.053 8.71621 11.0153L8.57503 11.1855L8.11143 10.9541L8.44174 11.3379L8.16157 11.6505C8.12649 11.6861 8.13079 11.7345 8.1451 11.7544L8.26622 11.8605L8.41953 11.7679C8.42743 11.7622 8.44104 11.7608 8.45821 11.7608C8.50052 11.7608 8.56427 11.7715 8.6216 11.7715C8.68394 11.7715 8.73839 11.758 8.74487 11.6996C8.72552 11.8926 8.54566 12.2279 8.66388 12.4914L8.75133 12.69L8.18523 12.6089L7.92011 13.0539C7.83845 13.202 7.82551 13.3622 7.90435 13.4491L8.00325 13.5723C8.00325 13.5723 8.14225 13.4256 8.17377 13.3295L8.12864 13.2803C8.09063 13.239 8.09281 13.202 8.11577 13.1571L8.28195 12.883L8.95051 13.0397L8.98559 12.9798C9.03076 12.9051 9.09596 12.8823 9.16764 12.8823C9.19698 12.8823 9.22709 12.8859 9.25861 12.8909C9.38258 12.915 9.58681 12.9478 9.791 12.9478C10.0153 12.9478 10.2374 12.908 10.3556 12.7762C10.5978 13.1329 11.0887 13.1899 11.05 13.3707L10.921 13.9817C11.0063 13.9781 11.0887 13.9724 11.1668 13.9618L11.2893 13.3259C11.3029 13.2568 11.3158 13.1636 11.3158 13.1636C11.2685 13.1158 11.1539 13.0147 11.0894 12.8923C11.0027 12.7271 11.05 12.6409 10.969 12.4259C10.9719 12.4273 10.9962 12.3774 11.0528 12.3774ZM8.55207 11.4846C8.51914 11.4839 8.49548 11.4561 8.49693 11.4233C8.49982 11.392 8.5263 11.3671 8.55856 11.3699C8.59153 11.3713 8.61515 11.3998 8.61374 11.4311C8.61085 11.4625 8.58363 11.4867 8.55207 11.4846Z" fill="white"/>
<path d="M7.63884 12.9555C7.63884 12.9555 7.86027 12.8651 7.88034 12.8003L7.85096 12.7269C7.83016 12.6792 7.83305 12.6273 7.87318 12.5988L8.11249 12.4343L8.51233 12.5105C8.51233 12.5105 8.43994 12.4208 8.44714 12.3004L8.06594 12.22L7.70622 12.4378C7.55217 12.5525 7.54071 12.7397 7.59156 12.8509L7.63884 12.9555Z" fill="white"/>
<path d="M10.4648 13.9909C10.5365 13.9881 10.6153 13.9866 10.702 13.9866C10.702 13.9866 10.9077 13.3893 10.9191 13.37C10.8038 13.3195 10.5645 13.1935 10.472 13.1357C10.5329 13.2262 10.6812 13.3301 10.6519 13.4099L10.4648 13.9909Z" fill="white"/>
<path d="M12.4226 10.4478H6.73828V12.5725C6.73828 13.4412 7.37098 13.9852 8.30463 13.9852C9.08496 13.9852 9.2906 14.015 9.58082 14.3013C9.78071 14.1034 9.94626 14.0293 10.2859 14.0015L10.2938 13.9688L10.4729 13.4184C10.4629 13.4063 10.1698 13.0751 10.1698 13.0751C10.0537 13.1136 9.95627 13.12 9.79221 13.12C9.62381 13.12 9.4339 13.1008 9.22826 13.0623C9.20749 13.0574 9.18817 13.0559 9.16878 13.0559C9.14371 13.0559 9.14156 13.0581 9.1351 13.0702L9.09928 13.1286L9.03408 13.2354L8.91156 13.2076L8.36626 13.0802L8.29176 13.2026L8.30322 13.2154L8.36982 13.2881L8.34049 13.3828C8.30036 13.5066 8.16994 13.6512 8.13052 13.6911L7.99438 13.8363L7.87044 13.6804L7.77725 13.5643C7.67912 13.4554 7.65617 13.2881 7.71135 13.1129C7.7099 13.1143 7.70779 13.1151 7.7056 13.1151L7.55155 13.1784L7.48205 13.0289L7.43332 12.9228C7.34948 12.7362 7.38029 12.4635 7.60599 12.299L8.04526 12.0527L8.46302 12.1345C8.47303 12.0947 8.48809 11.9523 8.50025 11.916C8.49235 11.9152 8.48449 11.9131 8.47663 11.9131L8.23584 12.0021L8.00369 11.8426C8.00369 11.8426 7.91272 11.7558 7.99508 11.6689L8.22008 11.3307L7.65045 10.62L8.52606 10.9775L8.58406 10.9056L8.70232 10.7653L8.83631 10.892C8.87432 10.9283 8.8958 10.9732 8.90651 11.0181C9.14801 11.1113 9.58008 11.3869 9.61806 11.8348L9.48262 11.8889V11.8925C9.51344 11.9288 9.53922 11.9437 9.54715 11.9451L10.172 12.0064C10.1877 12.0036 10.2078 11.9964 10.23 11.99C10.3074 11.9637 10.4242 11.9259 10.5625 11.9259C10.675 11.9259 10.7839 11.9516 10.8885 12C10.9272 11.9858 10.9745 11.9751 11.0289 11.9715L11.059 11.9708C11.3936 11.9708 11.5599 12.2193 11.6932 12.4172C11.7154 12.4514 11.7376 12.4842 11.7606 12.5162C11.8773 12.68 12.0299 12.9199 12.0364 12.9299L12.1052 13.0367L12.0206 13.1343C11.9554 13.209 11.858 13.2966 11.6903 13.2966C11.6559 13.2966 11.6179 13.293 11.5771 13.2852C11.5412 13.2788 11.509 13.2681 11.4775 13.2553C11.4724 13.2881 11.466 13.3272 11.4596 13.3607L11.3499 13.9289C12.0056 13.7687 12.4219 13.2767 12.4219 12.5732L12.4226 10.4478Z" fill="#FFDD2D"/>
<path d="M6.73773 10.2769H11.1581C10.9373 10.0505 10.9402 9.76353 10.9968 9.57697C10.9323 9.54636 10.8793 9.5093 10.832 9.46942C10.6593 9.59618 10.1319 9.97783 9.99439 10.0732L9.96502 10.0932L8.23024 9.7813H8.19512C8.15358 9.7813 8.09265 9.77989 8.02605 9.77206C8.0074 9.84966 7.94005 9.90308 7.86265 9.90308C7.85405 9.90308 7.84404 9.90238 7.83473 9.90023C7.7896 9.89236 7.75014 9.86962 7.72366 9.83186C7.6964 9.79484 7.68569 9.75069 7.69355 9.70513L7.7 9.66811C7.52088 9.54276 7.35608 9.26294 7.42917 8.96817L7.43633 8.93682L7.4614 8.91902C7.46496 8.91616 7.49507 8.89627 7.5395 8.8706L7.41341 8.85139C7.36609 8.84285 7.33457 8.79938 7.34176 8.75312C7.34962 8.70612 7.39405 8.67266 7.44063 8.68193L7.74087 8.72893L7.76809 7.67794L8.21518 7.20796L8.49395 7.79116L8.19946 8.80224L8.46458 8.84353C8.51115 8.85068 8.54338 8.89409 8.53622 8.94179C8.52903 8.98382 8.49324 9.01298 8.45096 9.01298C8.44663 9.01298 8.44162 9.01298 8.43735 9.01231L8.22163 8.97741C8.22453 8.98382 8.22883 8.98739 8.23168 8.99451C8.25464 9.04147 8.30548 9.07568 8.33559 9.08992L9.6583 9.11055C9.71422 9.05646 9.85321 8.92113 9.9958 8.77805C9.6705 8.65555 9.55231 8.37644 9.53221 8.19132C9.3502 8.11439 9.22481 7.99909 9.15532 7.84885C9.07073 7.66299 9.10087 7.47717 9.12305 7.38669C8.94679 7.32263 8.76122 7.20585 8.57205 7.01929H6.58008C6.66534 7.24714 6.73773 7.4942 6.73773 7.73989V10.2769Z" fill="#FFDD2D"/>
<path d="M8.55786 11.3699C8.5256 11.367 8.49834 11.3919 8.49623 11.4233C8.49408 11.456 8.5184 11.4838 8.55141 11.4845C8.58293 11.4873 8.61086 11.4631 8.61371 11.4311C8.61371 11.3998 8.59079 11.3706 8.55786 11.3699Z" fill="black"/>
<path d="M12.4142 15.2226L12.0867 15.098L12.177 14.7619L12.2766 14.3953C12.2766 14.3953 11.6962 14.7078 10.8786 14.9428C10.6465 15.009 10.4709 15.0389 10.4709 15.0389V15.2881C10.4709 15.2881 10.0338 15.3636 9.59173 15.3636H9.58668H9.58027H9.57166H9.56662C9.1245 15.3636 8.68745 15.2881 8.68745 15.2881V15.0389C8.68745 15.0389 8.51115 15.009 8.27974 14.9428C7.46214 14.7078 6.88247 14.3953 6.88247 14.3953L6.98063 14.7619L7.07308 15.098L6.74488 15.2226L6.38086 15.3579C6.79862 15.558 7.37688 15.8499 7.90641 15.9938L7.78173 16.3327C7.78173 16.3327 8.45312 16.6367 9.57166 16.6396V16.6403H9.57522H9.58027H9.58453H9.58742V16.6396C10.7073 16.6367 11.378 16.3327 11.378 16.3327L11.2526 15.9938C11.7822 15.8499 12.3618 15.558 12.7775 15.3579L12.4142 15.2226ZM6.76925 15.3807L7.30809 15.2027L7.14903 14.6865C7.38619 14.8203 7.91858 15.0211 8.22668 15.1144L7.96657 15.8243C7.4908 15.694 7.09455 15.5423 6.76925 15.3807ZM9.58027 16.4616C8.95472 16.4616 8.24029 16.3184 8.03035 16.2444L8.34994 15.385C8.61506 15.4619 9.16681 15.5438 9.56733 15.5409H9.56807H9.58027H9.59099H9.59243C9.99298 15.5438 10.5433 15.4619 10.8098 15.385L11.1287 16.2444C10.9187 16.3192 10.205 16.4616 9.58027 16.4616ZM11.1925 15.8243L10.9331 15.1144C11.2419 15.0211 11.7729 14.8203 12.0107 14.6865L11.8524 15.2027L12.3905 15.3807C12.0645 15.5423 11.6704 15.694 11.1925 15.8243Z" fill="black"/>
<path d="M9.57992 1.80793C10.2463 1.80793 10.7795 2.02722 11.0739 2.26147C11.0739 2.26147 11.1614 1.73815 11.4602 1.27604L10.9235 1.33656L10.6426 0.743425L10.103 1.01967L9.57992 0.505615L9.05829 1.01967L8.51804 0.743425L8.23786 1.33656L7.70117 1.27604C7.99996 1.73815 8.08741 2.26147 8.08741 2.26147C8.3826 2.02722 8.91429 1.80793 9.57992 1.80793ZM8.2135 1.54446L8.36254 1.56013L8.42703 1.42555L8.61479 1.02681L8.96302 1.20554L9.09771 1.27388L9.20522 1.16852L9.58066 0.798265L9.95685 1.16852L10.0643 1.27388L10.199 1.20554L10.5451 1.02681L10.735 1.42555L10.7981 1.56013L10.9471 1.54446L11.089 1.52736C11.0238 1.67336 10.9758 1.81148 10.9414 1.9261C10.5659 1.7182 10.0772 1.59999 9.57925 1.59999C9.08336 1.59999 8.5954 1.7182 8.21854 1.9261C8.18342 1.81148 8.13614 1.67262 8.07091 1.52736L8.2135 1.54446Z" fill="black"/>
<path d="M17.3979 8.75238C18.2599 8.75238 18.548 7.88082 18.5602 7.8438L18.6562 7.53693L18.333 7.54688H18.3316C18.2176 7.54688 17.2668 7.52195 16.5925 6.67035L16.5287 6.5913C16.0881 6.03451 15.6703 5.50547 14.9237 5.26409C14.9452 5.24483 14.976 5.22065 15.0183 5.1936C15.4145 4.93441 15.6453 4.61968 15.7033 4.25442C15.7878 3.70468 15.4353 3.26681 15.4195 3.24898L15.1795 2.95421L15.0298 3.30382C15.0197 3.3259 14.7675 3.88557 14.2373 3.88557H14.1978C14.1613 3.88342 14.1269 3.88197 14.0925 3.87915C14.1111 3.62923 14.0653 3.24258 13.7128 2.88015C13.2893 2.44367 12.7691 2.37817 12.4968 2.37817C12.3513 2.37817 12.2546 2.39597 12.2446 2.39739L11.882 2.4686L12.1055 2.76125C12.2811 2.98697 12.4402 3.40351 12.2517 3.6214C12.1915 3.69044 12.0676 3.74671 11.9486 3.80295C11.7043 3.91476 11.3711 4.06998 11.3711 4.46591C11.3711 4.72221 11.571 4.98994 11.9336 5.21779C13.0069 5.88854 13.669 6.58844 13.9549 7.36106C14.3971 8.54946 13.8202 9.22729 13.2599 9.58405L13.0084 9.74497L13.2284 9.94574C13.2577 9.97138 13.5272 10.2071 13.9248 10.2412C14.0001 10.2462 14.0725 10.2505 14.1398 10.2505C14.3949 10.2505 14.612 10.2106 14.7883 10.1572C14.7396 10.242 14.6801 10.3281 14.6048 10.415C14.2845 10.7838 13.8905 10.9518 13.3236 10.9604L13.113 10.964L13.0965 11.174C13.0944 11.216 13.0786 11.6055 13.4498 11.9366C13.5064 11.9879 13.5752 12.0299 13.6468 12.0648C13.3953 12.2898 13.1395 12.6814 13.0901 13.3529C13.0485 13.9132 12.9138 14.1204 12.9124 14.1226L12.6795 14.4758L13.1001 14.4815C13.7951 14.4815 14.3275 14.2906 14.6966 13.9132C14.9144 13.6897 15.0391 13.4376 15.1129 13.214C15.2339 13.3165 15.3902 13.4063 15.5937 13.454C15.6711 13.4718 15.7556 13.4818 15.8466 13.4818C16.043 13.4818 16.207 13.4405 16.2257 13.4362L16.4944 13.365L16.3754 13.1157C16.3668 13.0958 16.1426 12.596 16.384 11.8825C16.4879 11.5742 16.5409 11.2979 16.5667 11.0829C16.7358 11.1705 16.9622 11.2431 17.2553 11.2438C17.9203 11.2438 18.2134 10.7503 18.2269 10.7297L18.3581 10.5033L18.1152 10.4036C17.3227 10.0768 17.1471 9.1988 17.112 8.72318C17.1837 8.73669 17.2653 8.74952 17.3578 8.75238H17.3979ZM18.0263 10.6137C18.0263 10.6137 17.7942 11.0145 17.2618 11.0145H17.2553C16.6162 11.011 16.3582 10.6236 16.3582 10.6236C16.3582 10.6236 16.3955 11.1278 16.1647 11.8077C15.8875 12.6273 16.1669 13.2133 16.1669 13.2133C16.1669 13.2133 16.0179 13.2532 15.8459 13.2532C15.78 13.2532 15.7112 13.2468 15.6467 13.2297C15.1129 13.1037 14.9796 12.6209 14.9796 12.6209C14.9796 12.6209 15.029 14.2522 13.1152 14.2522H13.1001C13.1001 14.2522 13.2685 14.0244 13.3186 13.3685C13.4096 12.1581 14.2344 11.9922 14.2344 11.9922C14.2344 11.9922 13.7944 11.9373 13.6038 11.7672C13.3058 11.4987 13.3265 11.1883 13.3265 11.1883C14.0001 11.179 14.4408 10.9511 14.7768 10.5645C15.1408 10.1458 15.201 9.69512 15.201 9.69512C15.201 9.69512 14.8391 10.0212 14.1391 10.0212C14.0775 10.0212 14.0115 10.0184 13.9442 10.012C13.6132 9.98562 13.3839 9.77629 13.3839 9.77629C14.1126 9.31202 14.6242 8.50175 14.1706 7.28126C13.8073 6.30365 12.9346 5.57307 12.0561 5.02266C11.7637 4.84114 11.6011 4.6396 11.6011 4.46591C11.6011 4.05714 12.1858 4.04434 12.4258 3.76949C12.7024 3.45051 12.529 2.93283 12.289 2.62169C12.289 2.62169 12.37 2.60529 12.4975 2.60529C12.7504 2.60529 13.1882 2.66866 13.548 3.03896C14.0259 3.53025 13.8274 4.065 13.8274 4.065L13.9557 4.08993C14.0323 4.10629 14.1083 4.10915 14.1871 4.11268C14.2043 4.11268 14.2215 4.11342 14.2387 4.11342C14.933 4.11342 15.2433 3.39212 15.2433 3.39212C15.2433 3.39212 15.9813 4.29426 14.895 5.00062C14.708 5.12167 14.6256 5.23348 14.6471 5.35308L14.6643 5.43139L14.7417 5.44493C15.5292 5.65713 15.9276 6.19685 16.4141 6.81065C17.1529 7.74412 18.1983 7.77402 18.3273 7.77402H18.3409C18.3409 7.77402 18.1023 8.52238 17.3994 8.52238C17.3879 8.52238 17.3779 8.52238 17.3657 8.52167C17.0425 8.51028 16.877 8.38708 16.877 8.38708C16.877 8.38708 16.7502 10.0867 18.0263 10.6137Z" fill="black"/>
<path d="M15.8838 5.35795C16.2055 5.52808 16.3925 5.75596 16.5567 5.95818C16.7179 6.15542 16.8712 6.34555 17.1105 6.42457C17.1958 6.45376 17.2861 6.4673 17.3779 6.4673C17.7376 6.4673 18.0987 6.24869 18.2356 5.94605L18.3732 5.64274L18.04 5.62279C18.0242 5.62212 17.5957 5.58361 17.1184 5.09875C16.9221 4.90006 16.6849 4.79541 16.4291 4.79541C16.1167 4.79541 15.8852 4.95062 15.8594 4.96628L15.5527 5.18063L15.8838 5.35795ZM16.4298 5.02467C16.5903 5.02467 16.7774 5.0788 16.9543 5.26038C17.5097 5.82074 18.0263 5.85208 18.0263 5.85208C17.9324 6.0586 17.6602 6.24012 17.3785 6.24012C17.3133 6.24012 17.2481 6.23018 17.1829 6.2081C16.801 6.07993 16.6641 5.51031 15.9927 5.1557C15.9927 5.1557 16.1804 5.02467 16.4298 5.02467Z" fill="black"/>
<path d="M16.0348 8.38366V8.39501C15.8413 6.84421 14.7077 5.72419 13.4466 5.04272C13.3298 4.9808 13.2223 4.92812 13.1178 4.87756C13.5018 4.93666 14.1202 4.94378 14.5974 4.53223C14.5974 4.53223 13.8672 5.06624 12.3711 4.58134C12.7853 4.84837 13.5899 5.22505 14.3244 5.83525C16.1609 7.43877 14.8467 9.00314 14.8467 9.00314C15.5067 8.31885 15.5339 7.58545 15.3397 6.98663C15.6872 7.56122 15.9094 8.25905 15.875 9.11918C15.8241 10.3517 15.1427 11.4177 14.4254 12.2743C14.0808 12.69 14.0034 13.2006 14.0034 13.2006C14.0034 13.2006 14.1424 12.7499 14.5415 12.2864C15.3104 11.392 15.9674 10.4628 16.0534 9.12415C16.1329 9.36698 16.4604 10.0427 16.9799 10.2969C16.9813 10.2976 16.3286 9.90671 16.0348 8.38366Z" fill="black"/>
<path d="M6.24594 14.1219C6.2452 14.1198 6.11195 13.9125 6.06897 13.3522C6.01876 12.6807 5.76369 12.2891 5.51148 12.0641C5.58457 12.0299 5.65192 11.9879 5.70851 11.9359C6.07899 11.6048 6.06323 11.2153 6.06107 11.1733L6.04676 10.9632L5.83464 10.9597C5.26928 10.9504 4.87448 10.7824 4.55418 10.4143C4.47967 10.3274 4.41945 10.2412 4.37072 10.1565C4.54702 10.2099 4.7627 10.2498 5.01848 10.2498C5.08727 10.2498 5.15821 10.2455 5.23346 10.2405C5.63112 10.2063 5.90057 9.9714 5.93065 9.94502L6.15063 9.74426L5.89913 9.58329C5.33666 9.22586 4.76196 8.54803 5.20334 7.3603C5.48927 6.58776 6.15063 5.88782 7.22542 5.21707C7.588 4.98922 7.78651 4.72149 7.78651 4.46515C7.78651 4.06929 7.45401 3.91334 7.2097 3.80227C7.09077 3.74599 6.96679 3.68975 6.90657 3.62068C6.71744 3.40351 6.8772 2.98624 7.05205 2.76051L7.27704 2.46786L6.91306 2.39666C6.9023 2.39527 6.807 2.37744 6.66081 2.37744C6.38853 2.37744 5.86975 2.44297 5.44554 2.87945C5.09231 3.24258 5.04573 3.62925 5.06364 3.87843C5.02923 3.88128 4.99489 3.88273 4.95903 3.88485H4.92035C4.38867 3.88485 4.13716 3.32517 4.12714 3.30309L3.97736 2.95348L3.73516 3.24829C3.72155 3.26608 3.36758 3.7047 3.45358 4.25366C3.51091 4.61896 3.74161 4.93368 4.13786 5.19288C4.18088 5.21992 4.21096 5.24411 4.23246 5.26336C3.48651 5.50472 3.06952 6.0345 2.62881 6.59132L2.56506 6.67037C1.89153 7.52193 0.938526 7.54686 0.824602 7.54686L0.5 7.53692L0.598868 7.84382C0.610328 7.88081 0.89766 8.75236 1.7604 8.75236L1.80193 8.75095C1.89294 8.74809 1.97464 8.736 2.04773 8.72175C2.01187 9.19667 1.83635 10.0746 1.04311 10.4022L0.800942 10.5018L0.932074 10.7283C0.944979 10.7489 1.23876 11.2424 1.90514 11.2424C2.19603 11.2416 2.42244 11.169 2.59228 11.0814C2.61809 11.2965 2.67109 11.5728 2.775 11.8811C3.01646 12.5946 2.7915 13.0944 2.7829 13.1143L2.66397 13.3636L2.93335 13.4348C2.95126 13.439 3.11681 13.4804 3.31239 13.4804C3.4041 13.4804 3.48869 13.4703 3.56464 13.4526C3.76883 13.4049 3.92648 13.3151 4.04615 13.2126C4.11925 13.4362 4.24466 13.6882 4.46172 13.9118C4.83149 14.2892 5.36314 14.48 6.05822 14.48L6.47954 14.4743L6.24594 14.1219ZM6.04242 14.2522C4.12855 14.2522 4.17728 12.6209 4.17728 12.6209C4.17728 12.6209 4.044 13.1036 3.51017 13.2297C3.44638 13.2468 3.37833 13.2532 3.31172 13.2532C3.13973 13.2532 2.99139 13.2133 2.99139 13.2133C2.99139 13.2133 3.26945 12.6273 2.99213 11.8077C2.76284 11.1277 2.80007 10.6236 2.80007 10.6236C2.80007 10.6236 2.54285 11.011 1.90299 11.0145H1.89654C1.36415 11.0145 1.13196 10.6136 1.13196 10.6136C2.40742 10.0874 2.28203 8.38851 2.28203 8.38851C2.28203 8.38851 2.11652 8.51097 1.79263 8.52306C1.78117 8.52377 1.77041 8.52377 1.75895 8.52377C1.05531 8.52377 0.817409 7.77542 0.817409 7.77542H0.831724C0.961445 7.77542 2.00545 7.74555 2.74422 6.81205C3.23073 6.19828 3.62984 5.65926 4.41592 5.44633L4.49473 5.43282L4.5119 5.35451C4.53341 5.23491 4.45171 5.1231 4.26473 5.00202C3.17841 4.29495 3.91647 3.39355 3.91647 3.39355C3.91647 3.39355 4.22527 4.1141 4.92105 4.1141C4.93823 4.1141 4.95402 4.11343 4.97193 4.11343C5.05003 4.10913 5.12743 4.10628 5.20334 4.08992L5.33162 4.06499C5.33162 4.06499 5.13314 3.53024 5.61179 3.03892C5.97151 2.66796 6.40934 2.60529 6.66151 2.60529C6.78979 2.60529 6.86934 2.62169 6.86934 2.62169C6.62999 2.93356 6.45662 3.45051 6.7332 3.76948C6.97251 4.04366 7.55648 4.05716 7.55648 4.46586C7.55648 4.63891 7.39383 4.84113 7.10149 5.02268C6.22228 5.57309 5.34953 6.30363 4.98695 7.28128C4.53411 8.50173 5.04503 9.3113 5.77519 9.77627C5.77519 9.77627 5.54586 9.98564 5.21413 10.0119C5.14675 10.0184 5.08156 10.0212 5.01848 10.0212C4.31913 10.0212 3.9573 9.6951 3.9573 9.6951C3.9573 9.6951 4.01748 10.1458 4.37932 10.5645C4.71757 10.9512 5.15821 11.179 5.83178 11.1883C5.83178 11.1883 5.85329 11.4987 5.5552 11.7671C5.36388 11.9366 4.92391 11.9921 4.92391 11.9921C4.92391 11.9921 5.74938 12.1581 5.83964 13.3685C5.88911 14.0243 6.05603 14.2522 6.05603 14.2522H6.04242Z" fill="black"/>
<path d="M1.78094 6.46826C1.87336 6.46826 1.96366 6.45475 2.04895 6.42556C2.28967 6.34651 2.44231 6.15639 2.60352 5.95918C2.76832 5.75696 2.9539 5.52911 3.27564 5.35891L3.60666 5.18233L3.2993 4.96799C3.27349 4.95163 3.04275 4.79712 2.73105 4.79712C2.47454 4.79712 2.23668 4.9011 2.04102 5.10046C1.56385 5.58465 1.13608 5.62382 1.12028 5.62453L0.787109 5.64374L0.923953 5.94775C1.06154 6.24898 1.42193 6.46826 1.78094 6.46826ZM2.20515 5.26139C2.38286 5.0798 2.56985 5.02571 2.73105 5.02571C2.97897 5.02571 3.16676 5.1567 3.16676 5.1567C2.49605 5.51201 2.35846 6.08093 1.97512 6.2091C1.91207 6.23117 1.84614 6.24115 1.78094 6.24115C1.49932 6.24115 1.22705 6.0603 1.13389 5.85308C1.13389 5.85238 1.64981 5.82103 2.20515 5.26139Z" fill="black"/>
<path d="M3.28533 9.1197C3.24947 8.25954 3.47161 7.56175 3.81983 6.98715C3.62566 7.58593 3.65217 8.31937 4.31284 9.00363C4.31284 9.00363 2.9987 7.43925 4.83592 5.83578C5.57108 5.22554 6.37504 4.84885 6.78846 4.58183C5.2931 5.06676 4.56294 4.53271 4.56294 4.53271C5.04011 4.94427 5.65853 4.93718 6.04258 4.87734C5.93867 4.92791 5.82979 4.98059 5.71438 5.04257C4.45187 5.72397 3.319 6.844 3.12483 8.39483V8.38274C2.83175 9.90578 2.17969 10.2967 2.17969 10.2967C2.6985 10.0425 3.02522 9.36747 3.10476 9.12393C3.19147 10.4626 3.8485 11.3918 4.61738 12.2861C5.01648 12.7497 5.15692 13.2004 5.15692 13.2004C5.15692 13.2004 5.07882 12.6899 4.73271 12.274C4.0169 11.4189 3.33547 10.3522 3.28533 9.1197Z" fill="black"/>
<path d="M9.14844 5.98169V6.28933C9.25524 6.16042 9.46162 6.1868 9.46162 6.1868V6.63036C9.46162 6.63036 9.45442 6.84827 9.37632 6.94298H9.59987H9.82275C9.74606 6.84901 9.73819 6.63036 9.73819 6.63036V6.1868C9.73819 6.1868 9.94453 6.16042 10.0506 6.28933V5.98169H9.59987H9.14844Z" fill="black"/>
<path d="M8.95563 4.15768C9.09822 4.27023 9.18063 4.28871 9.18348 4.29086L9.23937 4.31649V4.02669L8.71484 3.80737C8.71484 3.80808 8.71985 3.97542 8.95563 4.15768Z" fill="black"/>
<path d="M10.203 4.15768C10.4401 3.97542 10.4444 3.80737 10.4444 3.80737L9.91992 4.02669V4.31649L9.9751 4.29086C9.9787 4.28871 10.0604 4.27023 10.203 4.15768Z" fill="black"/>
<path d="M11.1478 2.97781C11.1478 2.5385 10.4033 2.14331 9.58144 2.14331H9.58073H9.57858H9.57643C8.75454 2.14331 8.01006 2.5385 8.01006 2.97781L8.02652 3.08606L8.35469 4.958L8.02511 5.14813L7.17241 5.643H7.17527C7.17527 5.643 6.98324 5.74056 6.89438 5.80107C6.56978 6.02536 6.50098 6.35218 6.68945 6.48747C6.73603 6.22119 6.94809 5.94204 7.34508 5.94204C7.63101 5.94204 7.84881 6.08875 8.02511 6.30877C8.07025 6.36431 8.11323 6.42337 8.15336 6.48747C8.20279 6.56793 8.25223 6.63842 8.3017 6.70679H6.10547C6.26668 7.02931 6.41999 7.37112 6.41999 7.74209V12.5726C6.41999 13.7418 7.32502 14.3 8.30385 14.3C9.0605 14.3 9.16226 14.2658 9.57999 14.6788C9.9956 14.2651 10.0974 14.3 10.8547 14.3C11.8343 14.3 12.7378 13.7418 12.7378 12.5726V7.74209C12.7378 7.37112 12.8912 7.02931 13.0531 6.70679H10.8562C10.9049 6.63916 10.9543 6.56793 11.0038 6.48747C11.0446 6.42337 11.0869 6.36431 11.1313 6.30877C11.3091 6.08801 11.5261 5.94204 11.8121 5.94204C12.209 5.94204 12.4204 6.22045 12.4677 6.48747C12.6562 6.35218 12.5881 6.02536 12.2613 5.80107C12.1739 5.74056 11.9819 5.643 11.9819 5.643H11.9847L11.132 5.14813L10.8039 4.958L11.132 3.08606L11.1478 2.97781ZM8.33322 3.1957L9.48687 3.58449V5.38525L8.63776 4.94023L8.33322 3.1957ZM8.57183 7.02081C8.761 7.20804 8.94657 7.32415 9.12287 7.38822C9.09992 7.47863 9.06981 7.66519 9.15507 7.85104C9.2246 8.00054 9.35073 8.11591 9.532 8.19282C9.55206 8.37796 9.66959 8.65638 9.9956 8.77954C9.85301 8.92266 9.71398 9.05725 9.65739 9.11207L8.33537 9.09141C8.30526 9.07646 8.25438 9.043 8.23146 8.9953C8.22857 8.98888 8.2243 8.98532 8.22211 8.97819L8.43784 9.01307C8.44284 9.01381 8.44715 9.01381 8.45145 9.01381C8.49302 9.01381 8.52955 8.98532 8.53671 8.94262C8.5439 8.89491 8.51164 8.85147 8.46506 8.84435L8.19993 8.80306L8.49443 7.79265L8.2157 7.20949L7.76859 7.67943L7.74134 8.73042L7.4411 8.68342C7.39452 8.67415 7.35009 8.70835 7.34223 8.75461C7.33507 8.80091 7.36656 8.84435 7.41387 8.85288L7.54 8.8721C7.49483 8.89773 7.46546 8.91769 7.46186 8.92054L7.43609 8.93831L7.42893 8.96966C7.35584 9.26443 7.52135 9.54426 7.6998 9.66957L7.69331 9.70663C7.68616 9.75222 7.69621 9.79636 7.72339 9.83339C7.7492 9.87111 7.78933 9.89389 7.83379 9.90172C7.84306 9.90313 7.85311 9.90384 7.86172 9.90384C7.93911 9.90384 8.00646 9.85045 8.02578 9.77285C8.09246 9.78071 8.15336 9.78212 8.19489 9.78212H8.23005L9.96479 10.0933L9.99416 10.074C10.1325 9.97792 10.6591 9.59626 10.8318 9.47021C10.8791 9.51083 10.9321 9.54782 10.9966 9.57846C10.9407 9.76502 10.9371 10.052 11.1586 10.2784H6.73744V7.74279C6.73744 7.49714 6.66505 7.25007 6.57979 7.02222H8.57183V7.02081ZM10.7157 9.34063C10.5402 9.4688 10.0888 9.79636 9.92537 9.91029L8.34898 9.62902C8.35258 9.61478 8.3561 9.60124 8.3597 9.58699C8.3805 9.50582 8.40131 9.39475 8.40272 9.26443L9.72763 9.2858L9.7527 9.2602C9.77276 9.24025 10.1927 8.83722 10.4069 8.60507C10.4578 8.66847 10.5215 8.72901 10.6047 8.7824C10.576 8.9362 10.5882 9.15548 10.7157 9.34063ZM8.0767 9.06934C8.11393 9.14695 8.18132 9.19896 8.22786 9.22812C8.22645 9.30075 8.21929 9.41397 8.19993 9.51365C8.19563 9.53576 8.18989 9.55639 8.18343 9.57705C8.17984 9.58985 8.17631 9.60053 8.17342 9.60906C8.10392 9.60906 7.96704 9.60053 7.85526 9.55995C7.73132 9.51436 7.54642 9.28866 7.5894 9.04015C7.64317 9.00739 7.76711 8.93831 7.88319 8.93831C7.97279 8.93764 8.03372 8.9796 8.0767 9.06934ZM7.9126 8.75676L7.93911 7.7478L8.16697 7.50786L8.3103 7.80549L8.02797 8.77383L7.9126 8.75676ZM10.7014 13.9874C10.6154 13.9874 10.5359 13.9889 10.4642 13.9917L10.6519 13.4114C10.6813 13.3309 10.533 13.2277 10.4721 13.1372C10.5645 13.1949 10.8039 13.3209 10.9192 13.3715C10.907 13.39 10.7014 13.9874 10.7014 13.9874ZM11.2904 13.3281L11.1679 13.9632C11.0898 13.9739 11.0067 13.9796 10.9214 13.9832L11.0504 13.3722C11.0891 13.1907 10.5982 13.1344 10.356 12.7777C10.2378 12.9101 10.015 12.9493 9.79138 12.9493C9.58718 12.9493 9.38295 12.9165 9.25898 12.8923C9.22746 12.8873 9.19738 12.8838 9.16801 12.8838C9.09632 12.8838 9.03113 12.9058 8.98599 12.9813L8.95013 13.0412L8.28163 12.8845L8.11538 13.1579C8.09172 13.202 8.09031 13.2398 8.12825 13.2811L8.17342 13.3302C8.1426 13.4271 8.0036 13.573 8.0036 13.573L7.90399 13.4499C7.82519 13.3623 7.83806 13.2027 7.92046 13.0547L8.18558 12.6096L8.75169 12.6908L8.66354 12.4914C8.54531 12.228 8.72517 11.8926 8.74449 11.6997C8.73808 11.758 8.68431 11.7708 8.62126 11.7708C8.56396 11.7708 8.50018 11.7602 8.4579 11.7602C8.44143 11.7602 8.42708 11.7616 8.41918 11.7672L8.26584 11.8598L8.14475 11.7537C8.13044 11.7331 8.12539 11.6854 8.16125 11.6498L8.44143 11.3379L8.11037 10.9541L8.57398 11.1856L8.71516 11.0154C8.7538 11.0531 8.73734 11.152 8.73734 11.152C8.88208 11.1556 9.28765 11.3785 9.30915 11.8983C9.3106 11.914 9.3106 11.9317 9.3106 11.9488C9.3106 11.9488 9.3142 11.9553 9.32132 11.9659C9.34999 12.0051 9.42879 12.1055 9.52911 12.1147L10.1698 12.1774H10.1726C10.2428 12.1774 10.3826 12.0955 10.5617 12.0955C10.6591 12.0955 10.7681 12.1204 10.8841 12.1931C10.8841 12.1931 10.9422 12.1475 11.0368 12.1426C11.0439 12.1418 11.0518 12.1418 11.059 12.1418C11.3463 12.1418 11.4653 12.3996 11.6193 12.6139C11.7354 12.777 11.8901 13.019 11.8901 13.019C11.8328 13.0867 11.7798 13.1237 11.691 13.1237C11.6666 13.1237 11.6386 13.1216 11.6086 13.1159C11.3004 13.0596 11.256 12.4302 11.0805 12.3803C11.0712 12.3775 11.0611 12.3768 11.0525 12.3768C10.9959 12.3768 10.9708 12.4266 10.9708 12.4266C11.0511 12.641 11.0045 12.7278 11.0905 12.893C11.155 13.0155 11.2696 13.1166 11.3169 13.1643C11.3169 13.1657 11.304 13.2583 11.2904 13.3281ZM7.85026 12.7271L7.87963 12.8004C7.86027 12.8645 7.63813 12.9557 7.63813 12.9557L7.59014 12.8517C7.53926 12.7407 7.55002 12.5534 7.70481 12.4387L8.0645 12.2208L8.4457 12.3013C8.43854 12.4216 8.5109 12.5114 8.5109 12.5114L8.11104 12.4352L7.87173 12.5997C7.8316 12.6274 7.82875 12.6794 7.85026 12.7271ZM11.3506 13.9283L11.4602 13.3601C11.466 13.3267 11.4732 13.2875 11.4782 13.2548C11.509 13.2676 11.5419 13.2782 11.5778 13.2847C11.6186 13.2924 11.6566 13.296 11.691 13.296C11.8586 13.296 11.9561 13.2084 12.0213 13.1337L12.1059 13.0361L12.0371 12.9293C12.0306 12.9186 11.8787 12.6794 11.7612 12.5156C11.7383 12.4836 11.716 12.4515 11.6938 12.4167C11.5606 12.2187 11.3936 11.9702 11.059 11.9702L11.0289 11.9709C10.9737 11.9745 10.9264 11.9852 10.8884 11.9994C10.7831 11.9503 10.6749 11.9254 10.5624 11.9254C10.4241 11.9254 10.3073 11.9631 10.2299 11.9895C10.2077 11.9958 10.1876 12.003 10.1719 12.0058L9.54632 11.9446C9.53845 11.9432 9.51264 11.9282 9.48186 11.8912V11.8883L9.61726 11.8342C9.57932 11.3863 9.14646 11.1107 8.905 11.0175C8.89428 10.9726 8.87277 10.9278 8.8348 10.8915L8.70007 10.7647L8.58184 10.9057L8.52384 10.9776L7.64818 10.6202L8.21785 11.3308L7.99285 11.669C7.91045 11.7559 8.00145 11.8427 8.00145 11.8427L8.23357 12.0015L8.47437 11.9125C8.48297 11.9125 8.49016 11.9147 8.49803 11.9154C8.48657 11.9517 8.47151 12.0941 8.4615 12.134L8.04373 12.0521L7.60446 12.2984C7.37876 12.4629 7.34794 12.7357 7.43179 12.9222L7.48052 13.0283L7.55002 13.1778L7.70333 13.1145C7.70551 13.1138 7.70766 13.113 7.70907 13.1116C7.65393 13.2868 7.67614 13.4534 7.77501 13.5631L7.86817 13.6798L7.99211 13.8358L8.12825 13.6905C8.16838 13.6506 8.2981 13.5061 8.33823 13.3822L8.3676 13.2875L8.30096 13.2148L8.29024 13.202L8.36471 13.0796L8.91001 13.207L9.03254 13.2348L9.09773 13.128L9.13359 13.0696C9.14005 13.0575 9.1422 13.0554 9.16727 13.0554C9.18663 13.0554 9.20595 13.0575 9.22675 13.0618C9.43239 13.1002 9.6223 13.1194 9.79067 13.1194C9.95403 13.1194 10.0515 13.113 10.1683 13.0746C10.1683 13.0746 10.4614 13.405 10.4714 13.4178L10.2923 13.9675L10.2844 14.0009C9.94472 14.028 9.77918 14.1021 9.57932 14.3007C9.28906 14.0145 9.08342 13.9846 8.30311 13.9846C7.36941 13.9846 6.7367 13.4406 6.7367 12.5719V10.4479H12.4204L12.4219 12.5719C12.4226 13.2768 12.0063 13.7681 11.3506 13.9283ZM12.5795 7.02081C12.4928 7.24866 12.4204 7.49573 12.4204 7.74142L12.4211 9.32638C12.088 9.27085 12.0485 8.91413 12.0471 8.89847L12.0407 8.82584L11.969 8.81942C11.8242 8.80588 11.7282 8.74467 11.6472 8.66632C11.4839 8.50398 11.4832 8.24052 11.4839 8.23841C11.4818 8.25191 11.304 8.49898 11.5104 8.76886C11.5971 8.88278 11.7225 8.95256 11.8851 8.98034C11.9231 9.17829 12.0715 9.45741 12.4211 9.50011V10.2762H11.438C10.9844 10.0256 11.1765 9.58413 11.1858 9.56566L11.2245 9.48163L11.1378 9.44888C10.6469 9.26803 10.7817 8.78099 10.7888 8.76032L10.8089 8.68913L10.7423 8.65779C10.3367 8.47123 10.3919 7.96782 10.3969 7.9472C10.2722 8.04758 10.2271 8.25265 10.313 8.45346C10.2665 8.50613 10.2041 8.5702 10.136 8.64002C9.71617 8.53388 9.70326 8.15012 9.70326 8.13231L9.70252 8.07318L9.64737 8.05185C9.48327 7.99134 9.37079 7.90086 9.31561 7.77911C9.25327 7.64452 9.27548 7.50355 9.29265 7.43589C9.34068 7.44661 9.38867 7.45444 9.43454 7.45796C9.48186 7.46301 9.53059 7.46583 9.57932 7.46583H9.58218H9.58574C9.63447 7.46583 9.68246 7.46301 9.72978 7.45796C9.9913 7.43237 10.2844 7.32059 10.5896 7.02011H12.5795V7.02081ZM11.0475 5.41867L11.4359 5.643H11.4416L11.5391 5.69927C11.3198 5.75978 11.1521 5.86873 11.0117 6.01182C11.0067 6.01612 11.0017 6.02183 10.9966 6.0268C10.9644 6.06097 10.9321 6.09799 10.902 6.13575C10.8963 6.14284 10.8906 6.15067 10.8841 6.15853C10.8541 6.19697 10.8261 6.23614 10.7989 6.27743C10.7945 6.28455 10.7895 6.29167 10.7845 6.29806C10.7523 6.34576 10.7215 6.39707 10.6907 6.44974C10.4141 6.92325 9.97268 7.20593 9.57999 7.20667C9.18807 7.20593 8.74668 6.92325 8.4701 6.44974C8.43995 6.39848 8.40987 6.34862 8.37765 6.30024C8.37116 6.29097 8.36545 6.28169 8.3597 6.27387C8.33251 6.23469 8.30526 6.19626 8.2773 6.15994C8.27017 6.15 8.26372 6.14214 8.25653 6.1336C8.22645 6.09729 8.19563 6.06097 8.16482 6.02751C8.15836 6.0225 8.15406 6.01612 8.14764 6.01041C8.00646 5.86729 7.8395 5.75904 7.61951 5.69927L7.71838 5.643H7.72272L8.11104 5.41867L8.51019 5.19157L9.57643 5.76831L9.57858 5.7662L9.58144 5.76831L10.6477 5.19157L11.0475 5.41867ZM10.5215 4.9409L9.6717 5.38595V3.58449L10.8246 3.1957L10.5215 4.9409ZM9.57932 3.38654L8.31531 2.89024C8.42278 2.63746 8.91861 2.42242 9.57932 2.42172C10.2407 2.42242 10.7365 2.63746 10.8433 2.89024L9.57932 3.38654Z" fill="black"/>
</svg>
