<svg width="31" height="10" viewBox="0 0 31 10" fill="none" xmlns="http://www.w3.org/2000/svg">
<path d="M15.9463 3.19688C15.9287 4.58993 17.1824 5.36725 18.1267 5.82946C19.097 6.30365 19.423 6.60776 19.4191 7.03186C19.4119 7.68084 18.6451 7.96729 17.9277 7.97842C16.6759 7.9979 15.9481 7.63899 15.3695 7.36754L14.9185 9.48674C15.499 9.75541 16.574 9.98972 17.6887 10C20.3053 10 22.0172 8.70276 22.0264 6.69146C22.0367 4.13884 18.511 3.99756 18.535 2.85661C18.5434 2.51064 18.872 2.14146 19.5923 2.04759C19.9488 2.00017 20.9329 1.96388 22.0487 2.47992L22.4867 0.429549C21.8866 0.210117 21.1154 0 20.1552 0C17.6924 0 15.9602 1.3149 15.9463 3.19688ZM26.6947 0.17661C26.2169 0.17661 25.8142 0.456525 25.6345 0.886074L21.8968 9.8494H24.5115L25.0318 8.40519H28.227L28.5288 9.8494H30.8333L28.8223 0.17661H26.6947ZM27.0605 2.78959L27.815 6.42183H25.7485L27.0605 2.78959ZM12.7761 0.176731L10.7151 9.84928H13.2067L15.2667 0.176489H12.7761V0.176731ZM9.09017 0.176489L6.4968 6.76029L5.44774 1.16236C5.32465 0.537451 4.83855 0.17661 4.29872 0.17661H0.0593783L0 0.457492C0.870319 0.647166 1.85915 0.953089 2.45824 1.28042C2.82486 1.48038 2.92941 1.65518 3.04985 2.13033L5.03679 9.8494H7.66979L11.7065 0.17661H9.09017" fill="url(#paint0_linear)"/>
<defs>
<linearGradient id="paint0_linear" x1="14.1753" y1="10.2006" x2="14.466" y2="-0.0694755" gradientUnits="userSpaceOnUse">
<stop stop-color="#222357"/>
<stop offset="1" stop-color="#254AA5"/>
</linearGradient>
</defs>
</svg>
