<svg width="15" height="15" viewBox="0 0 15 15" fill="none" xmlns="http://www.w3.org/2000/svg">
<path d="M7.46409 0C8.63403 0 9.74774 0.272889 10.7464 0.759646C10.9033 0.831359 11.0608 0.917033 11.217 1.00334L10.5321 1.61893L9.50525 0.545143L7.73532 2.12092L6.6935 0.988746L3.43927 3.92579L5.52292 6.23265L4.70921 6.94851L6.76537 9.25537L5.95165 9.97123L8.89152 13.2522L10.6321 11.6473L12.1451 13.3671C11.8451 13.5962 11.517 13.8259 11.1608 14.0265C10.0357 14.6659 8.76776 15.0011 7.47846 15C3.35365 14.9994 4.60371e-05 11.6327 4.60371e-05 7.49365C-0.0143283 3.38128 3.33927 0 7.46409 0ZM6.09352 7.03545L7.87782 5.43049L9.4765 7.2214L7.6922 8.82636L6.09352 7.03545ZM7.36409 10.1299L9.13401 8.51159L10.7464 10.3019L8.96214 11.9068L7.36409 10.1299ZM4.82483 3.98418L6.6085 2.37921L8.20655 4.17012L6.42288 5.77445L4.82483 3.98418ZM8.09218 3.12426L9.41962 1.92101L10.6189 3.25309L9.2915 4.47093L8.09218 3.12426ZM10.4621 8.63978L11.7889 7.43654L12.9876 8.78258L11.6601 9.98709L10.4621 8.63978ZM11.632 11.3477L12.9595 10.1438L14.1575 11.4766L12.8307 12.6938L11.632 11.3477ZM12.1745 5.15823L13.0588 4.35607L13.8582 5.24454L12.9732 6.04671L12.1745 5.15823ZM11.0327 2.50804L11.9176 1.69191L12.7176 2.59435L11.8314 3.39651L11.0327 2.50804ZM13.3013 7.80906L14.1863 7.00689L15 7.89537L14.1013 8.69754L13.3013 7.80906ZM9.32025 5.81761L10.6477 4.61436L11.8464 5.94644L10.519 7.15032L9.32025 5.81761Z" fill="#0469A5"/>
</svg>
