<svg width="68" height="16" viewBox="0 0 68 16" fill="none" xmlns="http://www.w3.org/2000/svg">
<path d="M35.4245 4.34612H33.2316L31.6796 7.02406H30.8808L30.8553 1.22852H28.7793V11.6955H30.8553L30.8808 8.82269H31.6745L33.7352 11.6955H36.0351L33.3485 7.8884L35.4245 4.34612Z" fill="black"/>
<path d="M51.1376 7.79308C50.7158 7.52509 50.2586 7.31495 49.7789 7.16855L49.3209 6.9987L49.1989 6.95373C48.914 6.8488 48.6138 6.7389 48.6035 6.45411C48.601 6.36976 48.6199 6.28611 48.6592 6.21098C48.6983 6.13583 48.7562 6.07166 48.8274 6.02443C48.9778 5.92271 49.154 5.8639 49.3362 5.85458C49.7337 5.82763 50.1279 5.94299 50.4455 6.17932L50.5014 6.21429L51.6106 4.96025L51.5547 4.91531C51.4166 4.79441 51.2667 4.6873 51.1069 4.59555C50.8207 4.43482 50.5098 4.32172 50.1861 4.2608C49.7197 4.16339 49.2377 4.16339 48.7715 4.2608C48.3207 4.31938 47.8931 4.4915 47.53 4.76042C47.2977 4.93877 47.1037 5.16032 46.9587 5.41234C46.814 5.66437 46.721 5.94196 46.6853 6.22928C46.6217 6.74778 46.7557 7.27103 47.0618 7.69815C47.4683 8.14016 47.9998 8.45325 48.5882 8.59746L48.6799 8.62744L48.8884 8.69738C49.6416 8.9472 49.8552 9.04712 49.9773 9.197C50.0342 9.2724 50.0661 9.36307 50.0689 9.45679C50.0689 9.81152 49.6262 9.95641 49.326 10.0464C49.1162 10.0851 48.9004 10.0811 48.6921 10.0347C48.4838 9.98829 48.2875 9.90043 48.1152 9.77655C47.8361 9.59341 47.5974 9.35728 47.4129 9.08209C47.2959 9.20201 46.1459 10.3161 46.1663 10.3361L46.202 10.3861C46.756 11.0672 47.5323 11.5401 48.4001 11.7251C48.5982 11.7627 48.7988 11.7877 49.0005 11.8H49.2091C49.8945 11.8141 50.566 11.6089 51.1222 11.2155C51.4985 10.9541 51.787 10.589 51.9517 10.1662C52.0518 9.88249 52.087 9.58063 52.0553 9.28195C52.0237 8.98327 51.9259 8.69505 51.7684 8.43758C51.6075 8.18084 51.3923 7.96103 51.1376 7.79308Z" fill="black"/>
<path d="M57.8419 7.79317C57.422 7.5252 56.9668 7.31507 56.4887 7.16865L56.0256 6.99879L55.9086 6.95382C55.6186 6.84889 55.3235 6.73897 55.3082 6.45421C55.3095 6.37001 55.3309 6.28731 55.3707 6.21268C55.4106 6.13808 55.4675 6.07364 55.5372 6.02453C55.6876 5.92278 55.8637 5.864 56.046 5.85467C56.4435 5.82863 56.8371 5.94389 57.1552 6.17942L57.206 6.21439L58.3153 4.96035L58.2645 4.91538C58.1253 4.79332 57.9737 4.68614 57.8116 4.59564C57.5272 4.43511 57.2178 4.32199 56.8956 4.2609C56.4276 4.16336 55.9441 4.16336 55.4762 4.2609C55.0258 4.32121 54.5985 4.49314 54.2344 4.76051C54.0009 4.93719 53.805 5.15748 53.6583 5.4087C53.5117 5.65992 53.417 5.93712 53.3797 6.22439C53.3131 6.74306 53.4474 7.26736 53.7563 7.69326C54.1627 8.13527 54.6942 8.44833 55.2827 8.59257L55.3692 8.62255L55.5778 8.69249C56.336 8.94228 56.5497 9.04222 56.6717 9.1921C56.7304 9.26623 56.761 9.35807 56.7582 9.4519C56.7582 9.80663 56.3207 9.95151 56.0205 10.0415C55.8098 10.0803 55.5931 10.0763 55.384 10.03C55.1749 9.98358 54.9776 9.89566 54.8045 9.77166C54.5278 9.58583 54.2896 9.35018 54.1022 9.07719C53.9904 9.19709 52.8403 10.3112 52.8556 10.3312L52.8962 10.3812C53.4504 11.0623 54.2268 11.5352 55.0945 11.7202C55.2926 11.7581 55.4933 11.7832 55.695 11.7951H55.9035C56.589 11.8092 57.2604 11.604 57.8167 11.2105C58.193 10.9492 58.4814 10.5841 58.6461 10.1614C58.7459 9.87759 58.7814 9.57573 58.7498 9.27705C58.7181 8.97838 58.6203 8.69016 58.4628 8.43269C58.304 8.17903 58.0924 7.96112 57.8419 7.79317Z" fill="black"/>
<path d="M42.2418 4.34561V5.06504H42.1505C41.5822 4.50637 40.8122 4.1904 40.0083 4.18573C39.5153 4.17616 39.0257 4.26866 38.5718 4.45716C38.1176 4.64569 37.7089 4.92602 37.3724 5.27989C36.6939 6.02602 36.3301 6.99778 36.3549 7.99779C36.3286 9.01459 36.6916 10.0041 37.3724 10.7706C37.701 11.1248 38.1031 11.4053 38.5519 11.5933C39.0004 11.7812 39.485 11.8721 39.9726 11.8598C40.7778 11.845 41.5521 11.5532 42.1604 11.0355H42.2418V11.68H44.3993V4.34561H42.2418ZM42.3488 8.03777C42.3705 8.62883 42.1693 9.20695 41.7839 9.66152C41.5993 9.86462 41.3713 10.0254 41.1163 10.1324C40.8615 10.2395 40.5855 10.2902 40.3085 10.281C40.0397 10.2855 39.7732 10.2303 39.5291 10.1196C39.2851 10.0088 39.0696 9.84542 38.8991 9.64152C38.5182 9.17755 38.3229 8.59311 38.3494 7.99779C38.3321 7.42039 38.5312 6.8568 38.909 6.41401C39.0831 6.21322 39.3001 6.05264 39.5447 5.94382C39.7893 5.83498 40.0553 5.78059 40.3236 5.7845C40.5991 5.77607 40.8727 5.82774 41.1252 5.93573C41.3777 6.04372 41.6029 6.20535 41.7839 6.40902C42.1693 6.86557 42.3703 7.44523 42.3488 8.03777Z" fill="black"/>
<path d="M65.7086 4.34602V5.06548H65.617C65.05 4.50801 64.2823 4.19211 63.48 4.18614C62.9865 4.17715 62.4963 4.26984 62.0414 4.4583C61.5867 4.64678 61.177 4.92681 60.8392 5.28031C60.1607 6.02643 59.7969 6.99822 59.8216 7.99822C59.7954 9.01503 60.1584 10.0045 60.8392 10.7711C61.1678 11.1252 61.5699 11.4057 62.0184 11.5937C62.4672 11.7816 62.9518 11.8725 63.4394 11.8603C64.2445 11.8454 65.0186 11.5537 65.6272 11.0359H65.7086V11.6804H67.8661V4.34602H65.7086ZM65.8156 8.03818C65.8396 8.62959 65.6382 9.20857 65.2506 9.66194C65.0661 9.86503 64.8381 10.0258 64.5831 10.1329C64.328 10.2399 64.0523 10.2906 63.7751 10.2815C63.5063 10.2859 63.24 10.2307 62.9959 10.12C62.7519 10.0092 62.5364 9.84583 62.3656 9.64196C61.985 9.17799 61.7894 8.59355 61.8162 7.99822C61.7989 7.4208 61.998 6.85724 62.3758 6.41445C62.5499 6.21363 62.7669 6.05308 63.0115 5.94424C63.2561 5.83542 63.5221 5.781 63.7904 5.78493C64.0658 5.77651 64.3395 5.82815 64.592 5.93614C64.8445 6.04413 65.0694 6.20579 65.2506 6.40944C65.6382 6.86483 65.8393 7.44529 65.8156 8.03818Z" fill="black"/>
<path d="M14.608 0C10.1292 0 6.56641 3.5483 6.56641 7.89619C6.56641 12.2941 10.1801 15.7924 14.608 15.7924C19.0361 15.7924 22.6497 12.2441 22.6497 7.89619C22.6497 3.5483 19.0361 0 14.608 0ZM14.608 10.7948C12.9794 10.7948 11.6052 9.44544 11.6052 7.8462C11.6052 6.24699 12.9794 4.89764 14.608 4.89764C16.2367 4.89764 17.6109 6.24699 17.6109 7.8462C17.56 9.4954 16.2367 10.7948 14.608 10.7948Z" fill="url(#paint0_linear)"/>
<path d="M6.51475 2.24902V13.7435H3.66454L0 2.24902H6.51475Z" fill="url(#paint1_linear)"/>
<defs>
<linearGradient id="paint0_linear" x1="14.608" y1="0" x2="14.608" y2="15.7924" gradientUnits="userSpaceOnUse">
<stop stop-color="#0160D1"/>
<stop offset="1" stop-color="#00479C"/>
</linearGradient>
<linearGradient id="paint1_linear" x1="3.25738" y1="2.24902" x2="3.25738" y2="13.7435" gradientUnits="userSpaceOnUse">
<stop stop-color="#0160D1"/>
<stop offset="1" stop-color="#00479C"/>
</linearGradient>
</defs>
</svg>
