<svg width="8" height="8" viewBox="0 0 8 8" fill="none" xmlns="http://www.w3.org/2000/svg">
<path fill-rule="evenodd" clip-rule="evenodd" d="M4.14592 0.146894C4.19236 0.10033 4.24754 0.0633873 4.30828 0.0381808C4.36903 0.0129744 4.43415 0 4.49992 0C4.56568 0 4.63081 0.0129744 4.69155 0.0381808C4.7523 0.0633873 4.80747 0.10033 4.85392 0.146894L7.85392 3.14689C7.90048 3.19334 7.93742 3.24851 7.96263 3.30926C7.98784 3.37001 8.00081 3.43513 8.00081 3.50089C8.00081 3.56666 7.98784 3.63178 7.96263 3.69253C7.93742 3.75327 7.90048 3.80845 7.85392 3.85489L4.85392 6.85489C4.76003 6.94878 4.63269 7.00152 4.49992 7.00152C4.36714 7.00152 4.2398 6.94878 4.14592 6.85489C4.05203 6.76101 3.99929 6.63367 3.99929 6.50089C3.99929 6.36812 4.05203 6.24078 4.14592 6.14689L6.79292 3.50089L4.14592 0.854894C4.09935 0.808448 4.06241 0.753272 4.0372 0.692527C4.012 0.631782 3.99902 0.566661 3.99902 0.500894C3.99902 0.435126 4.012 0.370005 4.0372 0.30926C4.06241 0.248515 4.09935 0.193339 4.14592 0.146894Z" fill="black"/>
<path fill-rule="evenodd" clip-rule="evenodd" d="M0 3.50098C0 3.36837 0.0526785 3.24119 0.146447 3.14742C0.240215 3.05366 0.367392 3.00098 0.5 3.00098H7C7.13261 3.00098 7.25979 3.05366 7.35355 3.14742C7.44732 3.24119 7.5 3.36837 7.5 3.50098C7.5 3.63358 7.44732 3.76076 7.35355 3.85453C7.25979 3.9483 7.13261 4.00098 7 4.00098H0.5C0.367392 4.00098 0.240215 3.9483 0.146447 3.85453C0.0526785 3.76076 0 3.63358 0 3.50098Z" fill="black"/>
</svg>
