<svg width="16" height="13" viewBox="0 0 16 13" fill="none" xmlns="http://www.w3.org/2000/svg">
<path fill-rule="evenodd" clip-rule="evenodd" d="M1.10076 3.875H0V3.125H1.60892L4.00408 9.125H9.46358L10.5886 5H12V5.75H11.1614L10.0364 9.875H3.49592L1.10076 3.875Z" fill="black"/>
<path fill-rule="evenodd" clip-rule="evenodd" d="M4.5 12.5C4.91421 12.5 5.25 12.1642 5.25 11.75C5.25 11.3358 4.91421 11 4.5 11C4.08579 11 3.75 11.3358 3.75 11.75C3.75 12.1642 4.08579 12.5 4.5 12.5Z" fill="black"/>
<path fill-rule="evenodd" clip-rule="evenodd" d="M9 12.5C9.41421 12.5 9.75 12.1642 9.75 11.75C9.75 11.3358 9.41421 11 9 11C8.58579 11 8.25 11.3358 8.25 11.75C8.25 12.1642 8.58579 12.5 9 12.5Z" fill="black"/>
<path fill-rule="evenodd" clip-rule="evenodd" d="M4.9848 3.76517L5.51513 3.23484L6.74997 4.46968L7.9848 3.23484L8.51513 3.76517L6.74997 5.53034L4.9848 3.76517Z" fill="black"/>
<path fill-rule="evenodd" clip-rule="evenodd" d="M7.125 0.5V5H6.375V0.5H7.125Z" fill="black"/>
</svg>
