<svg width="17" height="17" viewBox="0 0 17 17" fill="none" xmlns="http://www.w3.org/2000/svg">
<path fill-rule="evenodd" clip-rule="evenodd" d="M1.51355 5.27H0V4.25H2.21226L5.50561 12.41H13.0124L14.5593 6.8H16.5V7.82H15.347L13.8001 13.43H4.80689L1.51355 5.27Z" fill="white"/>
<path fill-rule="evenodd" clip-rule="evenodd" d="M6.1875 17C6.75704 17 7.21875 16.5433 7.21875 15.98C7.21875 15.4167 6.75704 14.96 6.1875 14.96C5.61796 14.96 5.15625 15.4167 5.15625 15.98C5.15625 16.5433 5.61796 17 6.1875 17Z" fill="white"/>
<path fill-rule="evenodd" clip-rule="evenodd" d="M12.375 17C12.9445 17 13.4062 16.5433 13.4062 15.98C13.4062 15.4167 12.9445 14.96 12.375 14.96C11.8055 14.96 11.3438 15.4167 11.3438 15.98C11.3438 16.5433 11.8055 17 12.375 17Z" fill="white"/>
<path fill-rule="evenodd" clip-rule="evenodd" d="M6.85413 5.12063L7.58333 4.39938L9.28123 6.07876L10.9791 4.39938L11.7083 5.12063L9.28123 7.52125L6.85413 5.12063Z" fill="white"/>
<path fill-rule="evenodd" clip-rule="evenodd" d="M9.79688 0.68V6.8H8.76562V0.68H9.79688Z" fill="white"/>
</svg>
