<svg width="15" height="15" viewBox="0 0 15 15" fill="none" xmlns="http://www.w3.org/2000/svg">
<rect width="15" height="15" fill="white"/>
<path d="M11.703 4.49473C11.9285 4.25803 12.0526 3.94368 12.0526 3.60929C12.0526 3.27491 11.9285 2.96056 11.703 2.72386L10.7568 1.73072C10.5313 1.49402 10.2318 1.36377 9.91323 1.36377C9.59465 1.36377 9.29516 1.49402 9.07025 1.73009L2.72729 8.3671V11.1317H5.36005L11.703 4.49473ZM9.91323 2.61615L10.86 3.60867L9.91144 4.60055L8.96525 3.60804L9.91323 2.61615ZM3.92048 9.87935V8.88683L8.12048 4.49222L9.06667 5.48536L4.86727 9.87935H3.92048ZM2.72729 12.3841H12.2727V13.6365H2.72729V12.3841Z" fill="black"/>
</svg>
