<svg width="16" height="16" viewBox="0 0 16 16" fill="none" xmlns="http://www.w3.org/2000/svg">
<path d="M6.95581 5.54911V6.65071H6.14941V7.99711H6.95581V11.9995H8.61341V7.99711H9.72541C9.72541 7.99711 9.83021 7.35151 9.88061 6.64511H8.61981V5.72511C8.61981 5.58671 8.80061 5.40191 8.97981 5.40191H9.88221V3.99951H8.65421C6.91501 3.99951 6.95581 5.34751 6.95581 5.54911Z" fill="black"/>
<path d="M3.2 1.6C2.77565 1.6 2.36869 1.76857 2.06863 2.06863C1.76857 2.36869 1.6 2.77565 1.6 3.2V12.8C1.6 13.2243 1.76857 13.6313 2.06863 13.9314C2.36869 14.2314 2.77565 14.4 3.2 14.4H12.8C13.2243 14.4 13.6313 14.2314 13.9314 13.9314C14.2314 13.6313 14.4 13.2243 14.4 12.8V3.2C14.4 2.77565 14.2314 2.36869 13.9314 2.06863C13.6313 1.76857 13.2243 1.6 12.8 1.6H3.2ZM3.2 0H12.8C13.6487 0 14.4626 0.337142 15.0627 0.937258C15.6629 1.53737 16 2.35131 16 3.2V12.8C16 13.6487 15.6629 14.4626 15.0627 15.0627C14.4626 15.6629 13.6487 16 12.8 16H3.2C2.35131 16 1.53737 15.6629 0.937258 15.0627C0.337142 14.4626 0 13.6487 0 12.8V3.2C0 2.35131 0.337142 1.53737 0.937258 0.937258C1.53737 0.337142 2.35131 0 3.2 0Z" fill="black"/>
</svg>
