<svg width="449" height="144" viewBox="0 0 449 144" fill="none" xmlns="http://www.w3.org/2000/svg">
<path d="M448.207 91.7071C448.598 91.3166 448.598 90.6834 448.207 90.2929L441.843 83.9289C441.453 83.5384 440.819 83.5384 440.429 83.9289C440.038 84.3195 440.038 84.9526 440.429 85.3431L446.086 91L440.429 96.6569C440.038 97.0474 440.038 97.6805 440.429 98.0711C440.819 98.4616 441.453 98.4616 441.843 98.0711L448.207 91.7071ZM0 92H447.5V90H0V92Z" fill="black"/>
<path d="M148 81V101" stroke="black" stroke-width="2"/>
<path d="M293 81V101" stroke="black" stroke-width="2"/>
<path d="M143.406 132V129.646H147.63V118.734H147.432L144.088 122.694L142.284 121.176L146.09 116.644H150.468V129.646H153.988V132H143.406Z" fill="black"/>
<path d="M298.416 132H287.768V129.316L292.586 125.092C293.408 124.373 294.009 123.728 294.39 123.156C294.772 122.569 294.962 121.939 294.962 121.264V120.978C294.962 120.303 294.742 119.79 294.302 119.438C293.862 119.071 293.327 118.888 292.696 118.888C291.904 118.888 291.303 119.115 290.892 119.57C290.482 120.01 290.188 120.545 290.012 121.176L287.504 120.208C287.666 119.695 287.893 119.211 288.186 118.756C288.48 118.287 288.846 117.876 289.286 117.524C289.741 117.172 290.269 116.893 290.87 116.688C291.472 116.483 292.161 116.38 292.938 116.38C293.745 116.38 294.464 116.497 295.094 116.732C295.725 116.952 296.253 117.267 296.678 117.678C297.118 118.089 297.448 118.573 297.668 119.13C297.903 119.687 298.02 120.296 298.02 120.956C298.02 121.601 297.918 122.188 297.712 122.716C297.507 123.244 297.228 123.75 296.876 124.234C296.524 124.703 296.114 125.158 295.644 125.598C295.175 126.023 294.676 126.456 294.148 126.896L290.914 129.558H298.416V132Z" fill="black"/>
<path fill-rule="evenodd" clip-rule="evenodd" d="M2.8 0L15.4 17H12.3328L0 0H2.8Z" fill="black"/>
<path fill-rule="evenodd" clip-rule="evenodd" d="M2.8 36L15.4 53H12.3328L0 36H2.8Z" fill="black"/>
<path fill-rule="evenodd" clip-rule="evenodd" d="M138.8 36L151.4 53H148.333L136 36H138.8Z" fill="black"/>
<path fill-rule="evenodd" clip-rule="evenodd" d="M58.8 0L71.4 17H68.3328L56 0H58.8Z" fill="black"/>
<path fill-rule="evenodd" clip-rule="evenodd" d="M58.8 36L71.4 53H68.3328L56 36H58.8Z" fill="black"/>
<path fill-rule="evenodd" clip-rule="evenodd" d="M194.8 36L207.4 53H204.333L192 36H194.8Z" fill="black"/>
<path fill-rule="evenodd" clip-rule="evenodd" d="M10.8 0L23.4 17H20.3328L8 0H10.8Z" fill="black"/>
<path fill-rule="evenodd" clip-rule="evenodd" d="M10.8 36L23.4 53H20.3328L8 36H10.8Z" fill="black"/>
<path fill-rule="evenodd" clip-rule="evenodd" d="M146.8 36L159.4 53H156.333L144 36H146.8Z" fill="black"/>
<path fill-rule="evenodd" clip-rule="evenodd" d="M66.8 0L79.4 17H76.3328L64 0H66.8Z" fill="black"/>
<path fill-rule="evenodd" clip-rule="evenodd" d="M66.8 36L79.4 53H76.3328L64 36H66.8Z" fill="black"/>
<path fill-rule="evenodd" clip-rule="evenodd" d="M202.8 36L215.4 53H212.333L200 36H202.8Z" fill="black"/>
<path fill-rule="evenodd" clip-rule="evenodd" d="M18.8 0L31.4 17H28.3328L16 0H18.8Z" fill="black"/>
<path fill-rule="evenodd" clip-rule="evenodd" d="M18.8 36L31.4 53H28.3328L16 36H18.8Z" fill="black"/>
<path fill-rule="evenodd" clip-rule="evenodd" d="M154.8 36L167.4 53H164.333L152 36H154.8Z" fill="black"/>
<path fill-rule="evenodd" clip-rule="evenodd" d="M74.8 0L87.4 17H84.3328L72 0H74.8Z" fill="black"/>
<path fill-rule="evenodd" clip-rule="evenodd" d="M74.8 36L87.4 53H84.3328L72 36H74.8Z" fill="black"/>
<path fill-rule="evenodd" clip-rule="evenodd" d="M210.8 36L223.4 53H220.333L208 36H210.8Z" fill="black"/>
<path fill-rule="evenodd" clip-rule="evenodd" d="M26.8 0L39.4 17H36.3328L24 0H26.8Z" fill="black"/>
<path fill-rule="evenodd" clip-rule="evenodd" d="M26.8 36L39.4 53H36.3328L24 36H26.8Z" fill="black"/>
<path fill-rule="evenodd" clip-rule="evenodd" d="M162.8 36L175.4 53H172.333L160 36H162.8Z" fill="black"/>
<path fill-rule="evenodd" clip-rule="evenodd" d="M82.8 0L95.4 17H92.3328L80 0H82.8Z" fill="black"/>
<path fill-rule="evenodd" clip-rule="evenodd" d="M82.8 36L95.4 53H92.3328L80 36H82.8Z" fill="black"/>
<path fill-rule="evenodd" clip-rule="evenodd" d="M218.8 36L231.4 53H228.333L216 36H218.8Z" fill="black"/>
<path fill-rule="evenodd" clip-rule="evenodd" d="M274.8 36L287.4 53H284.333L272 36H274.8Z" fill="black"/>
<path fill-rule="evenodd" clip-rule="evenodd" d="M34.8 0L47.4 17H44.3328L32 0H34.8Z" fill="black"/>
<path fill-rule="evenodd" clip-rule="evenodd" d="M34.8 36L47.4 53H44.3328L32 36H34.8Z" fill="black"/>
<path fill-rule="evenodd" clip-rule="evenodd" d="M170.8 36L183.4 53H180.333L168 36H170.8Z" fill="black"/>
<path fill-rule="evenodd" clip-rule="evenodd" d="M90.8 0L103.4 17H100.333L88 0H90.8Z" fill="black"/>
<path fill-rule="evenodd" clip-rule="evenodd" d="M90.8 36L103.4 53H100.333L88 36H90.8Z" fill="black"/>
<path fill-rule="evenodd" clip-rule="evenodd" d="M226.8 36L239.4 53H236.333L224 36H226.8Z" fill="black"/>
<path fill-rule="evenodd" clip-rule="evenodd" d="M283.8 36L296.4 53H293.333L281 36H283.8Z" fill="black"/>
<path fill-rule="evenodd" clip-rule="evenodd" d="M42.8 0L55.4 17H52.3328L40 0H42.8Z" fill="black"/>
<path fill-rule="evenodd" clip-rule="evenodd" d="M42.8 36L55.4 53H52.3328L40 36H42.8Z" fill="black"/>
<path fill-rule="evenodd" clip-rule="evenodd" d="M178.8 36L191.4 53H188.333L176 36H178.8Z" fill="black"/>
<path fill-rule="evenodd" clip-rule="evenodd" d="M98.8 0L111.4 17H108.333L96 0H98.8Z" fill="black"/>
<path fill-rule="evenodd" clip-rule="evenodd" d="M98.8 36L111.4 53H108.333L96 36H98.8Z" fill="black"/>
<path fill-rule="evenodd" clip-rule="evenodd" d="M234.8 36L247.4 53H244.333L232 36H234.8Z" fill="black"/>
<path fill-rule="evenodd" clip-rule="evenodd" d="M291.8 36L304.4 53H301.333L289 36H291.8Z" fill="black"/>
<path fill-rule="evenodd" clip-rule="evenodd" d="M114.8 0L127.4 17H124.333L112 0H114.8Z" fill="black"/>
<path fill-rule="evenodd" clip-rule="evenodd" d="M114.8 36L127.4 53H124.333L112 36H114.8Z" fill="black"/>
<path fill-rule="evenodd" clip-rule="evenodd" d="M250.8 36L263.4 53H260.333L248 36H250.8Z" fill="black"/>
<path fill-rule="evenodd" clip-rule="evenodd" d="M307.8 36L320.4 53H317.333L305 36H307.8Z" fill="black"/>
<path fill-rule="evenodd" clip-rule="evenodd" d="M50.8 0L63.4 17H60.3328L48 0H50.8Z" fill="black"/>
<path fill-rule="evenodd" clip-rule="evenodd" d="M50.8 36L63.4 53H60.3328L48 36H50.8Z" fill="black"/>
<path fill-rule="evenodd" clip-rule="evenodd" d="M186.8 36L199.4 53H196.333L184 36H186.8Z" fill="black"/>
<path fill-rule="evenodd" clip-rule="evenodd" d="M106.8 0L119.4 17H116.333L104 0H106.8Z" fill="black"/>
<path fill-rule="evenodd" clip-rule="evenodd" d="M106.8 36L119.4 53H116.333L104 36H106.8Z" fill="black"/>
<path fill-rule="evenodd" clip-rule="evenodd" d="M242.8 36L255.4 53H252.333L240 36H242.8Z" fill="black"/>
<path fill-rule="evenodd" clip-rule="evenodd" d="M299.8 36L312.4 53H309.333L297 36H299.8Z" fill="black"/>
<path fill-rule="evenodd" clip-rule="evenodd" d="M122.8 0L135.4 17H132.333L120 0H122.8Z" fill="black"/>
<path fill-rule="evenodd" clip-rule="evenodd" d="M122.8 36L135.4 53H132.333L120 36H122.8Z" fill="black"/>
<path fill-rule="evenodd" clip-rule="evenodd" d="M258.8 36L271.4 53H268.333L256 36H258.8Z" fill="black"/>
<path fill-rule="evenodd" clip-rule="evenodd" d="M315.8 36L328.4 53H325.333L313 36H315.8Z" fill="black"/>
<path fill-rule="evenodd" clip-rule="evenodd" d="M130.8 0L143.4 17H140.333L128 0H130.8Z" fill="black"/>
<path fill-rule="evenodd" clip-rule="evenodd" d="M130.8 36L143.4 53H140.333L128 36H130.8Z" fill="black"/>
<path fill-rule="evenodd" clip-rule="evenodd" d="M266.8 36L279.4 53H276.333L264 36H266.8Z" fill="black"/>
<path fill-rule="evenodd" clip-rule="evenodd" d="M323.8 36L336.4 53H333.333L321 36H323.8Z" fill="black"/>
</svg>
