<svg width="295" height="180" viewBox="0 0 295 180" fill="none" xmlns="http://www.w3.org/2000/svg">
<path d="M155.242 73V69.608H168.298V31.144H167.978L155.69 42.088L153.514 39.656L166.25 28.328H172.138V69.608H184.426V73H155.242ZM215.441 31.72H195.473L194.065 50.408L194.449 50.472C195.559 48.8933 196.86 47.72 198.353 46.952C199.847 46.1413 201.788 45.736 204.177 45.736C206.14 45.736 207.932 46.056 209.553 46.696C211.175 47.2933 212.561 48.1893 213.713 49.384C214.865 50.536 215.74 51.9653 216.337 53.672C216.977 55.336 217.298 57.2347 217.298 59.368C217.298 61.544 216.956 63.528 216.273 65.32C215.633 67.0693 214.695 68.584 213.457 69.864C212.22 71.1013 210.705 72.0613 208.913 72.744C207.164 73.4267 205.18 73.768 202.961 73.768C201.212 73.768 199.633 73.576 198.225 73.192C196.817 72.8507 195.559 72.36 194.449 71.72C193.34 71.0373 192.337 70.248 191.441 69.352C190.588 68.456 189.82 67.496 189.137 66.472L192.017 64.296C193.255 66.216 194.684 67.7093 196.305 68.776C197.969 69.8 200.188 70.312 202.961 70.312C206.289 70.312 208.828 69.416 210.577 67.624C212.369 65.7893 213.265 63.3147 213.265 60.2V59.112C213.265 55.9973 212.391 53.544 210.641 51.752C208.935 49.9173 206.439 49 203.153 49C202.001 49 200.977 49.1067 200.081 49.32C199.185 49.4907 198.375 49.768 197.649 50.152C196.967 50.4933 196.327 50.92 195.729 51.432C195.175 51.9013 194.62 52.456 194.065 53.096L190.737 52.584L192.337 28.328H215.441V31.72ZM234.233 73L265.209 28.328H268.793L237.817 73H234.233ZM236.537 52.584C233.593 52.584 231.225 51.56 229.433 49.512C227.683 47.464 226.809 44.328 226.809 40.104C226.809 35.8373 227.683 32.68 229.433 30.632C231.225 28.584 233.593 27.56 236.537 27.56C239.481 27.56 241.827 28.584 243.577 30.632C245.369 32.68 246.265 35.8373 246.265 40.104C246.265 44.328 245.369 47.464 243.577 49.512C241.827 51.56 239.481 52.584 236.537 52.584ZM236.537 50.152C238.457 50.152 239.993 49.4693 241.145 48.104C242.339 46.7387 242.937 44.584 242.937 41.64V38.504C242.937 35.56 242.339 33.4053 241.145 32.04C239.993 30.6747 238.457 29.992 236.537 29.992C234.617 29.992 233.059 30.6747 231.865 32.04C230.713 33.4053 230.137 35.56 230.137 38.504V41.64C230.137 44.584 230.713 46.7387 231.865 48.104C233.059 49.4693 234.617 50.152 236.537 50.152ZM266.361 73.768C263.417 73.768 261.049 72.744 259.257 70.696C257.507 68.648 256.633 65.512 256.633 61.288C256.633 57.0213 257.507 53.864 259.257 51.816C261.049 49.768 263.417 48.744 266.361 48.744C269.305 48.744 271.651 49.768 273.401 51.816C275.193 53.864 276.089 57.0213 276.089 61.288C276.089 65.512 275.193 68.648 273.401 70.696C271.651 72.744 269.305 73.768 266.361 73.768ZM266.361 71.336C268.281 71.336 269.817 70.6533 270.969 69.288C272.163 67.9227 272.761 65.768 272.761 62.824V59.688C272.761 56.744 272.163 54.5893 270.969 53.224C269.817 51.8587 268.281 51.176 266.361 51.176C264.441 51.176 262.883 51.8587 261.689 53.224C260.537 54.5893 259.961 56.744 259.961 59.688V62.824C259.961 65.768 260.537 67.9227 261.689 69.288C262.883 70.6533 264.441 71.336 266.361 71.336Z" fill="black"/>
<mask id="path-2-inside-1" fill="white">
<path d="M180 90C180 110.216 173.194 129.843 160.679 145.718C148.163 161.594 130.667 172.794 111.01 177.513C91.3529 182.233 70.6794 180.196 52.3206 171.733C33.9618 163.269 18.9871 148.871 9.8094 130.859C0.631666 112.847 -2.21456 92.2691 1.72933 72.4418C5.67323 52.6146 16.1776 34.6925 31.5497 21.5634C46.9219 8.43439 66.2666 0.863036 86.4667 0.0693844C106.667 -0.724267 126.546 5.306 142.901 17.1885L132.321 31.7508C119.237 22.2448 103.333 17.4206 87.1733 18.0555C71.0132 18.6904 55.5375 24.7475 43.2398 35.2507C30.9421 45.754 22.5386 60.0917 19.3835 75.9535C16.2283 91.8153 18.5053 108.277 25.8475 122.687C33.1897 137.097 45.1695 148.615 59.8565 155.386C74.5435 162.157 91.0823 163.786 106.808 160.011C122.534 156.235 136.53 147.275 146.543 134.575C156.555 121.874 162 106.173 162 90H180Z"/>
</mask>
<path d="M180 90C180 110.216 173.194 129.843 160.679 145.718C148.163 161.594 130.667 172.794 111.01 177.513C91.3529 182.233 70.6794 180.196 52.3206 171.733C33.9618 163.269 18.9871 148.871 9.8094 130.859C0.631666 112.847 -2.21456 92.2691 1.72933 72.4418C5.67323 52.6146 16.1776 34.6925 31.5497 21.5634C46.9219 8.43439 66.2666 0.863036 86.4667 0.0693844C106.667 -0.724267 126.546 5.306 142.901 17.1885L132.321 31.7508C119.237 22.2448 103.333 17.4206 87.1733 18.0555C71.0132 18.6904 55.5375 24.7475 43.2398 35.2507C30.9421 45.754 22.5386 60.0917 19.3835 75.9535C16.2283 91.8153 18.5053 108.277 25.8475 122.687C33.1897 137.097 45.1695 148.615 59.8565 155.386C74.5435 162.157 91.0823 163.786 106.808 160.011C122.534 156.235 136.53 147.275 146.543 134.575C156.555 121.874 162 106.173 162 90H180Z" stroke="black" stroke-width="4" mask="url(#path-2-inside-1)"/>
</svg>
