<svg width="434" height="121" viewBox="0 0 434 121" fill="none" xmlns="http://www.w3.org/2000/svg">
<circle cx="50.6292" cy="57.345" r="49.6292" fill="white" stroke="black" stroke-width="2"/>
<circle cx="151.37" cy="57.345" r="49.6292" fill="white" stroke="black" stroke-width="2"/>
<circle cx="99.966" cy="60.1868" r="59.1868" fill="white" stroke="black" stroke-width="2"/>
<rect x="260" y="18" width="173" height="88" stroke="black" stroke-width="2"/>
<path d="M322.858 53.024H315.514L315.034 59.408H315.202C315.602 58.848 316.05 58.4 316.546 58.064C317.058 57.728 317.754 57.56 318.634 57.56C319.354 57.56 320.018 57.68 320.626 57.92C321.234 58.16 321.762 58.504 322.21 58.952C322.658 59.384 323.002 59.92 323.242 60.56C323.498 61.2 323.626 61.928 323.626 62.744C323.626 63.56 323.498 64.312 323.242 65C322.986 65.672 322.61 66.256 322.114 66.752C321.634 67.232 321.042 67.608 320.338 67.88C319.65 68.152 318.866 68.288 317.986 68.288C317.282 68.288 316.658 68.208 316.114 68.048C315.586 67.888 315.114 67.672 314.698 67.4C314.282 67.128 313.914 66.824 313.594 66.488C313.29 66.152 313.01 65.8 312.754 65.432L314.266 64.28C314.474 64.616 314.69 64.92 314.914 65.192C315.154 65.464 315.41 65.696 315.682 65.888C315.97 66.08 316.298 66.232 316.666 66.344C317.034 66.44 317.474 66.488 317.986 66.488C319.138 66.488 320.01 66.184 320.602 65.576C321.194 64.968 321.49 64.112 321.49 63.008V62.768C321.49 61.664 321.194 60.808 320.602 60.2C320.01 59.592 319.138 59.288 317.986 59.288C317.218 59.288 316.61 59.432 316.162 59.72C315.73 59.992 315.338 60.32 314.986 60.704L313.282 60.464L313.882 51.248H322.858V53.024ZM332.497 68.288C330.497 68.288 329.033 67.528 328.105 66.008C327.193 64.488 326.737 62.36 326.737 59.624C326.737 56.888 327.193 54.76 328.105 53.24C329.033 51.72 330.497 50.96 332.497 50.96C334.497 50.96 335.953 51.72 336.865 53.24C337.793 54.76 338.257 56.888 338.257 59.624C338.257 62.36 337.793 64.488 336.865 66.008C335.953 67.528 334.497 68.288 332.497 68.288ZM332.497 66.536C333.153 66.536 333.713 66.4 334.177 66.128C334.641 65.856 335.017 65.472 335.305 64.976C335.593 64.48 335.801 63.896 335.929 63.224C336.073 62.552 336.145 61.808 336.145 60.992V58.256C336.145 57.44 336.073 56.696 335.929 56.024C335.801 55.352 335.593 54.768 335.305 54.272C335.017 53.776 334.641 53.392 334.177 53.12C333.713 52.848 333.153 52.712 332.497 52.712C331.841 52.712 331.281 52.848 330.817 53.12C330.353 53.392 329.977 53.776 329.689 54.272C329.401 54.768 329.185 55.352 329.041 56.024C328.913 56.696 328.849 57.44 328.849 58.256V60.992C328.849 61.808 328.913 62.552 329.041 63.224C329.185 63.896 329.401 64.48 329.689 64.976C329.977 65.472 330.353 65.856 330.817 66.128C331.281 66.4 331.841 66.536 332.497 66.536ZM346.888 68.288C344.888 68.288 343.424 67.528 342.496 66.008C341.584 64.488 341.128 62.36 341.128 59.624C341.128 56.888 341.584 54.76 342.496 53.24C343.424 51.72 344.888 50.96 346.888 50.96C348.888 50.96 350.344 51.72 351.256 53.24C352.184 54.76 352.648 56.888 352.648 59.624C352.648 62.36 352.184 64.488 351.256 66.008C350.344 67.528 348.888 68.288 346.888 68.288ZM346.888 66.536C347.544 66.536 348.104 66.4 348.568 66.128C349.032 65.856 349.408 65.472 349.696 64.976C349.984 64.48 350.192 63.896 350.32 63.224C350.464 62.552 350.536 61.808 350.536 60.992V58.256C350.536 57.44 350.464 56.696 350.32 56.024C350.192 55.352 349.984 54.768 349.696 54.272C349.408 53.776 349.032 53.392 348.568 53.12C348.104 52.848 347.544 52.712 346.888 52.712C346.232 52.712 345.672 52.848 345.208 53.12C344.744 53.392 344.368 53.776 344.08 54.272C343.792 54.768 343.576 55.352 343.432 56.024C343.304 56.696 343.24 57.44 343.24 58.256V60.992C343.24 61.808 343.304 62.552 343.432 63.224C343.576 63.896 343.792 64.48 344.08 64.976C344.368 65.472 344.744 65.856 345.208 66.128C345.672 66.4 346.232 66.536 346.888 66.536ZM361.278 68.288C359.278 68.288 357.814 67.528 356.886 66.008C355.974 64.488 355.518 62.36 355.518 59.624C355.518 56.888 355.974 54.76 356.886 53.24C357.814 51.72 359.278 50.96 361.278 50.96C363.278 50.96 364.734 51.72 365.646 53.24C366.574 54.76 367.038 56.888 367.038 59.624C367.038 62.36 366.574 64.488 365.646 66.008C364.734 67.528 363.278 68.288 361.278 68.288ZM361.278 66.536C361.934 66.536 362.494 66.4 362.958 66.128C363.422 65.856 363.798 65.472 364.086 64.976C364.374 64.48 364.582 63.896 364.71 63.224C364.854 62.552 364.926 61.808 364.926 60.992V58.256C364.926 57.44 364.854 56.696 364.71 56.024C364.582 55.352 364.374 54.768 364.086 54.272C363.798 53.776 363.422 53.392 362.958 53.12C362.494 52.848 361.934 52.712 361.278 52.712C360.622 52.712 360.062 52.848 359.598 53.12C359.134 53.392 358.758 53.776 358.47 54.272C358.182 54.768 357.966 55.352 357.822 56.024C357.694 56.696 357.63 57.44 357.63 58.256V60.992C357.63 61.808 357.694 62.552 357.822 63.224C357.966 63.896 358.182 64.48 358.47 64.976C358.758 65.472 359.134 65.856 359.598 66.128C360.062 66.4 360.622 66.536 361.278 66.536ZM378.797 64.832V68H376.781V64.832H374.861V63.152H376.781V60.824H374.861V59.144H376.781V51.248H383.453C384.957 51.248 386.109 51.68 386.909 52.544C387.725 53.408 388.133 54.576 388.133 56.048C388.133 57.52 387.725 58.688 386.909 59.552C386.109 60.4 384.957 60.824 383.453 60.824H378.797V63.152H385.397V64.832H378.797ZM378.797 59.144H383.453C384.253 59.144 384.869 58.936 385.301 58.52C385.749 58.104 385.973 57.512 385.973 56.744V55.424C385.973 54.656 385.749 54.064 385.301 53.648C384.869 53.232 384.253 53.024 383.453 53.024H378.797V59.144Z" fill="black"/>
<path d="M93.8666 60V58.198H100.803V37.764H100.633L94.1046 43.578L92.9486 42.286L99.7146 36.268H102.843V58.198H109.371V60H93.8666ZM71.7683 68.712H76.4483C77.2043 68.712 77.7983 68.928 78.2303 69.36C78.6623 69.78 78.8783 70.35 78.8783 71.07C78.8783 72.234 78.2723 72.888 77.0603 73.032V73.104C77.7803 73.164 78.3143 73.392 78.6623 73.788C79.0223 74.172 79.2023 74.652 79.2023 75.228C79.2023 75.6 79.1423 75.954 79.0223 76.29C78.9143 76.626 78.7523 76.92 78.5363 77.172C78.3203 77.424 78.0563 77.628 77.7443 77.784C77.4323 77.928 77.0783 78 76.6823 78H71.7683V68.712ZM76.2503 76.812C76.6823 76.812 77.0243 76.698 77.2763 76.47C77.5283 76.242 77.6543 75.918 77.6543 75.498V75.084C77.6543 74.664 77.5283 74.34 77.2763 74.112C77.0243 73.884 76.6823 73.77 76.2503 73.77H73.2083V76.812H76.2503ZM76.0703 72.6C76.4663 72.6 76.7723 72.504 76.9883 72.312C77.2163 72.108 77.3303 71.82 77.3303 71.448V71.052C77.3303 70.68 77.2163 70.398 76.9883 70.206C76.7723 70.002 76.4663 69.9 76.0703 69.9H73.2083V72.6H76.0703ZM85.2974 78.216C84.6614 78.216 84.0854 78.102 83.5694 77.874C83.0654 77.646 82.6274 77.322 82.2554 76.902C81.8954 76.47 81.6134 75.96 81.4094 75.372C81.2174 74.772 81.1214 74.1 81.1214 73.356C81.1214 72.624 81.2174 71.958 81.4094 71.358C81.6134 70.758 81.8954 70.248 82.2554 69.828C82.6274 69.396 83.0654 69.066 83.5694 68.838C84.0854 68.61 84.6614 68.496 85.2974 68.496C85.9214 68.496 86.4794 68.61 86.9714 68.838C87.4634 69.066 87.8834 69.384 88.2314 69.792C88.5794 70.188 88.8434 70.662 89.0234 71.214C89.2154 71.766 89.3114 72.372 89.3114 73.032V73.716H82.6334V74.148C82.6334 74.544 82.6934 74.916 82.8134 75.264C82.9454 75.6 83.1254 75.894 83.3534 76.146C83.5934 76.398 83.8814 76.596 84.2174 76.74C84.5654 76.884 84.9554 76.956 85.3874 76.956C85.9754 76.956 86.4854 76.818 86.9174 76.542C87.3614 76.266 87.7034 75.87 87.9434 75.354L88.9694 76.092C88.6694 76.728 88.2014 77.244 87.5654 77.64C86.9294 78.024 86.1734 78.216 85.2974 78.216ZM85.2974 69.702C84.9014 69.702 84.5414 69.774 84.2174 69.918C83.8934 70.05 83.6114 70.242 83.3714 70.494C83.1434 70.746 82.9634 71.046 82.8314 71.394C82.6994 71.73 82.6334 72.102 82.6334 72.51V72.636H87.7634V72.438C87.7634 71.61 87.5354 70.95 87.0794 70.458C86.6354 69.954 86.0414 69.702 85.2974 69.702ZM91.6843 68.712H93.1243V70.224H93.1963C93.4363 69.636 93.7843 69.204 94.2403 68.928C94.7083 68.64 95.2663 68.496 95.9143 68.496C96.4903 68.496 97.0123 68.61 97.4803 68.838C97.9483 69.066 98.3443 69.39 98.6683 69.81C99.0043 70.23 99.2563 70.74 99.4243 71.34C99.6043 71.94 99.6943 72.612 99.6943 73.356C99.6943 74.1 99.6043 74.772 99.4243 75.372C99.2563 75.972 99.0043 76.482 98.6683 76.902C98.3443 77.322 97.9483 77.646 97.4803 77.874C97.0123 78.102 96.4903 78.216 95.9143 78.216C94.6543 78.216 93.7483 77.64 93.1963 76.488H93.1243V81.6H91.6843V68.712ZM95.5183 76.92C96.3343 76.92 96.9763 76.668 97.4443 76.164C97.9123 75.648 98.1463 74.976 98.1463 74.148V72.564C98.1463 71.736 97.9123 71.07 97.4443 70.566C96.9763 70.05 96.3343 69.792 95.5183 69.792C95.1943 69.792 94.8823 69.84 94.5823 69.936C94.2943 70.02 94.0423 70.14 93.8263 70.296C93.6103 70.452 93.4363 70.644 93.3043 70.872C93.1843 71.088 93.1243 71.322 93.1243 71.574V75.03C93.1243 75.33 93.1843 75.6 93.3043 75.84C93.4363 76.068 93.6103 76.266 93.8263 76.434C94.0423 76.59 94.2943 76.71 94.5823 76.794C94.8823 76.878 95.1943 76.92 95.5183 76.92ZM100.705 76.74H101.767C102.139 76.14 102.439 75.39 102.667 74.49C102.895 73.59 103.009 72.558 103.009 71.394V68.712H109.291V76.74H110.839V80.52H109.525V78H102.019V80.52H100.705V76.74ZM107.851 76.74V69.972H104.377V71.466C104.377 72.702 104.269 73.758 104.053 74.634C103.849 75.498 103.603 76.2 103.315 76.74H107.851ZM116.323 78.216C115.687 78.216 115.111 78.102 114.595 77.874C114.091 77.646 113.653 77.322 113.281 76.902C112.921 76.47 112.639 75.96 112.435 75.372C112.243 74.772 112.147 74.1 112.147 73.356C112.147 72.624 112.243 71.958 112.435 71.358C112.639 70.758 112.921 70.248 113.281 69.828C113.653 69.396 114.091 69.066 114.595 68.838C115.111 68.61 115.687 68.496 116.323 68.496C116.947 68.496 117.505 68.61 117.997 68.838C118.489 69.066 118.909 69.384 119.257 69.792C119.605 70.188 119.869 70.662 120.049 71.214C120.241 71.766 120.337 72.372 120.337 73.032V73.716H113.659V74.148C113.659 74.544 113.719 74.916 113.839 75.264C113.971 75.6 114.151 75.894 114.379 76.146C114.619 76.398 114.907 76.596 115.243 76.74C115.591 76.884 115.981 76.956 116.413 76.956C117.001 76.956 117.511 76.818 117.943 76.542C118.387 76.266 118.729 75.87 118.969 75.354L119.995 76.092C119.695 76.728 119.227 77.244 118.591 77.64C117.955 78.024 117.199 78.216 116.323 78.216ZM116.323 69.702C115.927 69.702 115.567 69.774 115.243 69.918C114.919 70.05 114.637 70.242 114.397 70.494C114.169 70.746 113.989 71.046 113.857 71.394C113.725 71.73 113.659 72.102 113.659 72.51V72.636H118.789V72.438C118.789 71.61 118.561 70.95 118.105 70.458C117.661 69.954 117.067 69.702 116.323 69.702ZM122.71 68.712H124.15V72.582H128.794V68.712H130.234V78H128.794V73.842H124.15V78H122.71V68.712Z" fill="black"/>
<path d="M216 58.45V56H239V58.45H216ZM216 68V65.55H239V68H216Z" fill="black"/>
<path d="M419 18.5V105" stroke="black" stroke-width="2"/>
</svg>
