<svg width="9" height="9" viewBox="0 0 9 9" fill="none" xmlns="http://www.w3.org/2000/svg">
<path d="M4.49879 2.99936C3.6725 2.99936 2.99818 3.67369 2.99818 4.5C2.99818 5.32631 3.6725 6.00064 4.49879 6.00064C5.32508 6.00064 5.9994 5.32631 5.9994 4.5C5.9994 3.67369 5.32508 2.99936 4.49879 2.99936ZM8.9995 4.5C8.9995 3.87858 9.00513 3.26279 8.97023 2.64249C8.93533 1.92201 8.77097 1.28258 8.24413 0.75572C7.71616 0.227738 7.07786 0.0645032 6.35739 0.0296046C5.73598 -0.00529397 5.1202 0.000334851 4.49992 0.000334851C3.87851 0.000334851 3.26273 -0.00529397 2.64245 0.0296046C1.92197 0.0645032 1.28255 0.228864 0.755706 0.75572C0.227734 1.2837 0.064502 1.92201 0.0296041 2.64249C-0.00529387 3.26391 0.000334845 3.87971 0.000334845 4.5C0.000334845 5.12029 -0.00529387 5.73721 0.0296041 6.35751C0.064502 7.07799 0.22886 7.71742 0.755706 8.24428C1.28368 8.77226 1.92197 8.9355 2.64245 8.9704C3.26385 9.00529 3.87963 8.99967 4.49992 8.99967C5.12132 8.99967 5.7371 9.00529 6.35739 8.9704C7.07786 8.9355 7.71728 8.77114 8.24413 8.24428C8.7721 7.7163 8.93533 7.07799 8.97023 6.35751C9.00625 5.73721 8.9995 5.12142 8.9995 4.5ZM4.49879 6.80894C3.22108 6.80894 2.1899 5.77774 2.1899 4.5C2.1899 3.22226 3.22108 2.19106 4.49879 2.19106C5.7765 2.19106 6.80768 3.22226 6.80768 4.5C6.80768 5.77774 5.7765 6.80894 4.49879 6.80894ZM6.90225 2.63574C6.60392 2.63574 6.36302 2.39483 6.36302 2.0965C6.36302 1.79817 6.60392 1.55726 6.90225 1.55726C7.20057 1.55726 7.44147 1.79817 7.44147 2.0965C7.44156 2.16734 7.42768 2.2375 7.40061 2.30296C7.37354 2.36843 7.33383 2.42791 7.28374 2.478C7.23365 2.52809 7.17417 2.56781 7.1087 2.59487C7.04324 2.62194 6.97308 2.63583 6.90225 2.63574Z" fill="black"/>
</svg>
