<svg width="15" height="13" viewBox="0 0 15 13" fill="none" xmlns="http://www.w3.org/2000/svg">
<path fill-rule="evenodd" clip-rule="evenodd" d="M12.1906 1.68512C11.2264 0.771627 9.71613 0.771627 8.75189 1.68512L7.13791 3.21414L5.52394 1.68512C4.5597 0.771628 3.04946 0.771629 2.08522 1.68512L1.78064 1.97367C0.739786 2.95974 0.739788 4.61737 1.78064 5.60344L7.13791 10.6787L12.4952 5.60343C13.536 4.61736 13.536 2.95974 12.4952 1.97367L12.1906 1.68512ZM8.06414 0.959165C9.41408 -0.319722 11.5284 -0.319721 12.8784 0.959166L13.1829 1.24772C14.6401 2.62821 14.6401 4.94889 13.1829 6.32939L7.13791 12.0562L1.0929 6.32939C-0.364296 4.94889 -0.3643 2.62822 1.09289 1.24772L1.39747 0.959167C2.74741 -0.31972 4.86175 -0.319722 6.21169 0.959166L7.13791 1.83664L8.06414 0.959165Z" fill="white"/>
</svg>
