<svg width="230" height="47" viewBox="0 0 230 47" fill="none" xmlns="http://www.w3.org/2000/svg">
<g clip-path="url(#clip0)">
<path d="M95.6985 46.8074L66.4395 3.87357V46.8074H63.8067L34.5478 3.87357V46.8074H31.915L0.0175781 0.0110044L2.89228 0.00550222L32.1512 42.9394V0.0275111L34.7784 0L64.0486 42.9394V0.0165067L66.6758 0.00550222L95.9404 42.9394V0.0110044H98.5732L130.471 46.8074H127.596L98.3313 3.87357V46.8074H95.6985Z" fill="black"/>
<path d="M142.689 23.8026H144.737L147.077 30.1522L149.406 23.8026H151.454L148.203 32.0559H145.952L142.689 23.8026Z" fill="black"/>
<path d="M164.556 30.6364H160.787L160.258 32.0559H158.284L161.547 23.8026H163.797L167.054 32.0559H165.091L164.556 30.6364ZM161.271 29.1123H164.084L162.672 25.3102L161.271 29.1123Z" fill="black"/>
<path d="M177.225 26.5152V32.0559H175.431V23.8026H177.276L181.163 29.1618V23.8026H182.958V32.0559H181.225L177.225 26.5152Z" fill="black"/>
<path d="M142.689 38.6531H144.737L147.077 44.9972L149.406 38.6531H151.454L148.203 46.9064H145.952L142.689 38.6531Z" fill="black"/>
<path d="M159.825 38.6531H165.794V40.1662H161.62V41.9599H165.71V43.4676H161.62V45.3878H165.794V46.912H159.825V38.6531Z" fill="black"/>
<path d="M178.024 43.9463H176.708V46.9065H174.913V38.6531H178.851C179.219 38.6274 179.588 38.6777 179.935 38.8009C180.282 38.9241 180.598 39.1173 180.864 39.368C181.129 39.6187 181.337 39.9213 181.475 40.256C181.613 40.5907 181.677 40.9501 181.664 41.3107C181.698 41.8664 181.532 42.4162 181.193 42.8639C180.855 43.3115 180.366 43.6285 179.813 43.7592L181.726 46.9065H179.661L178.024 43.9463ZM178.587 40.1607H176.696V42.4387H178.587C178.749 42.4543 178.913 42.4365 179.068 42.3864C179.223 42.3363 179.366 42.2549 179.487 42.1477C179.608 42.0404 179.705 41.9095 179.771 41.7635C179.837 41.6174 179.871 41.4594 179.871 41.2997C179.871 41.1399 179.837 40.982 179.771 40.8359C179.705 40.6899 179.608 40.559 179.487 40.4517C179.366 40.3444 179.223 40.2631 179.068 40.213C178.913 40.1629 178.749 40.1451 178.587 40.1607Z" fill="black"/>
<path d="M190.637 38.6531H193.967C196.611 38.6531 198.468 40.3038 198.468 42.7853C198.468 45.2668 196.634 46.9064 193.967 46.9064H190.637V38.6531ZM193.967 45.3603C194.318 45.3759 194.668 45.32 194.995 45.1962C195.322 45.0724 195.619 44.8835 195.868 44.6414C196.117 44.3993 196.311 44.1092 196.439 43.7897C196.567 43.4702 196.626 43.1281 196.611 42.7853C196.637 42.4392 196.587 42.0916 196.463 41.7663C196.339 41.441 196.145 41.1456 195.894 40.9002C195.644 40.6548 195.342 40.4652 195.009 40.3442C194.676 40.2232 194.321 40.1738 193.967 40.1992H192.414V45.3603H193.967Z" fill="black"/>
<path d="M207.3 38.6531H213.269V40.1662H209.094V41.9599H213.184V43.4676H209.094V45.3878H213.269V46.912H207.3V38.6531Z" fill="black"/>
<path d="M224.182 41.3602V46.9064H222.388V38.6531H224.233L228.143 44.0178V38.6531H229.943V46.9064H228.21L224.182 41.3602Z" fill="black"/>
</g>
<defs>
<clipPath id="clip0">
<rect width="230" height="47" fill="white"/>
</clipPath>
</defs>
</svg>
