<svg width="88" height="24" viewBox="0 0 88 24" fill="none" xmlns="http://www.w3.org/2000/svg">
<path d="M0 0H2.04773L4.388 6.34956L6.71701 0H8.76476L5.51313 8.25333H3.26288L0 0Z" fill="#1D1D1B"/>
<path d="M21.8668 6.83376H18.0977L17.5688 8.25333H15.5942L18.8571 0H21.1074L24.3646 8.25333H22.4013L21.8668 6.83376ZM18.5815 5.30964H21.3943L19.9823 1.50761L18.5815 5.30964Z" fill="#1D1D1B"/>
<path d="M34.5358 2.7126V8.25333H32.7412V0H34.5864L38.4738 5.35916V0H40.2683V8.25333H38.5356L34.5358 2.7126Z" fill="#1D1D1B"/>
<path d="M0 14.8503H2.04773L4.388 21.1944L6.71701 14.8503H8.76476L5.51313 23.1037H3.26288L0 14.8503Z" fill="#1D1D1B"/>
<path d="M17.1357 14.8503H23.1045V16.3635H18.9303V18.1572H23.0202V19.6648H18.9303V21.5851H23.1045V23.1092H17.1357V14.8503Z" fill="#1D1D1B"/>
<path d="M35.3346 20.1434H34.0182V23.1036H32.2236V14.8503H36.1616C36.5296 14.8246 36.899 14.8749 37.2458 14.9981C37.5925 15.1213 37.9089 15.3145 38.1743 15.5652C38.4396 15.8159 38.648 16.1185 38.7859 16.4532C38.9237 16.7879 38.988 17.1473 38.9744 17.5079C39.0088 18.0636 38.8422 18.6134 38.5038 19.061C38.1654 19.5087 37.6768 19.8256 37.1235 19.9564L39.0363 23.1036H36.9716L35.3346 20.1434ZM35.8972 16.3579H34.0069V18.6358H35.8972C36.0597 18.6515 36.2238 18.6337 36.3789 18.5835C36.5339 18.5334 36.6766 18.4521 36.7976 18.3448C36.9186 18.2375 37.0153 18.1067 37.0815 17.9606C37.1477 17.8146 37.1819 17.6566 37.1819 17.4969C37.1819 17.3371 37.1477 17.1791 37.0815 17.0331C37.0153 16.8871 36.9186 16.7562 36.7976 16.6489C36.6766 16.5416 36.5339 16.4603 36.3789 16.4102C36.2238 16.3601 36.0597 16.3423 35.8972 16.3579Z" fill="#1D1D1B"/>
<path d="M47.9473 14.8503H51.2777C53.9217 14.8503 55.7782 16.501 55.7782 18.9825C55.7782 21.464 53.9442 23.1037 51.2777 23.1037H47.9473V14.8503ZM51.2777 21.5576C51.6282 21.5731 51.9781 21.5172 52.3054 21.3934C52.6326 21.2697 52.9299 21.0807 53.1786 20.8386C53.4272 20.5965 53.6216 20.3065 53.7496 19.9869C53.8775 19.6674 53.9361 19.3254 53.9217 18.9825C53.9477 18.6364 53.8972 18.2888 53.7735 17.9636C53.6498 17.6383 53.4559 17.3429 53.205 17.0974C52.9541 16.852 52.6521 16.6624 52.3195 16.5414C51.9869 16.4205 51.6316 16.371 51.2777 16.3965H49.725V21.5576H51.2777Z" fill="#1D1D1B"/>
<path d="M64.6104 14.8503H70.5791V16.3635H66.4049V18.1572H70.4948V19.6648H66.4049V21.5851H70.5791V23.1092H64.6104V14.8503Z" fill="#1D1D1B"/>
<path d="M81.4928 17.5574V23.1037H79.6982V14.8503H81.5435L85.4533 20.215V14.8503H87.2535V23.1037H85.5208L81.4928 17.5574Z" fill="#1D1D1B"/>
</svg>
