<svg width="275" height="56" viewBox="0 0 275 56" fill="none" xmlns="http://www.w3.org/2000/svg">
<g clip-path="url(#clip0)">
<path d="M114.423 55.7705L79.439 4.61531V55.7705H76.2911L41.3076 4.61531V55.7705H38.1597L0.0214844 0.0131117L3.45863 0.00655584L38.4422 51.1618V0.0327792L41.5833 0L76.5803 51.1618V0.0196675L79.7215 0.00655584L114.712 51.1618V0.0131117H117.86L155.998 55.7705H152.561L117.57 4.61531V55.7705H114.423Z" fill="white"/>
<path d="M170.606 28.3604H173.055L175.853 35.9258L178.638 28.3604H181.086L177.198 38.1941H174.508L170.606 28.3604Z" fill="white"/>
<path d="M196.752 36.5027H192.245L191.613 38.1941H189.252L193.153 28.3604H195.844L199.738 38.1941H197.391L196.752 36.5027ZM192.824 34.6867H196.187L194.498 30.1567L192.824 34.6867Z" fill="white"/>
<path d="M211.9 31.5924V38.1941H209.754V28.3604H211.96L216.608 34.7457V28.3604H218.754V38.1941H216.682L211.9 31.5924Z" fill="white"/>
<path d="M170.606 46.0547H173.055L175.853 53.6136L178.638 46.0547H181.086L177.198 55.8884H174.508L170.606 46.0547Z" fill="white"/>
<path d="M191.096 46.0547H198.232V47.8575H193.241V49.9948H198.131V51.7911H193.241V54.079H198.232V55.895H191.096V46.0547Z" fill="white"/>
<path d="M212.854 52.3614H211.28V55.8884H209.135V46.0547H213.843C214.283 46.024 214.725 46.084 215.14 46.2308C215.554 46.3775 215.932 46.6078 216.25 46.9065C216.567 47.2052 216.816 47.5657 216.981 47.9645C217.146 48.3633 217.223 48.7915 217.206 49.2211C217.247 49.8832 217.048 50.5383 216.644 51.0717C216.239 51.6051 215.655 51.9827 214.993 52.1385L217.28 55.8884H214.812L212.854 52.3614ZM213.527 47.851H211.267V50.5651H213.527C213.721 50.5837 213.918 50.5625 214.103 50.5028C214.288 50.4431 214.459 50.3462 214.604 50.2184C214.748 50.0905 214.864 49.9346 214.943 49.7606C215.022 49.5866 215.063 49.3984 215.063 49.208C215.063 49.0177 215.022 48.8295 214.943 48.6555C214.864 48.4815 214.748 48.3255 214.604 48.1977C214.459 48.0699 214.288 47.973 214.103 47.9133C213.918 47.8536 213.721 47.8323 213.527 47.851V47.851Z" fill="white"/>
<path d="M227.936 46.0547H231.918C235.079 46.0547 237.299 48.0214 237.299 50.9781C237.299 53.9348 235.106 55.8884 231.918 55.8884H227.936V46.0547ZM231.918 54.0463C232.337 54.0648 232.755 53.9982 233.146 53.8507C233.538 53.7033 233.893 53.4781 234.19 53.1897C234.488 52.9012 234.72 52.5556 234.873 52.1749C235.026 51.7942 235.096 51.3866 235.079 50.9781C235.11 50.5657 235.05 50.1516 234.902 49.764C234.754 49.3765 234.522 49.0245 234.222 48.7321C233.922 48.4397 233.561 48.2137 233.163 48.0696C232.766 47.9255 232.341 47.8666 231.918 47.8969H230.061V54.0463H231.918Z" fill="white"/>
<path d="M247.858 46.0547H254.995V47.8575H250.004V49.9948H254.894V51.7911H250.004V54.079H254.995V55.895H247.858V46.0547Z" fill="white"/>
<path d="M268.044 49.2802V55.8884H265.898V46.0547H268.105L272.779 52.4466V46.0547H274.932V55.8884H272.86L268.044 49.2802Z" fill="white"/>
</g>
<defs>
<clipPath id="clip0">
<rect width="275" height="56" fill="white"/>
</clipPath>
</defs>
</svg>
