<svg width="18" height="11" viewBox="0 0 18 11" fill="none" xmlns="http://www.w3.org/2000/svg">
<path d="M17.5873 0.744917C17.7131 0.315157 17.5873 0 16.9926 0H15.0227C14.5215 0 14.2924 0.272644 14.1667 0.572089C14.1667 0.572089 13.1651 3.08503 11.7458 4.71442C11.2877 5.18854 11.0784 5.33826 10.8287 5.33826C10.7038 5.33826 10.5224 5.18854 10.5224 4.75878V0.744917C10.5224 0.229205 10.3778 0 9.96005 0H6.8646C6.55201 0 6.36337 0.238447 6.36337 0.465804C6.36337 0.953789 7.073 1.06654 7.14576 2.44177V5.42514C7.14576 6.07856 7.03168 6.19778 6.78017 6.19778C6.11275 6.19778 4.48867 3.6756 3.52482 0.788355C3.33709 0.227357 3.14755 0.000924588 2.64452 0.000924588H0.675502C0.112284 0.000924588 0 0.273568 0 0.573013C0 1.11091 0.667417 3.77264 3.10892 7.29298C4.7366 9.69686 7.02809 11 9.11568 11C10.367 11 10.5215 10.7107 10.5215 10.2116V8.39464C10.5215 7.81608 10.6409 7.69963 11.0371 7.69963C11.3281 7.69963 11.8294 7.8512 12.998 9.00924C14.3328 10.3826 14.5538 10.9991 15.3039 10.9991H17.2729C17.8352 10.9991 18.1164 10.7098 17.9547 10.1386C17.7777 9.57024 17.14 8.74307 16.2938 7.76433C15.8339 7.2061 15.1467 6.60536 14.9374 6.30499C14.6454 5.91775 14.7299 5.74677 14.9374 5.40296C14.9383 5.40388 17.3376 1.92699 17.5873 0.744917Z" fill="#3E3E3E"/>
</svg>
