<svg width="12" height="7" viewBox="0 0 12 7" fill="none" xmlns="http://www.w3.org/2000/svg">
<path d="M11.7249 0.474038C11.8087 0.200555 11.7249 0 11.3284 0H10.0151C9.68099 0 9.52828 0.173501 9.44445 0.364057C9.44445 0.364057 8.77673 1.9632 7.83055 3.00008C7.52514 3.3018 7.3856 3.39708 7.21912 3.39708C7.13588 3.39708 7.01492 3.3018 7.01492 3.02831V0.474038C7.01492 0.145858 6.9185 0 6.64004 0H4.5764C4.368 0 4.24225 0.151739 4.24225 0.296421C4.24225 0.606957 4.71534 0.67871 4.76384 1.55386V3.45236C4.76384 3.86817 4.68779 3.94404 4.52011 3.94404C4.07517 3.94404 2.99245 2.33902 2.34988 0.50168C2.22472 0.144682 2.09837 0.000588374 1.76301 0.000588374H0.450334C0.0748562 0.000588374 0 0.174089 0 0.364645C0 0.70694 0.444945 2.40077 2.07262 4.64098C3.15773 6.17073 4.68539 7 6.07712 7C6.91131 7 7.01432 6.81591 7.01432 6.49832V5.34204C7.01432 4.97387 7.09396 4.89977 7.35806 4.89977C7.55208 4.89977 7.88624 4.99622 8.66534 5.73315C9.55523 6.60712 9.70255 6.99941 10.2026 6.99941H11.5153C11.8901 6.99941 12.0776 6.81532 11.9698 6.45186C11.8518 6.09015 11.4266 5.56377 10.8625 4.94093C10.5559 4.5857 10.0978 4.20341 9.95826 4.01227C9.76363 3.76584 9.81992 3.65703 9.95826 3.43825C9.95886 3.43883 11.5584 1.22626 11.7249 0.474038Z" fill="black"/>
</svg>
