<svg width="16" height="16" viewBox="0 0 16 16" fill="none" xmlns="http://www.w3.org/2000/svg">
<path d="M2.96873 0C2.18232 0.00306448 1.42899 0.316824 0.872906 0.872906C0.316824 1.42899 0.00306448 2.18232 0 2.96873V13.0313C0.00306448 13.8177 0.316824 14.571 0.872906 15.1271C1.42899 15.6832 2.18232 15.9969 2.96873 16H13.0313C13.8177 15.9969 14.571 15.6832 15.1271 15.1271C15.6832 14.571 15.9969 13.8177 16 13.0313V2.96873C15.9969 2.18232 15.6832 1.42899 15.1271 0.872906C14.571 0.316824 13.8177 0.00306448 13.0313 0H2.96873ZM2.96873 1.45455H13.0313C13.8749 1.45455 14.5455 2.12509 14.5455 2.96873V13.0313C14.5455 13.8749 13.8749 14.5455 13.0313 14.5455H2.96873C2.76953 14.5467 2.57207 14.5084 2.38779 14.4328C2.20352 14.3571 2.0361 14.2456 1.89524 14.1048C1.75438 13.9639 1.6429 13.7965 1.56725 13.6122C1.4916 13.4279 1.45329 13.2305 1.45455 13.0313V2.96873C1.45455 2.12509 2.12509 1.45455 2.96873 1.45455ZM7.79564 5.25818C7.26109 5.25309 6.80655 5.25818 6.55127 5.38327C6.38036 5.46618 6.25018 5.65309 6.32945 5.66182C6.42909 5.67636 6.65309 5.72436 6.77309 5.88655C6.92582 6.09382 6.92073 6.56291 6.92073 6.56291C6.92073 6.56291 7.00582 7.85236 6.71273 8.01455C6.51127 8.12509 6.23564 7.90036 5.63927 6.87491C5.33527 6.34691 5.10545 5.76436 5.10545 5.76436C5.10545 5.76436 5.06182 5.656 4.98327 5.59927C4.88655 5.52873 4.75273 5.50545 4.75273 5.50545L3.32945 5.51418C3.32945 5.51418 3.11636 5.52291 3.04 5.61382C2.96873 5.69891 3.03418 5.86618 3.03418 5.86618C3.03418 5.86618 4.14764 8.47127 5.40873 9.784C6.56509 10.9891 7.87782 10.9091 7.87782 10.9091H8.47418C8.47418 10.9091 8.65309 10.8895 8.744 10.7927C8.82982 10.7018 8.82691 10.5309 8.82691 10.5309C8.82691 10.5309 8.81527 9.73309 9.18473 9.61382C9.55127 9.49964 10.0167 10.3862 10.5142 10.7273C10.8924 10.9855 11.1789 10.9287 11.1789 10.9287L12.5091 10.9091C12.5091 10.9091 13.2022 10.8662 12.8727 10.3178C12.8473 10.2756 12.6822 9.91491 11.8873 9.176C11.0516 8.40364 11.1629 8.52873 12.168 7.19055C12.7789 6.37527 13.0233 5.87782 12.9462 5.66182C12.8735 5.46036 12.424 5.51418 12.424 5.51418L10.9265 5.52291C10.9265 5.52291 10.816 5.50836 10.7338 5.55709C10.6773 5.59906 10.6323 5.65458 10.6029 5.71855C10.6029 5.71855 10.3644 6.34909 10.0487 6.88655C9.384 8.01673 9.11418 8.07927 9.00655 8.00873C8.75346 7.84364 8.816 7.34909 8.816 7C8.816 5.90036 8.98327 5.44582 8.49236 5.32727C8.33018 5.28727 8.21091 5.26182 7.79636 5.25818H7.79564Z" fill="black"/>
</svg>
