<svg width="230" height="33" viewBox="0 0 230 33" fill="none" xmlns="http://www.w3.org/2000/svg">
<path d="M65.9607 32.9921L45.7914 2.73428V32.9921H43.9764L23.7993 2.73428V32.9921H21.9843L0 0.00785714H1.98L22.1571 30.2657V0.0157143L23.9643 0L44.1414 30.2657V0.00785714H45.9564L66.1257 30.2657V0.00785714H67.9407L89.9328 32.9921H87.945L67.7757 2.73428V32.9921H65.9607Z" fill="#1D1D1B"/>
<path d="M107.164 0H110L113.269 9.06714L116.545 0H119.429L114.887 11.7857H111.744L107.164 0Z" fill="#1D1D1B"/>
<path d="M137.704 9.75857H132.44L131.693 11.7857H128.943L133.501 0H136.643L141.185 11.7857H138.451L137.704 9.75857ZM133.108 7.59H137.036L135.096 2.17643L133.108 7.59Z" fill="#1D1D1B"/>
<path d="M155.383 3.87357V11.7857H152.869V0H155.454L160.954 7.62928V0H163.429V11.7857H161.009L155.383 3.87357Z" fill="#1D1D1B"/>
<path d="M107.164 21.2143H110L113.269 30.2814L116.545 21.2143H119.429L114.887 33H111.744L107.164 21.2143Z" fill="#1D1D1B"/>
<path d="M131.088 21.2143H139.433V23.375H133.571V25.9285H139.276V28.0814H133.571V30.8235H139.401V33H131.088V21.2143Z" fill="#1D1D1B"/>
<path d="M156.514 28.7729H154.675V33H152.169V21.2143H157.669C158.184 21.1774 158.7 21.2496 159.185 21.4259C159.67 21.6023 160.112 21.8789 160.483 22.2378C160.854 22.5967 161.145 23.0297 161.337 23.5086C161.529 23.9875 161.618 24.5016 161.598 25.0172C161.648 25.8099 161.417 26.595 160.945 27.2344C160.474 27.8738 159.792 28.3267 159.02 28.5136L161.708 33H158.832L156.514 28.7729ZM157.3 23.3672H154.668V26.6122H157.3C157.522 26.6276 157.746 26.5972 157.956 26.5227C158.166 26.4482 158.359 26.3312 158.522 26.179C158.685 26.0268 158.815 25.8427 158.904 25.6381C158.993 25.4335 159.039 25.2128 159.039 24.9897C159.039 24.7665 158.993 24.5458 158.904 24.3412C158.815 24.1366 158.685 23.9525 158.522 23.8003C158.359 23.6481 158.166 23.5312 157.956 23.4566C157.746 23.3821 157.522 23.3517 157.3 23.3672Z" fill="#1D1D1B"/>
<path d="M174.13 21.2143H178.773C182.466 21.2143 185.059 23.5714 185.059 27.115C185.059 30.6585 182.498 33 178.773 33H174.13V21.2143ZM178.773 30.7921C179.263 30.8155 179.753 30.7365 180.21 30.5602C180.668 30.3839 181.084 30.1142 181.431 29.7682C181.779 29.4222 182.05 29.0075 182.228 28.5507C182.407 28.0939 182.488 27.6049 182.466 27.115C182.503 26.6207 182.432 26.1244 182.259 25.6599C182.087 25.1954 181.816 24.7736 181.465 24.4231C181.115 24.0727 180.693 23.8019 180.229 23.6291C179.764 23.4564 179.268 23.3858 178.773 23.4221H176.636V30.7921H178.773Z" fill="#1D1D1B"/>
<path d="M197.395 21.2143H205.739V23.375H199.909V25.9285H205.614V28.0814H199.909V30.8235H205.739V33H197.395V21.2143Z" fill="#1D1D1B"/>
<path d="M220.982 25.08V33H218.476V21.2143H221.053L226.553 28.8514V21.2143H229.059V33H226.6L220.982 25.08Z" fill="#1D1D1B"/>
</svg>
