<svg width="15" height="15" viewBox="0 0 15 15" fill="none" xmlns="http://www.w3.org/2000/svg">
<g clip-path="url(#clip0)">
<path d="M9.97709 8.5584C9.97709 8.37126 9.8935 8.26871 9.76744 8.19552C9.6391 8.12496 9.48426 8.11531 9.27233 8.11531H8.3328V9.76319H8.74433V9.1632H9.18463C9.32942 9.1632 9.42031 9.17723 9.47467 9.23639C9.5482 9.31178 9.53907 9.45772 9.53907 9.55852V9.76187H9.93872V9.43756C9.93872 9.29161 9.92959 9.21842 9.87478 9.13603C9.82099 9.07422 9.75121 9.02706 9.67244 8.99929L9.68386 8.99447C9.79576 8.95371 9.97663 8.82092 9.97663 8.5584H9.97709ZM9.44635 8.7955L9.42945 8.79331C9.37464 8.8253 9.3107 8.82793 9.22711 8.82793H8.7352V8.46023H9.23716C9.3107 8.46023 9.38195 8.46023 9.4395 8.49003C9.46816 8.50344 9.49202 8.52473 9.50804 8.55118C9.52406 8.57764 9.53152 8.60807 9.52948 8.6386C9.52948 8.70916 9.5007 8.76351 9.44863 8.79594L9.44635 8.7955ZM12.5842 9.40995H11.7945V9.76187H12.5892C13.0003 9.76187 13.2287 9.59928 13.2287 9.24603C13.2287 9.08125 13.1885 8.98308 13.1149 8.90594C13.0222 8.82837 12.8742 8.79156 12.6705 8.78498L12.4417 8.77578C12.3777 8.77578 12.3325 8.77578 12.285 8.75781C12.2579 8.74967 12.2343 8.73321 12.2179 8.71096C12.2015 8.68871 12.1931 8.6619 12.1941 8.63466C12.1941 8.58207 12.2037 8.53868 12.2489 8.5137C12.2997 8.48651 12.3576 8.47375 12.4156 8.47688H13.1624V8.12583H12.3417C11.9137 8.12583 11.7589 8.38134 11.7589 8.61669C11.7589 9.14392 12.2302 9.11631 12.6157 9.12551C12.6774 9.12551 12.7249 9.13428 12.7509 9.15926C12.7797 9.1781 12.8007 9.22106 12.8007 9.26444C12.8007 9.31002 12.7792 9.35341 12.7532 9.36963C12.718 9.40118 12.6632 9.41038 12.5846 9.41038L12.5842 9.40995ZM0.223294 0.156006V6.05679L0.716122 4.95894H1.78171L1.91919 5.23066V4.95894H3.16336L3.43695 5.55454L3.70369 4.96376H7.66459C7.84317 4.96376 8.00441 4.99751 8.12362 5.10269V4.9677H9.21295V5.10269C9.39793 5.00233 9.62905 4.9677 9.89305 4.9677H11.4793L11.6273 5.23943V4.9677H12.7952L12.9491 5.23943V4.96551H14.0819V7.27385H12.9327L12.7139 6.92192V7.26421H11.2793L11.1244 6.8965H10.7677L10.6037 7.25456H9.8661C9.57332 7.25456 9.35454 7.1954 9.20702 7.11563V7.25456H7.44626V6.73917C7.44626 6.66861 7.42982 6.66861 7.3846 6.65896H7.3202V7.26377H3.91608V6.98547L3.78773 7.26377H3.07886L2.95509 6.98547V7.25676H1.58257L1.42773 6.89168H1.0733L0.919374 7.25676H0.221924V14.18H14.7067V10.0257C14.5427 10.105 14.3335 10.1305 14.1143 10.1305H13.0656V9.98188C12.9373 10.0779 12.7185 10.1305 12.5088 10.1305H9.18052V9.60585C9.18052 9.53529 9.16819 9.53529 9.10699 9.53529H9.06177V10.1331H7.96512V9.51031C7.78425 9.59051 7.57232 9.59665 7.39876 9.59051H7.27041V10.1248H5.94357L5.61289 9.76363L5.2653 10.1156H3.10992V7.81905H5.30824L5.62431 8.17097L5.9623 7.81905H7.42982C7.6011 7.81905 7.87926 7.83789 8.00303 7.95184V7.81028H9.32805C9.45183 7.81028 9.72085 7.83789 9.8798 7.9422V7.80327H11.8662V7.9422C11.9662 7.84622 12.1781 7.80327 12.3563 7.80327H13.5073V7.9422C13.6265 7.85586 13.7905 7.80327 14.0188 7.80327H14.735V0.156444L0.223294 0.156006ZM13.1072 8.89367C13.1094 8.89849 13.1094 8.90287 13.1122 8.90551C13.1195 8.90945 13.1286 8.90945 13.1337 8.91646L13.1076 8.89586L13.1072 8.89367ZM14.7345 7.80064H14.7752V8.12496H14.7345V7.80064ZM14.7556 8.93925V8.93443C14.7391 8.92084 14.7295 8.9077 14.7103 8.89367C14.6204 8.8047 14.4724 8.76789 14.2463 8.76351L14.0252 8.75693C13.954 8.75693 13.9087 8.75211 13.8612 8.73896C13.8342 8.73076 13.8106 8.71428 13.7942 8.69205C13.7778 8.66981 13.7694 8.64304 13.7704 8.61581C13.7704 8.56322 13.7891 8.52159 13.8252 8.4966C13.8704 8.47162 13.9151 8.46724 13.9891 8.46724H14.7341V8.12496H13.954C13.5324 8.12496 13.3689 8.38046 13.3689 8.61581C13.3689 9.14041 13.8443 9.11543 14.2276 9.12464C14.292 9.12464 14.3372 9.13121 14.3632 9.15838C14.392 9.17723 14.4107 9.22018 14.4107 9.26357C14.4104 9.28392 14.4053 9.30394 14.3958 9.32214C14.3863 9.34035 14.3727 9.35628 14.3559 9.36875C14.3271 9.4003 14.2723 9.40951 14.1919 9.40951H13.4063V9.76319H14.1896C14.4459 9.76319 14.6368 9.69482 14.7391 9.55326H14.7556C14.8104 9.47306 14.8391 9.37751 14.8391 9.24779C14.8391 9.10579 14.8104 9.01945 14.7556 8.93925ZM11.5492 8.45804V8.11794H10.1881V9.77283H11.5492V9.43054H10.5923V9.09966H11.5255V8.75737H10.5923V8.46067L11.5492 8.45804ZM8.45201 5.28939H8.86811V6.93551H8.45201V5.28939ZM8.21633 5.73247L8.21131 5.7373C8.21131 5.55191 8.13275 5.44497 8.0044 5.37222C7.87332 5.29903 7.7194 5.29202 7.51249 5.29202H6.57525V6.93989H6.98632V6.33509H7.42434C7.56913 6.33509 7.6623 6.35306 7.72168 6.40565C7.79613 6.48585 7.78608 6.62697 7.78608 6.72514V6.93332H8.19761V6.61119C8.19761 6.46525 8.18802 6.39206 8.13047 6.30748C8.07692 6.24657 8.00829 6.19955 7.93087 6.17074C8.01885 6.13342 8.09325 6.07181 8.14458 5.99375C8.19591 5.91569 8.22184 5.82473 8.21908 5.73247H8.21633ZM7.69564 5.96344H7.68834C7.63124 5.99499 7.56913 5.99719 7.486 5.99719H6.98404V5.63211H7.486C7.55953 5.63211 7.63079 5.6343 7.6856 5.66191C7.74041 5.6847 7.77832 5.7373 7.77832 5.80786C7.77832 5.87842 7.74954 5.93583 7.69564 5.96344ZM9.91954 5.63211H10.3027V5.28282H9.90995C9.62905 5.28282 9.42214 5.34461 9.28923 5.47521C9.11567 5.65052 9.06999 5.87885 9.06999 6.1256C9.06999 6.42493 9.14353 6.61163 9.28923 6.751C9.42945 6.88993 9.68157 6.93376 9.87889 6.93376H10.3553L10.5101 6.56605H11.3565L11.5159 6.93376H12.3435V5.70092L13.1195 6.93376H13.7V5.28983H13.2812V6.43808L12.5632 5.29202H11.942V6.81674L11.2519 5.26485H10.6403L10.0671 6.56386H9.88391C9.77749 6.56386 9.66285 6.54589 9.5989 6.48366C9.52263 6.39732 9.487 6.27373 9.487 6.09799C9.487 5.93145 9.5345 5.79865 9.60347 5.73028C9.68431 5.65008 9.77018 5.63211 9.91771 5.63211H9.91954ZM10.9353 5.57076L11.2162 6.22333V6.22552H10.6499L10.9353 5.57076ZM1.67209 6.56561L1.82693 6.93332H2.65957V5.64614L3.25197 6.93332H3.60641L4.19835 5.64614L4.20794 6.93332H4.6286V5.29202H3.94851L3.45842 6.40346L2.92357 5.28983H2.25992V6.84654L1.56521 5.28983H0.958654L0.231059 6.93376H0.668164L0.825284 6.56868H1.67255L1.67209 6.56561ZM1.25325 5.57076L1.53415 6.22333L1.53187 6.22552H0.975097L1.25325 5.57076ZM7.44306 8.11531H6.13997L5.62111 8.65394L5.11915 8.11531H3.48034V9.76319H5.09539L5.61608 9.21799L6.1185 9.76143H6.91004V9.21317H7.4216C7.78562 9.21317 8.13275 9.11719 8.13275 8.66095L8.13047 8.65876C8.13047 8.20253 7.7669 8.11531 7.44306 8.11531ZM4.89534 9.41915H3.88913V9.09264H4.78298V8.75737H3.88913V8.46067H4.91178L5.35939 8.93969L4.89306 9.42134L4.89534 9.41915ZM6.50308 9.6133L5.87506 8.94188L6.50308 8.29632V9.6133ZM7.44763 8.87789H6.91004V8.4576H7.44763C7.59516 8.4576 7.70478 8.51501 7.70478 8.65876C7.70478 8.80251 7.6148 8.87789 7.44763 8.87789ZM6.29435 5.63211V5.28983H4.93097V6.93595H6.29435V6.59585H5.33747V6.26672H6.26786V5.92882H5.33747V5.63211H6.29435Z" fill="black"/>
</g>
<defs>
<clipPath id="clip0">
<rect width="14.6158" height="14.0244" fill="white" transform="translate(0.225098 0.156006)"/>
</clipPath>
</defs>
</svg>
