<svg width="21" height="16" viewBox="0 0 21 16" fill="none" xmlns="http://www.w3.org/2000/svg">
<g clip-path="url(#clip0)">
<path d="M4.08892 15.3795V14.3669C4.08892 13.9786 3.84474 13.7255 3.4262 13.7255C3.21697 13.7255 2.99027 13.793 2.83331 14.0124C2.7113 13.8268 2.53694 13.7255 2.27537 13.7255C2.10093 13.7255 1.92665 13.7761 1.78709 13.9618V13.7593H1.4209V15.3795H1.78709V14.4849C1.78709 14.1981 1.94405 14.063 2.18823 14.063C2.43225 14.063 2.55442 14.2149 2.55442 14.4849V15.3795H2.92061V14.4849C2.92061 14.1981 3.09488 14.063 3.32159 14.063C3.56577 14.063 3.68778 14.2149 3.68778 14.4849V15.3795H4.08892ZM9.51193 13.7593H8.91912V13.2698H8.55293V13.7593H8.22161V14.0799H8.55285V14.8225C8.55285 15.1939 8.70981 15.4132 9.12835 15.4132C9.28531 15.4132 9.45959 15.3626 9.58175 15.2951L9.47706 14.9913C9.37245 15.0588 9.25044 15.0757 9.16322 15.0757C8.98886 15.0757 8.91912 14.9745 8.91912 14.8056V14.0799H9.51193V13.7593ZM12.6159 13.7254C12.4067 13.7254 12.2672 13.8268 12.18 13.9618V13.7593H11.8138V15.3795H12.18V14.4681C12.18 14.1981 12.302 14.0462 12.5287 14.0462C12.5984 14.0462 12.6856 14.0631 12.7554 14.0799L12.86 13.7424C12.7902 13.7255 12.6856 13.7255 12.6159 13.7255V13.7254ZM7.92516 13.8943C7.75073 13.7761 7.50663 13.7255 7.24505 13.7255C6.8266 13.7255 6.54763 13.928 6.54763 14.2487C6.54763 14.5188 6.75686 14.6706 7.12304 14.7213L7.2974 14.7382C7.48923 14.7719 7.59385 14.8225 7.59385 14.9069C7.59385 15.025 7.45436 15.1095 7.21018 15.1095C6.96608 15.1095 6.77425 15.025 6.65216 14.9407L6.4778 15.2107C6.66964 15.3457 6.93121 15.4132 7.19271 15.4132C7.68099 15.4132 7.96004 15.1939 7.96004 14.89C7.96004 14.6031 7.73333 14.4512 7.38454 14.4006L7.21018 14.3837C7.05322 14.3668 6.93121 14.3331 6.93121 14.2319C6.93121 14.1137 7.05322 14.0462 7.24505 14.0462C7.45436 14.0462 7.66359 14.1305 7.7682 14.1812L7.92516 13.8943ZM17.6554 13.7255C17.4461 13.7255 17.3066 13.8268 17.2194 13.9618V13.7593H16.8532V15.3795H17.2194V14.4681C17.2194 14.1981 17.3415 14.0462 17.5681 14.0462C17.6379 14.0462 17.7251 14.0631 17.7949 14.0799L17.8995 13.7424C17.8298 13.7255 17.7251 13.7255 17.6554 13.7255ZM12.9821 14.5694C12.9821 15.0588 13.3308 15.4132 13.8714 15.4132C14.1155 15.4132 14.2899 15.3626 14.4642 15.2276L14.2899 14.9407C14.1504 15.042 14.0109 15.0925 13.8539 15.0925C13.5575 15.0925 13.3483 14.89 13.3483 14.5694C13.3483 14.2656 13.5575 14.063 13.8539 14.0462C14.0109 14.0462 14.1504 14.0968 14.2899 14.1981L14.4642 13.9112C14.2899 13.7761 14.1155 13.7255 13.8714 13.7255C13.3308 13.7255 12.9821 14.0799 12.9821 14.5694ZM16.365 14.5694V13.7593H15.9988V13.9618C15.8767 13.8099 15.7024 13.7255 15.4757 13.7255C15.0049 13.7255 14.6387 14.0799 14.6387 14.5694C14.6387 15.0588 15.0049 15.4132 15.4757 15.4132C15.7198 15.4132 15.8942 15.3289 15.9988 15.177V15.3795H16.365V14.5694ZM15.0222 14.5694C15.0222 14.2824 15.2141 14.0462 15.5279 14.0462C15.8244 14.0462 16.0337 14.2656 16.0337 14.5694C16.0337 14.8563 15.8244 15.0925 15.5279 15.0925C15.2141 15.0756 15.0222 14.8563 15.0222 14.5694ZM10.6455 13.7255C10.1572 13.7255 9.80838 14.063 9.80838 14.5694C9.80838 15.0757 10.1571 15.4132 10.6628 15.4132C10.9069 15.4132 11.1511 15.3457 11.343 15.1939L11.1685 14.9407C11.029 15.042 10.8547 15.1095 10.6803 15.1095C10.4536 15.1095 10.2269 15.0082 10.1746 14.7212H11.4127V14.5863C11.4302 14.063 11.1163 13.7255 10.6454 13.7255H10.6455ZM10.6455 14.0293C10.8721 14.0293 11.0291 14.1644 11.0639 14.4175H10.192C10.2269 14.1981 10.3839 14.0293 10.6455 14.0293ZM19.7304 14.5694V13.1179H19.3642V13.9618C19.2422 13.8099 19.0678 13.7255 18.8411 13.7255C18.3703 13.7255 18.0041 14.0799 18.0041 14.5694C18.0041 15.0588 18.3703 15.4132 18.8411 15.4132C19.0853 15.4132 19.2596 15.3289 19.3642 15.177V15.3795H19.7304V14.5694ZM18.3878 14.5694C18.3878 14.2824 18.5795 14.0462 18.8934 14.0462C19.1899 14.0462 19.3991 14.2656 19.3991 14.5694C19.3991 14.8563 19.1899 15.0925 18.8934 15.0925C18.5795 15.0756 18.3878 14.8563 18.3878 14.5694ZM6.14649 14.5694V13.7593H5.7803V13.9618C5.65821 13.8099 5.48385 13.7255 5.25715 13.7255C4.78634 13.7255 4.42015 14.0799 4.42015 14.5694C4.42015 15.0588 4.78634 15.4132 5.25715 15.4132C5.50133 15.4132 5.67568 15.3289 5.7803 15.177V15.3795H6.14649V14.5694ZM4.78634 14.5694C4.78634 14.2824 4.97818 14.0462 5.29202 14.0462C5.58847 14.0462 5.79777 14.2656 5.79777 14.5694C5.79777 14.8563 5.58847 15.0925 5.29202 15.0925C4.97818 15.0756 4.78634 14.8563 4.78634 14.5694Z" fill="black"/>
<path d="M7.80347 1.45532H13.2963V11.0079H7.80347V1.45532Z" fill="#FF5F00"/>
<path d="M8.15213 6.23186C8.15213 4.29099 9.09374 2.56946 10.541 1.45553C9.4774 0.645432 8.13473 0.156006 6.66998 0.156006C3.19976 0.156006 0.392334 2.87322 0.392334 6.23186C0.392334 9.59042 3.19976 12.3077 6.6699 12.3077C8.13466 12.3077 9.47732 11.8183 10.541 11.0081C9.09374 9.91109 8.15213 8.17272 8.15213 6.23186Z" fill="#EB001B"/>
<path d="M20.7073 6.23186C20.7073 9.59042 17.8999 12.3077 14.4297 12.3077C12.965 12.3077 11.6223 11.8183 10.5586 11.0081C12.0234 9.89425 12.9476 8.17272 12.9476 6.23186C12.9476 4.29099 12.0059 2.56946 10.5586 1.45553C11.6222 0.645432 12.965 0.156006 14.4297 0.156006C17.8999 0.156006 20.7074 2.89013 20.7074 6.23186H20.7073Z" fill="#F79E1B"/>
</g>
<defs>
<clipPath id="clip0">
<rect width="20.335" height="15.2994" fill="white" transform="translate(0.392334 0.156006)"/>
</clipPath>
</defs>
</svg>
