<svg width="12" height="15" viewBox="0 0 12 15" fill="none" xmlns="http://www.w3.org/2000/svg">
<g clip-path="url(#clip0)">
<path d="M9.70351 1.91881C9.10838 1.19779 8.03259 0.888672 6.65634 0.888672H2.66207C2.5259 0.888677 2.39421 0.940315 2.29065 1.0343C2.1871 1.12829 2.11848 1.25845 2.09714 1.4014L0.434003 12.6134C0.400946 12.8345 0.562006 13.0347 0.772824 13.0347H3.23875L3.85805 8.85931L3.83883 8.99006C3.88295 8.69492 4.12042 8.47724 4.40162 8.47724H5.57342C7.87542 8.47724 9.67792 7.48337 10.2045 4.60832C10.2201 4.52329 10.2336 4.44053 10.2453 4.35967C10.1789 4.32226 10.1789 4.32226 10.2453 4.35967C10.4021 3.29702 10.2443 2.57369 9.70351 1.91881Z" fill="#27346A"/>
<path d="M4.8016 3.97687C4.86902 3.94275 4.94275 3.92507 5.01742 3.92511H8.14885C8.51966 3.92511 8.86553 3.95076 9.18159 4.00483C9.27003 4.01982 9.35801 4.03772 9.44541 4.0585C9.56928 4.08755 9.69173 4.12311 9.81229 4.16505C9.96767 4.22021 10.1124 4.28444 10.2454 4.35967C10.4021 3.29662 10.2443 2.57369 9.70351 1.91881C9.10804 1.19779 8.03259 0.888672 6.65634 0.888672H2.66173C2.38048 0.888672 2.14122 1.10631 2.09714 1.4014L0.434004 12.613C0.400946 12.8344 0.562006 13.0344 0.772483 13.0344H3.23875L4.5236 4.37365C4.53623 4.28853 4.56814 4.20794 4.61656 4.13882C4.66499 4.0697 4.72849 4.01412 4.8016 3.97687Z" fill="#27346A"/>
<path d="M10.2045 4.60631C9.67795 7.48096 7.87549 8.47523 5.57345 8.47523H4.4013C4.1201 8.47523 3.88259 8.69292 3.83889 8.98805L3.06844 14.1796C3.03966 14.3731 3.18043 14.5484 3.3646 14.5484H5.44331C5.56238 14.5484 5.67754 14.5032 5.76807 14.421C5.8586 14.3388 5.91856 14.2249 5.93717 14.0999L5.95741 13.9873L6.34919 11.348L6.37443 11.2021C6.39304 11.0771 6.453 10.9633 6.54352 10.8811C6.63404 10.7988 6.74918 10.7537 6.86825 10.7536H7.17935C9.19302 10.7536 10.7698 9.88404 11.2305 7.36914C11.4228 6.31816 11.3233 5.4407 10.8146 4.82436C10.6602 4.63768 10.4686 4.48351 10.2454 4.35767C10.2333 4.43893 10.2202 4.52128 10.2045 4.60631Z" fill="#2790C3"/>
<path d="M9.69447 4.12417C9.61237 4.09869 9.5295 4.07612 9.44598 4.05652C9.35854 4.03609 9.27056 4.01831 9.18216 4.00323C8.86576 3.94879 8.52015 3.9231 8.149 3.9231H5.01795C4.94322 3.92292 4.86943 3.94075 4.80213 3.97526C4.72894 4.0124 4.66537 4.06794 4.61692 4.13708C4.56847 4.20622 4.53661 4.28687 4.52409 4.37204L3.85858 8.85733L3.83936 8.98808C3.88313 8.69295 4.1206 8.47526 4.40185 8.47526H5.57399C7.87599 8.47526 9.67845 7.48139 10.205 4.60635C10.2207 4.52131 10.2338 4.43892 10.2459 4.3577C10.1126 4.28288 9.96824 4.21823 9.81282 4.16344C9.7736 4.14962 9.73416 4.13653 9.69451 4.12417" fill="#1F264F"/>
</g>
<defs>
<clipPath id="clip0">
<rect width="10.9338" height="13.7104" fill="white" transform="translate(0.428223 0.849609)"/>
</clipPath>
</defs>
</svg>
